{"glyphs":{"0":{"ha":863,"x_min":0,"x_max":0,"o":"m 396 -14 b 815 474 608 -14 776 189 b 517 986 857 769 740 986 b 92 501 303 986 132 785 b 396 -14 50 206 168 -14 z m 411 60 b 279 590 265 65 239 368 b 492 910 308 758 374 914 b 625 383 639 906 664 606 b 411 60 596 215 526 56 z "},"1":{"ha":501,"x_min":0,"x_max":0,"o":"m 436 950 b 410 986 439 976 431 988 b 231 929 389 985 294 954 b 151 881 164 904 154 897 b 192 844 150 865 157 854 b 244 744 249 826 251 801 l 163 167 b 69 29 149 71 69 75 b 132 0 69 8 86 0 l 329 0 b 390 28 372 0 390 7 b 325 167 390 69 311 71 z "},"2":{"ha":813,"x_min":0,"x_max":0,"o":"m 750 725 b 506 986 774 882 667 986 b 160 775 339 986 210 871 b 196 746 139 738 169 717 b 426 863 275 829 350 863 b 571 697 526 863 585 799 b 39 83 547 525 318 319 b 11 29 21 69 11 47 b 51 -8 11 10 22 -10 b 204 76 101 -8 139 76 b 544 -3 304 76 396 -3 b 736 203 657 -3 733 92 b 714 242 736 225 731 242 b 556 154 681 242 675 154 b 286 201 439 154 385 196 b 750 725 578 406 726 572 z "},"3":{"ha":833,"x_min":0,"x_max":0,"o":"m 810 913 b 788 967 831 939 824 967 b 700 915 756 967 732 915 b 349 982 585 915 471 982 b 192 844 256 982 219 932 b 196 728 178 800 164 728 b 263 785 218 728 229 753 b 374 824 293 813 333 824 b 601 790 465 824 522 794 b 328 558 518 706 429 632 b 332 493 297 536 290 497 b 583 279 500 474 603 411 b 356 97 567 157 461 97 b 99 222 238 97 156 144 b 44 192 78 249 36 229 b 381 -19 71 92 190 -19 b 763 278 617 -19 742 129 b 472 585 790 475 636 568 b 810 913 594 681 710 796 z "},"4":{"ha":835,"x_min":0,"x_max":0,"o":"m 496 -33 b 601 -6 517 -33 571 -22 b 639 49 628 8 636 26 l 657 175 l 699 175 b 767 240 729 175 753 188 b 767 332 788 303 789 332 b 676 315 746 332 726 315 l 765 943 b 725 989 769 975 756 989 b 608 922 682 989 656 968 b 299 588 557 874 401 703 b 35 240 151 424 43 304 b 86 181 28 188 47 181 l 488 182 l 463 6 b 496 -33 460 -22 472 -33 z m 214 315 b 201 364 178 314 175 333 b 583 794 300 483 422 626 l 515 317 z "},"5":{"ha":819,"x_min":0,"x_max":0,"o":"m 369 -14 b 749 293 610 -14 726 139 b 300 668 776 493 628 625 l 375 838 b 688 836 481 831 592 831 b 785 888 749 840 767 853 b 818 975 801 921 813 946 b 803 1018 824 1000 821 1018 b 651 972 767 1018 756 978 b 392 972 556 967 474 967 b 344 940 367 974 354 964 l 194 596 b 217 550 182 568 188 554 b 565 285 451 521 589 451 b 339 103 551 181 467 103 b 76 228 219 103 135 151 b 24 197 56 256 15 235 b 369 -14 49 99 168 -14 z "},"6":{"ha":826,"x_min":0,"x_max":0,"o":"m 394 -14 b 772 347 603 -14 743 144 b 528 681 797 532 697 681 b 289 567 435 681 339 632 b 564 892 321 779 440 892 b 719 851 625 892 664 882 b 760 897 746 836 776 864 b 560 986 735 942 665 986 b 83 436 329 986 125 742 b 394 -14 46 156 174 -14 z m 411 69 b 257 336 285 72 240 206 b 456 571 271 461 346 574 b 606 310 574 568 622 440 b 411 69 590 185 525 65 z "},"7":{"ha":744,"x_min":0,"x_max":0,"o":"m 774 979 b 664 924 732 979 719 924 b 299 986 533 924 429 986 b 122 763 175 986 122 869 b 144 725 122 744 128 725 b 303 831 182 726 188 831 b 607 794 404 831 499 781 b 121 72 418 558 150 285 b 143 18 118 51 121 32 b 253 -14 174 -1 222 -12 b 289 17 272 -15 286 -6 b 793 919 332 324 590 658 b 774 979 821 958 804 979 z "},"8":{"ha":818,"x_min":0,"x_max":0,"o":"m 786 772 b 525 985 806 914 671 985 b 165 739 344 985 186 893 b 276 514 151 640 206 571 b 53 251 174 460 71 369 b 358 -14 28 72 183 -14 b 742 258 557 -14 718 92 b 572 532 760 383 693 453 b 786 772 683 586 769 661 z m 639 754 b 519 565 631 689 592 625 b 513 569 518 567 515 568 b 338 783 417 631 325 693 b 500 911 349 864 422 911 b 639 754 597 911 653 850 z m 569 213 b 390 60 558 136 492 60 b 208 272 260 60 190 150 b 325 479 221 364 271 429 b 385 439 344 465 365 451 b 569 213 521 354 581 292 z "},"9":{"ha":832,"x_min":0,"x_max":0,"o":"m 332 -14 b 792 535 581 -14 750 229 b 503 986 828 817 715 986 b 103 617 311 986 132 825 b 347 292 76 438 178 292 b 586 406 440 292 535 340 b 311 81 553 193 435 81 b 156 121 249 81 211 89 b 115 75 129 135 99 108 b 332 -14 139 29 210 -15 z m 433 400 b 275 701 307 400 253 553 b 456 904 289 806 346 904 b 618 603 588 904 639 750 b 433 400 603 496 542 400 z "},"A":{"ha":974,"x_min":0,"x_max":0,"o":"m 144 0 b 206 33 178 0 201 6 b 190 171 213 79 132 60 l 231 244 b 447 285 251 285 251 285 b 647 243 636 285 636 285 l 664 174 b 597 32 692 65 606 82 b 656 0 594 8 615 0 l 849 0 b 924 35 899 0 919 8 b 840 174 931 82 869 60 l 644 942 b 606 972 639 963 626 972 l 463 972 b 418 939 433 972 419 961 b 447 815 410 890 492 899 l 101 171 b -35 31 42 60 -28 79 b 26 0 -39 7 -14 0 z m 458 358 b 310 394 290 358 290 358 l 513 776 l 608 394 b 458 358 618 358 617 358 z "},"Á":{"ha":974,"x_min":0,"x_max":0,"o":"m 499 1056 b 719 1181 568 1044 710 1111 b 669 1257 726 1219 700 1251 b 553 1189 633 1264 600 1232 b 461 1082 511 1149 464 1101 b 499 1056 460 1068 476 1058 z m 144 0 b 206 33 178 0 201 6 b 190 171 213 79 132 60 l 231 244 b 447 285 251 285 251 285 b 647 243 636 285 636 285 l 664 174 b 597 32 692 65 606 82 b 656 0 594 8 615 0 l 849 0 b 924 35 899 0 919 8 b 840 174 931 82 869 60 l 644 942 b 606 972 639 963 626 972 l 463 972 b 418 939 433 972 419 961 b 447 815 410 890 492 899 l 101 171 b -35 31 42 60 -28 79 b 26 0 -39 7 -14 0 z m 458 358 b 310 394 290 358 290 358 l 513 776 l 608 394 b 458 358 618 358 617 358 z "},"Ă":{"ha":974,"x_min":0,"x_max":0,"o":"m 542 1050 b 749 1217 651 1050 733 1125 b 733 1253 753 1239 747 1253 b 708 1236 725 1253 721 1249 b 558 1161 665 1186 622 1161 b 429 1236 494 1161 457 1188 b 407 1253 422 1249 415 1253 b 382 1217 393 1253 383 1239 b 542 1050 372 1128 426 1050 z m 144 0 b 206 33 178 0 201 6 b 190 171 213 79 132 60 l 231 244 b 447 285 251 285 251 285 b 647 243 636 285 636 285 l 664 174 b 597 32 692 65 606 82 b 656 0 594 8 615 0 l 849 0 b 924 35 899 0 919 8 b 840 174 931 82 869 60 l 644 942 b 606 972 639 963 626 972 l 463 972 b 418 939 433 972 419 961 b 447 815 410 890 492 899 l 101 171 b -35 31 42 60 -28 79 b 26 0 -39 7 -14 0 z m 458 358 b 310 394 290 358 290 358 l 513 776 l 608 394 b 458 358 618 358 617 358 z "},"Â":{"ha":974,"x_min":0,"x_max":0,"o":"m 379 1044 b 561 1110 417 1043 511 1079 b 725 1044 600 1079 685 1043 b 746 1064 740 1046 746 1054 b 682 1151 747 1079 718 1108 b 576 1231 625 1217 624 1231 b 449 1149 532 1231 518 1211 b 361 1064 399 1107 365 1079 b 379 1044 360 1054 363 1046 z m 144 0 b 206 33 178 0 201 6 b 190 171 213 79 132 60 l 231 244 b 447 285 251 285 251 285 b 647 243 636 285 636 285 l 664 174 b 597 32 692 65 606 82 b 656 0 594 8 615 0 l 849 0 b 924 35 899 0 919 8 b 840 174 931 82 869 60 l 644 942 b 606 972 639 963 626 972 l 463 972 b 418 939 433 972 419 961 b 447 815 410 890 492 899 l 101 171 b -35 31 42 60 -28 79 b 26 0 -39 7 -14 0 z m 458 358 b 310 394 290 358 290 358 l 513 776 l 608 394 b 458 358 618 358 617 358 z "},"Ä":{"ha":974,"x_min":0,"x_max":0,"o":"m 431 1071 b 526 1157 481 1071 526 1107 b 456 1226 526 1199 497 1226 b 365 1132 404 1226 365 1179 b 431 1071 365 1094 394 1071 z m 646 1071 b 742 1157 694 1071 742 1107 b 669 1226 742 1199 711 1226 b 579 1132 619 1226 579 1179 b 646 1071 579 1094 608 1071 z m 144 0 b 206 33 178 0 201 6 b 190 171 213 79 132 60 l 231 244 b 447 285 251 285 251 285 b 647 243 636 285 636 285 l 664 174 b 597 32 692 65 606 82 b 656 0 594 8 615 0 l 849 0 b 924 35 899 0 919 8 b 840 174 931 82 869 60 l 644 942 b 606 972 639 963 626 972 l 463 972 b 418 939 433 972 419 961 b 447 815 410 890 492 899 l 101 171 b -35 31 42 60 -28 79 b 26 0 -39 7 -14 0 z m 458 358 b 310 394 290 358 290 358 l 513 776 l 608 394 b 458 358 618 358 617 358 z "},"À":{"ha":974,"x_min":0,"x_max":0,"o":"m 596 1056 b 632 1082 617 1058 635 1068 b 542 1189 631 1101 583 1149 b 425 1257 494 1232 461 1264 b 375 1181 394 1251 368 1219 b 596 1056 385 1111 525 1044 z m 144 0 b 206 33 178 0 201 6 b 190 171 213 79 132 60 l 231 244 b 447 285 251 285 251 285 b 647 243 636 285 636 285 l 664 174 b 597 32 692 65 606 82 b 656 0 594 8 615 0 l 849 0 b 924 35 899 0 919 8 b 840 174 931 82 869 60 l 644 942 b 606 972 639 963 626 972 l 463 972 b 418 939 433 972 419 961 b 447 815 410 890 492 899 l 101 171 b -35 31 42 60 -28 79 b 26 0 -39 7 -14 0 z m 458 358 b 310 394 290 358 290 358 l 513 776 l 608 394 b 458 358 618 358 617 358 z "},"Ā":{"ha":974,"x_min":0,"x_max":0,"o":"m 681 1074 b 739 1117 729 1074 735 1082 b 692 1154 743 1144 739 1154 l 378 1154 b 324 1113 332 1154 328 1146 b 367 1074 319 1083 322 1074 z m 144 0 b 206 33 178 0 201 6 b 190 171 213 79 132 60 l 231 244 b 447 285 251 285 251 285 b 647 243 636 285 636 285 l 664 174 b 597 32 692 65 606 82 b 656 0 594 8 615 0 l 849 0 b 924 35 899 0 919 8 b 840 174 931 82 869 60 l 644 942 b 606 972 639 963 626 972 l 463 972 b 418 939 433 972 419 961 b 447 815 410 890 492 899 l 101 171 b -35 31 42 60 -28 79 b 26 0 -39 7 -14 0 z m 458 358 b 310 394 290 358 290 358 l 513 776 l 608 394 b 458 358 618 358 617 358 z "},"Ą":{"ha":974,"x_min":0,"x_max":0,"o":"m 901 -183 b 847 -196 885 -190 863 -196 b 772 -124 797 -196 772 -167 b 832 0 772 -89 789 -49 l 849 0 b 924 35 899 0 919 8 b 840 174 931 82 869 60 l 644 942 b 606 972 639 963 626 972 l 463 972 b 418 939 433 972 419 961 b 447 815 410 890 492 899 l 101 171 b -35 31 42 60 -28 79 b 26 0 -39 7 -14 0 l 144 0 b 206 33 178 0 201 6 b 190 171 213 79 132 60 l 231 244 b 447 285 251 285 251 285 b 647 243 636 285 636 285 l 664 174 b 597 32 692 65 606 82 b 656 0 594 8 615 0 l 772 0 b 671 -144 708 -42 671 -89 b 807 -257 671 -215 731 -257 b 924 -214 849 -257 894 -243 b 901 -183 940 -196 932 -169 z m 458 358 b 310 394 290 358 290 358 l 513 776 l 608 394 b 458 358 618 358 617 358 z "},"Å":{"ha":974,"x_min":0,"x_max":0,"o":"m 543 1038 b 706 1174 622 1038 694 1090 b 586 1306 717 1254 664 1306 b 422 1169 506 1306 433 1251 b 543 1038 411 1090 464 1038 z m 558 1103 b 496 1171 519 1103 496 1131 b 572 1244 500 1214 529 1244 b 632 1176 610 1244 632 1215 b 558 1103 628 1136 600 1103 z m 144 0 b 206 33 178 0 201 6 b 190 171 213 79 132 60 l 231 244 b 447 285 251 285 251 285 b 647 243 636 285 636 285 l 664 174 b 597 32 692 65 606 82 b 656 0 594 8 615 0 l 849 0 b 924 35 899 0 919 8 b 840 174 931 82 869 60 l 644 942 b 606 972 639 963 626 972 l 463 972 b 418 939 433 972 419 961 b 447 815 410 890 492 899 l 101 171 b -35 31 42 60 -28 79 b 26 0 -39 7 -14 0 z m 458 358 b 310 394 290 358 290 358 l 513 776 l 608 394 b 458 358 618 358 617 358 z "},"Ã":{"ha":974,"x_min":0,"x_max":0,"o":"m 651 1053 b 767 1143 719 1053 760 1094 b 728 1185 775 1200 732 1219 b 674 1144 724 1156 704 1144 b 450 1203 626 1144 535 1203 b 336 1113 382 1203 343 1160 b 376 1069 328 1056 371 1036 b 431 1111 379 1100 400 1111 b 651 1053 504 1111 583 1053 z m 144 0 b 206 33 178 0 201 6 b 190 171 213 79 132 60 l 231 244 b 447 285 251 285 251 285 b 647 243 636 285 636 285 l 664 174 b 597 32 692 65 606 82 b 656 0 594 8 615 0 l 849 0 b 924 35 899 0 919 8 b 840 174 931 82 869 60 l 644 942 b 606 972 639 963 626 972 l 463 972 b 418 939 433 972 419 961 b 447 815 410 890 492 899 l 101 171 b -35 31 42 60 -28 79 b 26 0 -39 7 -14 0 z m 458 358 b 310 394 290 358 290 358 l 513 776 l 608 394 b 458 358 618 358 617 358 z "},"Æ":{"ha":1326,"x_min":0,"x_max":0,"o":"m 164 0 b 203 28 194 0 201 10 b 182 58 206 43 196 50 b 175 149 136 85 149 115 l 247 235 b 421 275 272 268 283 275 l 603 275 l 588 186 b 488 33 568 74 490 81 b 550 0 485 10 499 0 l 1092 0 b 1214 53 1179 0 1199 17 b 1258 213 1231 93 1243 140 b 1240 268 1263 243 1264 263 b 1174 214 1219 272 1203 261 b 967 76 1119 122 1086 76 l 878 75 b 742 142 751 74 735 94 l 788 469 b 918 538 796 532 833 538 b 1113 407 1065 536 1053 393 b 1140 476 1136 414 1144 425 l 1129 614 b 1096 657 1128 643 1118 657 b 929 611 1051 657 1063 611 b 818 679 844 611 810 617 l 839 833 b 989 897 844 878 868 897 l 1053 897 b 1244 765 1156 897 1207 853 b 1301 722 1263 729 1275 715 b 1328 782 1324 729 1329 750 b 1313 928 1326 843 1321 890 b 1211 974 1304 965 1290 974 l 635 972 b 596 944 604 972 597 963 b 615 907 593 928 601 918 b 613 813 638 886 649 856 l 76 149 b -36 58 44 110 13 83 b -67 28 -53 50 -65 43 b -33 0 -68 10 -64 0 z m 450 347 b 367 389 358 347 349 367 l 671 767 l 613 347 z "},"B":{"ha":922,"x_min":0,"x_max":0,"o":"m 388 0 b 857 313 656 0 828 107 b 625 581 876 451 786 553 b 804 760 736 606 793 676 b 489 972 824 906 700 972 l 235 972 b 157 939 183 972 161 964 b 224 821 150 889 222 904 b 218 760 224 804 222 789 l 142 213 b 129 151 138 183 135 168 b 29 33 106 69 36 83 b 99 0 25 8 47 0 z m 436 613 b 364 642 400 613 360 611 l 393 847 b 472 897 399 889 425 897 b 638 739 586 897 651 831 b 436 613 626 654 568 613 z m 394 75 b 297 172 300 75 288 104 l 343 485 b 418 533 347 518 357 533 b 675 282 606 533 696 429 b 394 75 654 136 563 75 z "},"":{"ha":922,"x_min":0,"x_max":0,"o":"m 388 0 b 857 313 656 0 828 107 b 625 581 876 451 786 553 b 804 760 736 606 793 676 b 489 972 824 906 700 972 l 235 972 b 157 939 183 972 161 964 b 224 821 150 889 222 904 b 218 760 224 804 222 789 l 142 213 b 129 151 138 183 135 168 b 29 33 106 69 36 83 b 99 0 25 8 47 0 z m 436 613 b 364 642 400 613 360 611 l 393 847 b 472 897 399 889 425 897 b 638 739 586 897 651 831 b 436 613 626 654 568 613 z m 394 75 b 297 172 300 75 288 104 l 343 485 b 418 533 347 518 357 533 b 675 282 606 533 696 429 b 394 75 654 136 563 75 z "},"C":{"ha":964,"x_min":0,"x_max":0,"o":"m 494 -14 b 888 176 683 -14 831 93 b 854 222 918 219 889 256 b 557 90 772 146 682 90 b 254 539 335 90 221 290 b 611 901 282 735 419 901 b 865 724 765 901 817 810 b 925 669 886 686 899 668 b 960 725 953 671 958 692 b 950 911 958 807 954 865 b 904 983 944 969 931 983 b 836 965 879 983 869 965 b 665 986 800 965 756 986 b 76 494 368 986 118 785 b 494 -14 36 206 210 -14 z "},"Ć":{"ha":964,"x_min":0,"x_max":0,"o":"m 556 1056 b 776 1181 625 1044 767 1111 b 726 1257 783 1219 757 1251 b 610 1189 690 1264 657 1232 b 518 1082 568 1149 521 1101 b 556 1056 517 1068 533 1058 z m 494 -14 b 888 176 683 -14 831 93 b 854 222 918 219 889 256 b 557 90 772 146 682 90 b 254 539 335 90 221 290 b 611 901 282 735 419 901 b 865 724 765 901 817 810 b 925 669 886 686 899 668 b 960 725 953 671 958 692 b 950 911 958 807 954 865 b 904 983 944 969 931 983 b 836 965 879 983 869 965 b 665 986 800 965 756 986 b 76 494 368 986 118 785 b 494 -14 36 206 210 -14 z "},"Č":{"ha":964,"x_min":0,"x_max":0,"o":"m 608 1047 b 736 1128 656 1047 660 1063 b 825 1214 783 1169 822 1199 b 807 1235 826 1225 824 1233 b 626 1168 769 1236 675 1200 b 463 1235 586 1200 501 1236 b 439 1214 446 1233 440 1225 b 501 1129 439 1200 465 1172 b 608 1047 556 1068 563 1047 z m 494 -14 b 888 176 683 -14 831 93 b 854 222 918 219 889 256 b 557 90 772 146 682 90 b 254 539 335 90 221 290 b 611 901 282 735 419 901 b 865 724 765 901 817 810 b 925 669 886 686 899 668 b 960 725 953 671 958 692 b 950 911 958 807 954 865 b 904 983 944 969 931 983 b 836 965 879 983 869 965 b 665 986 800 965 756 986 b 76 494 368 986 118 785 b 494 -14 36 206 210 -14 z "},"Ç":{"ha":964,"x_min":0,"x_max":0,"o":"m 950 911 b 904 983 944 969 931 983 b 836 965 879 983 869 965 b 665 986 800 965 756 986 b 76 494 368 986 118 785 b 432 -10 39 228 185 19 l 388 -93 b 404 -118 379 -107 390 -115 b 496 -190 447 -128 496 -144 b 435 -246 496 -219 476 -246 b 367 -225 404 -246 385 -235 b 340 -250 343 -210 326 -232 b 456 -296 358 -272 396 -296 b 588 -182 528 -296 588 -250 b 458 -72 588 -115 528 -85 l 489 -14 l 494 -14 b 888 176 683 -14 831 93 b 854 222 918 219 889 256 b 557 90 772 146 682 90 b 254 539 335 90 221 290 b 611 901 282 735 419 901 b 865 724 765 901 817 810 b 925 669 886 686 899 668 b 960 725 953 671 958 692 b 950 911 958 807 954 865 z "},"Ċ":{"ha":964,"x_min":0,"x_max":0,"o":"m 583 1056 b 718 1169 646 1053 715 1111 b 643 1249 719 1211 686 1247 b 510 1132 579 1254 511 1190 b 583 1056 507 1090 538 1057 z m 494 -14 b 888 176 683 -14 831 93 b 854 222 918 219 889 256 b 557 90 772 146 682 90 b 254 539 335 90 221 290 b 611 901 282 735 419 901 b 865 724 765 901 817 810 b 925 669 886 686 899 668 b 960 725 953 671 958 692 b 950 911 958 807 954 865 b 904 983 944 969 931 983 b 836 965 879 983 869 965 b 665 986 800 965 756 986 b 76 494 368 986 118 785 b 494 -14 36 206 210 -14 z "},"D":{"ha":1053,"x_min":0,"x_max":0,"o":"m 444 0 b 1024 503 794 0 986 236 b 543 972 1054 726 935 972 l 235 972 b 157 939 183 972 161 964 b 224 821 150 889 222 904 b 218 760 224 804 222 789 l 142 213 b 129 151 138 183 135 168 b 29 33 106 69 36 83 b 99 0 25 8 47 0 z m 438 72 b 296 156 307 72 288 100 l 392 842 b 488 903 400 893 421 903 b 842 431 749 903 879 697 b 438 72 814 238 710 72 z "},"Ď":{"ha":1053,"x_min":0,"x_max":0,"o":"m 496 1047 b 624 1128 543 1047 547 1063 b 713 1214 671 1169 710 1199 b 694 1235 714 1225 711 1233 b 514 1168 657 1236 563 1200 b 350 1235 474 1200 389 1236 b 326 1214 333 1233 328 1225 b 389 1129 326 1200 353 1172 b 496 1047 443 1068 450 1047 z m 444 0 b 1024 503 794 0 986 236 b 543 972 1054 726 935 972 l 235 972 b 157 939 183 972 161 964 b 224 821 150 889 222 904 b 218 760 224 804 222 789 l 142 213 b 129 151 138 183 135 168 b 29 33 106 69 36 83 b 99 0 25 8 47 0 z m 438 72 b 296 156 307 72 288 100 l 392 842 b 488 903 400 893 421 903 b 842 431 749 903 879 697 b 438 72 814 238 710 72 z "},"Đ":{"ha":1053,"x_min":0,"x_max":0,"o":"m 235 972 b 157 939 183 972 161 964 b 224 821 150 889 222 904 b 218 760 224 804 222 789 l 185 522 l 143 522 b 100 489 114 522 103 510 b 132 447 96 461 99 447 l 175 447 l 142 213 b 129 151 138 183 135 168 b 29 33 106 69 36 83 b 99 0 25 8 47 0 l 444 0 b 1024 503 794 0 986 236 b 543 972 1054 726 935 972 z m 842 431 b 438 72 814 238 710 72 b 296 156 307 72 288 100 l 336 447 l 449 447 b 493 489 481 447 489 460 b 460 522 496 510 489 522 l 347 522 l 392 842 b 488 903 400 893 421 903 b 842 431 749 903 879 697 z "},"Ð":{"ha":1053,"x_min":0,"x_max":0,"o":"m 235 972 b 157 939 183 972 161 964 b 224 821 150 889 222 904 b 218 760 224 804 222 789 l 185 522 l 143 522 b 100 489 114 522 103 510 b 132 447 96 461 99 447 l 175 447 l 142 213 b 129 151 138 183 135 168 b 29 33 106 69 36 83 b 99 0 25 8 47 0 l 444 0 b 1024 503 794 0 986 236 b 543 972 1054 726 935 972 z m 842 431 b 438 72 814 238 710 72 b 296 156 307 72 288 100 l 336 447 l 449 447 b 493 489 481 447 489 460 b 460 522 496 510 489 522 l 347 522 l 392 842 b 488 903 400 893 421 903 b 842 431 749 903 879 697 z "},"E":{"ha":878,"x_min":0,"x_max":0,"o":"m 643 0 b 765 53 731 0 750 17 b 810 213 782 93 796 140 b 793 268 815 243 817 263 b 726 214 772 272 754 261 b 529 76 671 122 638 76 l 429 75 b 293 142 303 74 286 94 l 339 469 b 471 538 349 532 385 538 b 665 407 617 536 604 393 b 692 476 689 414 697 425 l 682 614 b 649 657 679 643 669 657 b 481 611 604 657 614 611 b 369 679 396 611 361 617 l 390 833 b 542 897 397 878 419 897 l 604 897 b 797 765 708 897 760 853 b 853 722 814 729 826 715 b 879 782 876 729 881 750 b 864 928 879 843 872 890 b 763 974 857 965 843 974 l 235 972 b 157 939 183 972 161 967 b 218 760 149 876 242 926 l 142 213 b 29 33 118 46 38 96 b 97 0 25 6 46 0 z "},"":{"ha":878,"x_min":0,"x_max":0,"o":"m 643 0 b 765 53 731 0 750 17 b 810 213 782 93 796 140 b 793 268 815 243 817 263 b 726 214 772 272 754 261 b 529 76 671 122 638 76 l 429 75 b 293 142 303 74 286 94 l 339 469 b 471 538 349 532 385 538 b 665 407 617 536 604 393 b 692 476 689 414 697 425 l 682 614 b 649 657 679 643 669 657 b 481 611 604 657 614 611 b 369 679 396 611 361 617 l 390 833 b 542 897 397 878 419 897 l 604 897 b 797 765 708 897 760 853 b 853 722 814 729 826 715 b 879 782 876 729 881 750 b 864 928 879 843 872 890 b 763 974 857 965 843 974 l 235 972 b 157 939 183 972 161 967 b 218 760 149 876 242 926 l 142 213 b 29 33 118 46 38 96 b 97 0 25 6 46 0 z "},"É":{"ha":878,"x_min":0,"x_max":0,"o":"m 433 1056 b 654 1181 503 1044 644 1111 b 604 1257 661 1219 635 1251 b 488 1189 568 1264 535 1232 b 396 1082 446 1149 399 1101 b 433 1056 394 1068 411 1058 z m 643 0 b 765 53 731 0 750 17 b 810 213 782 93 796 140 b 793 268 815 243 817 263 b 726 214 772 272 754 261 b 529 76 671 122 638 76 l 429 75 b 293 142 303 74 286 94 l 339 469 b 471 538 349 532 385 538 b 665 407 617 536 604 393 b 692 476 689 414 697 425 l 682 614 b 649 657 679 643 669 657 b 481 611 604 657 614 611 b 369 679 396 611 361 617 l 390 833 b 542 897 397 878 419 897 l 604 897 b 797 765 708 897 760 853 b 853 722 814 729 826 715 b 879 782 876 729 881 750 b 864 928 879 843 872 890 b 763 974 857 965 843 974 l 235 972 b 157 939 183 972 161 967 b 218 760 149 876 242 926 l 142 213 b 29 33 118 46 38 96 b 97 0 25 6 46 0 z "},"Ě":{"ha":878,"x_min":0,"x_max":0,"o":"m 526 1047 b 654 1128 574 1047 578 1063 b 743 1214 701 1169 740 1199 b 725 1235 744 1225 742 1233 b 544 1168 688 1236 593 1200 b 381 1235 504 1200 419 1236 b 357 1214 364 1233 358 1225 b 419 1129 357 1200 383 1172 b 526 1047 474 1068 481 1047 z m 643 0 b 765 53 731 0 750 17 b 810 213 782 93 796 140 b 793 268 815 243 817 263 b 726 214 772 272 754 261 b 529 76 671 122 638 76 l 429 75 b 293 142 303 74 286 94 l 339 469 b 471 538 349 532 385 538 b 665 407 617 536 604 393 b 692 476 689 414 697 425 l 682 614 b 649 657 679 643 669 657 b 481 611 604 657 614 611 b 369 679 396 611 361 617 l 390 833 b 542 897 397 878 419 897 l 604 897 b 797 765 708 897 760 853 b 853 722 814 729 826 715 b 879 782 876 729 881 750 b 864 928 879 843 872 890 b 763 974 857 965 843 974 l 235 972 b 157 939 183 972 161 967 b 218 760 149 876 242 926 l 142 213 b 29 33 118 46 38 96 b 97 0 25 6 46 0 z "},"Ê":{"ha":878,"x_min":0,"x_max":0,"o":"m 354 1044 b 536 1110 392 1043 486 1079 b 700 1044 575 1079 660 1043 b 721 1064 715 1046 721 1054 b 657 1151 722 1079 693 1108 b 551 1231 600 1217 599 1231 b 424 1149 507 1231 493 1211 b 336 1064 374 1107 340 1079 b 354 1044 335 1054 338 1046 z m 643 0 b 765 53 731 0 750 17 b 810 213 782 93 796 140 b 793 268 815 243 817 263 b 726 214 772 272 754 261 b 529 76 671 122 638 76 l 429 75 b 293 142 303 74 286 94 l 339 469 b 471 538 349 532 385 538 b 665 407 617 536 604 393 b 692 476 689 414 697 425 l 682 614 b 649 657 679 643 669 657 b 481 611 604 657 614 611 b 369 679 396 611 361 617 l 390 833 b 542 897 397 878 419 897 l 604 897 b 797 765 708 897 760 853 b 853 722 814 729 826 715 b 879 782 876 729 881 750 b 864 928 879 843 872 890 b 763 974 857 965 843 974 l 235 972 b 157 939 183 972 161 967 b 218 760 149 876 242 926 l 142 213 b 29 33 118 46 38 96 b 97 0 25 6 46 0 z "},"Ë":{"ha":878,"x_min":0,"x_max":0,"o":"m 426 1071 b 522 1157 476 1071 522 1107 b 451 1226 522 1199 493 1226 b 361 1132 400 1226 361 1179 b 426 1071 361 1094 390 1071 z m 642 1071 b 738 1157 690 1071 738 1107 b 665 1226 738 1199 707 1226 b 575 1132 615 1226 575 1179 b 642 1071 575 1094 604 1071 z m 643 0 b 765 53 731 0 750 17 b 810 213 782 93 796 140 b 793 268 815 243 817 263 b 726 214 772 272 754 261 b 529 76 671 122 638 76 l 429 75 b 293 142 303 74 286 94 l 339 469 b 471 538 349 532 385 538 b 665 407 617 536 604 393 b 692 476 689 414 697 425 l 682 614 b 649 657 679 643 669 657 b 481 611 604 657 614 611 b 369 679 396 611 361 617 l 390 833 b 542 897 397 878 419 897 l 604 897 b 797 765 708 897 760 853 b 853 722 814 729 826 715 b 879 782 876 729 881 750 b 864 928 879 843 872 890 b 763 974 857 965 843 974 l 235 972 b 157 939 183 972 161 967 b 218 760 149 876 242 926 l 142 213 b 29 33 118 46 38 96 b 97 0 25 6 46 0 z "},"Ė":{"ha":878,"x_min":0,"x_max":0,"o":"m 538 1054 b 672 1168 600 1051 669 1110 b 597 1247 674 1210 640 1246 b 464 1131 533 1253 465 1189 b 538 1054 461 1089 492 1056 z m 643 0 b 765 53 731 0 750 17 b 810 213 782 93 796 140 b 793 268 815 243 817 263 b 726 214 772 272 754 261 b 529 76 671 122 638 76 l 429 75 b 293 142 303 74 286 94 l 339 469 b 471 538 349 532 385 538 b 665 407 617 536 604 393 b 692 476 689 414 697 425 l 682 614 b 649 657 679 643 669 657 b 481 611 604 657 614 611 b 369 679 396 611 361 617 l 390 833 b 542 897 397 878 419 897 l 604 897 b 797 765 708 897 760 853 b 853 722 814 729 826 715 b 879 782 876 729 881 750 b 864 928 879 843 872 890 b 763 974 857 965 843 974 l 235 972 b 157 939 183 972 161 967 b 218 760 149 876 242 926 l 142 213 b 29 33 118 46 38 96 b 97 0 25 6 46 0 z "},"È":{"ha":878,"x_min":0,"x_max":0,"o":"m 622 1056 b 658 1082 643 1058 661 1068 b 568 1189 657 1101 610 1149 b 451 1257 521 1232 488 1264 b 401 1181 421 1251 394 1219 b 622 1056 411 1111 551 1044 z m 643 0 b 765 53 731 0 750 17 b 810 213 782 93 796 140 b 793 268 815 243 817 263 b 726 214 772 272 754 261 b 529 76 671 122 638 76 l 429 75 b 293 142 303 74 286 94 l 339 469 b 471 538 349 532 385 538 b 665 407 617 536 604 393 b 692 476 689 414 697 425 l 682 614 b 649 657 679 643 669 657 b 481 611 604 657 614 611 b 369 679 396 611 361 617 l 390 833 b 542 897 397 878 419 897 l 604 897 b 797 765 708 897 760 853 b 853 722 814 729 826 715 b 879 782 876 729 881 750 b 864 928 879 843 872 890 b 763 974 857 965 843 974 l 235 972 b 157 939 183 972 161 967 b 218 760 149 876 242 926 l 142 213 b 29 33 118 46 38 96 b 97 0 25 6 46 0 z "},"Ē":{"ha":878,"x_min":0,"x_max":0,"o":"m 685 1074 b 743 1117 733 1074 739 1082 b 696 1154 747 1144 743 1154 l 382 1154 b 328 1113 336 1154 332 1146 b 371 1074 324 1083 326 1074 z m 643 0 b 765 53 731 0 750 17 b 810 213 782 93 796 140 b 793 268 815 243 817 263 b 726 214 772 272 754 261 b 529 76 671 122 638 76 l 429 75 b 293 142 303 74 286 94 l 339 469 b 471 538 349 532 385 538 b 665 407 617 536 604 393 b 692 476 689 414 697 425 l 682 614 b 649 657 679 643 669 657 b 481 611 604 657 614 611 b 369 679 396 611 361 617 l 390 833 b 542 897 397 878 419 897 l 604 897 b 797 765 708 897 760 853 b 853 722 814 729 826 715 b 879 782 876 729 881 750 b 864 928 879 843 872 890 b 763 974 857 965 843 974 l 235 972 b 157 939 183 972 161 967 b 218 760 149 876 242 926 l 142 213 b 29 33 118 46 38 96 b 97 0 25 6 46 0 z "},"Ę":{"ha":878,"x_min":0,"x_max":0,"o":"m 879 782 b 864 928 879 843 872 890 b 763 974 857 965 843 974 l 235 972 b 157 939 183 972 161 967 b 218 760 149 876 242 926 l 142 213 b 29 33 118 46 38 96 b 97 0 25 6 46 0 l 557 0 b 456 -144 493 -42 456 -89 b 592 -257 456 -215 515 -257 b 708 -214 633 -257 679 -243 b 686 -183 725 -196 717 -169 b 632 -196 669 -190 647 -196 b 557 -124 582 -196 557 -167 b 617 0 557 -89 574 -49 l 643 0 b 765 53 731 0 750 17 b 810 213 782 93 796 140 b 793 268 815 243 817 263 b 726 214 772 272 754 261 b 529 76 671 122 638 76 l 429 75 b 293 142 303 74 286 94 l 339 469 b 471 538 349 532 385 538 b 665 407 617 536 604 393 b 692 476 689 414 697 425 l 682 614 b 649 657 679 643 669 657 b 481 611 604 657 614 611 b 369 679 396 611 361 617 l 390 833 b 542 897 397 878 419 897 l 604 897 b 797 765 708 897 760 853 b 853 722 814 729 826 715 b 879 782 876 729 881 750 z "},"F":{"ha":863,"x_min":0,"x_max":0,"o":"m 872 782 b 857 928 872 843 865 890 b 757 974 850 965 836 974 l 235 972 b 157 939 183 972 161 967 b 218 760 149 876 242 926 l 142 217 b 29 33 118 54 38 93 b 97 0 25 8 46 0 l 283 0 b 363 33 338 0 358 8 b 304 217 371 93 281 54 l 338 456 b 446 524 347 519 385 524 l 481 524 b 669 394 624 524 611 379 b 697 464 694 400 701 411 l 686 601 b 654 644 685 629 676 644 b 490 599 611 644 619 599 l 456 599 b 367 667 394 599 358 603 l 390 832 b 542 897 397 878 419 897 l 607 897 b 790 765 701 897 753 853 b 846 722 807 729 819 715 b 872 782 869 729 874 750 z "},"G":{"ha":1039,"x_min":0,"x_max":0,"o":"m 492 -14 b 914 186 706 -14 903 93 l 932 317 b 1004 467 949 443 997 415 b 954 500 1008 492 988 500 l 725 499 b 647 465 671 499 651 490 b 771 315 639 404 788 439 l 751 178 b 543 76 742 113 631 76 b 250 546 321 76 214 278 b 601 901 278 733 410 901 b 861 724 760 901 815 810 b 918 669 881 686 893 668 b 951 725 943 671 950 692 b 944 911 953 807 949 865 b 899 983 940 969 925 983 b 831 965 874 983 864 965 b 651 986 794 965 750 986 b 72 464 360 986 114 756 b 492 -14 33 188 194 -14 z "},"Ğ":{"ha":1039,"x_min":0,"x_max":0,"o":"m 649 1050 b 856 1217 758 1050 840 1125 b 840 1253 860 1239 854 1253 b 815 1236 832 1253 828 1249 b 665 1161 772 1186 729 1161 b 536 1236 601 1161 564 1188 b 514 1253 529 1249 522 1253 b 489 1217 500 1253 490 1239 b 649 1050 479 1128 533 1050 z m 492 -14 b 914 186 706 -14 903 93 l 932 317 b 1004 467 949 443 997 415 b 954 500 1008 492 988 500 l 725 499 b 647 465 671 499 651 490 b 771 315 639 404 788 439 l 751 178 b 543 76 742 113 631 76 b 250 546 321 76 214 278 b 601 901 278 733 410 901 b 861 724 760 901 815 810 b 918 669 881 686 893 668 b 951 725 943 671 950 692 b 944 911 953 807 949 865 b 899 983 940 969 925 983 b 831 965 874 983 864 965 b 651 986 794 965 750 986 b 72 464 360 986 114 756 b 492 -14 33 188 194 -14 z "},"Ġ":{"ha":1039,"x_min":0,"x_max":0,"o":"m 614 1056 b 749 1169 676 1053 746 1111 b 674 1249 750 1211 717 1247 b 540 1132 610 1254 542 1190 b 614 1056 538 1090 568 1057 z m 492 -14 b 914 186 706 -14 903 93 l 932 317 b 1004 467 949 443 997 415 b 954 500 1008 492 988 500 l 725 499 b 647 465 671 499 651 490 b 771 315 639 404 788 439 l 751 178 b 543 76 742 113 631 76 b 250 546 321 76 214 278 b 601 901 278 733 410 901 b 861 724 760 901 815 810 b 918 669 881 686 893 668 b 951 725 943 671 950 692 b 944 911 953 807 949 865 b 899 983 940 969 925 983 b 831 965 874 983 864 965 b 651 986 794 965 750 986 b 72 464 360 986 114 756 b 492 -14 33 188 194 -14 z "},"H":{"ha":1136,"x_min":0,"x_max":0,"o":"m 285 0 b 363 33 338 0 358 8 b 299 151 369 86 300 65 b 301 199 299 168 300 183 l 331 411 b 592 479 340 479 340 479 b 825 411 835 479 835 479 l 796 199 b 785 151 794 183 790 168 b 685 33 761 69 692 83 b 754 0 682 8 703 0 l 940 0 b 1018 33 994 0 1015 8 b 954 151 1025 86 957 65 b 958 199 954 168 956 183 l 1038 774 b 1049 821 1039 789 1043 804 b 1149 939 1072 904 1142 889 b 1079 972 1151 964 1131 972 l 893 972 b 815 939 839 972 818 964 b 879 821 808 886 876 907 b 875 774 879 804 878 789 l 854 622 b 604 554 844 554 844 554 b 361 622 351 554 351 554 l 382 774 b 393 821 383 789 388 804 b 492 939 417 904 485 889 b 424 972 494 964 474 972 l 236 972 b 160 939 183 972 163 964 b 222 821 151 886 221 907 b 219 774 222 804 221 789 l 140 199 b 128 151 138 183 133 168 b 29 33 104 69 36 83 b 97 0 26 8 47 0 z "},"Ħ":{"ha":1136,"x_min":0,"x_max":0,"o":"m 893 972 b 815 939 839 972 818 964 b 879 821 808 886 876 907 b 875 774 879 804 878 789 l 872 758 l 379 758 l 382 774 b 393 821 383 789 388 804 b 492 939 417 904 485 889 b 424 972 494 964 474 972 l 236 972 b 160 939 183 972 163 964 b 222 821 151 886 221 907 b 219 774 222 804 221 789 l 217 758 l 160 758 b 129 728 139 758 129 747 l 129 715 b 160 683 129 696 139 683 l 207 683 l 140 199 b 128 151 138 183 133 168 b 29 33 104 69 36 83 b 97 0 26 8 47 0 l 285 0 b 363 33 338 0 358 8 b 299 151 369 86 300 65 b 301 199 299 168 300 183 l 331 411 b 592 479 340 479 340 479 b 825 411 835 479 835 479 l 796 199 b 785 151 794 183 790 168 b 685 33 761 69 692 83 b 754 0 682 8 703 0 l 940 0 b 1018 33 994 0 1015 8 b 954 151 1025 86 957 65 b 958 199 954 168 956 183 l 1025 683 l 1103 683 b 1133 715 1124 683 1133 696 l 1133 728 b 1103 758 1133 747 1124 758 l 1035 758 l 1038 774 b 1049 821 1039 789 1043 804 b 1149 939 1072 904 1142 889 b 1079 972 1151 964 1131 972 z m 854 622 b 604 554 844 554 844 554 b 361 622 351 554 351 554 l 369 683 l 863 683 z "},"I":{"ha":479,"x_min":0,"x_max":0,"o":"m 285 0 b 363 33 338 0 358 8 b 299 151 369 86 300 65 b 301 199 299 168 300 183 l 382 774 b 393 821 383 789 388 804 b 492 939 417 904 485 889 b 424 972 494 964 474 972 l 236 972 b 160 939 183 972 163 964 b 222 821 151 886 221 907 b 219 774 222 804 221 789 l 140 199 b 128 151 138 183 133 168 b 29 33 104 69 36 83 b 97 0 26 8 47 0 z "},"Í":{"ha":479,"x_min":0,"x_max":0,"o":"m 294 1056 b 515 1181 364 1044 506 1111 b 465 1257 522 1219 496 1251 b 349 1189 429 1264 396 1232 b 257 1082 307 1149 260 1101 b 294 1056 256 1068 272 1058 z m 285 0 b 363 33 338 0 358 8 b 299 151 369 86 300 65 b 301 199 299 168 300 183 l 382 774 b 393 821 383 789 388 804 b 492 939 417 904 485 889 b 424 972 494 964 474 972 l 236 972 b 160 939 183 972 163 964 b 222 821 151 886 221 907 b 219 774 222 804 221 789 l 140 199 b 128 151 138 183 133 168 b 29 33 104 69 36 83 b 97 0 26 8 47 0 z "},"Î":{"ha":479,"x_min":0,"x_max":0,"o":"m 175 1044 b 357 1110 213 1043 307 1079 b 521 1044 396 1079 481 1043 b 542 1064 536 1046 542 1054 b 478 1151 543 1079 514 1108 b 372 1231 421 1217 419 1231 b 244 1149 328 1231 314 1211 b 157 1064 194 1107 161 1079 b 175 1044 156 1054 158 1046 z m 285 0 b 363 33 338 0 358 8 b 299 151 369 86 300 65 b 301 199 299 168 300 183 l 382 774 b 393 821 383 789 388 804 b 492 939 417 904 485 889 b 424 972 494 964 474 972 l 236 972 b 160 939 183 972 163 964 b 222 821 151 886 221 907 b 219 774 222 804 221 789 l 140 199 b 128 151 138 183 133 168 b 29 33 104 69 36 83 b 97 0 26 8 47 0 z "},"Ï":{"ha":479,"x_min":0,"x_max":0,"o":"m 226 1071 b 322 1157 276 1071 322 1107 b 251 1226 322 1199 293 1226 b 161 1132 200 1226 161 1179 b 226 1071 161 1094 190 1071 z m 442 1071 b 538 1157 490 1071 538 1107 b 465 1226 538 1199 507 1226 b 375 1132 415 1226 375 1179 b 442 1071 375 1094 404 1071 z m 285 0 b 363 33 338 0 358 8 b 299 151 369 86 300 65 b 301 199 299 168 300 183 l 382 774 b 393 821 383 789 388 804 b 492 939 417 904 485 889 b 424 972 494 964 474 972 l 236 972 b 160 939 183 972 163 964 b 222 821 151 886 221 907 b 219 774 222 804 221 789 l 140 199 b 128 151 138 183 133 168 b 29 33 104 69 36 83 b 97 0 26 8 47 0 z "},"İ":{"ha":479,"x_min":0,"x_max":0,"o":"m 333 1056 b 468 1169 396 1053 465 1111 b 393 1249 469 1211 436 1247 b 260 1132 329 1254 261 1190 b 333 1056 257 1090 288 1057 z m 285 0 b 363 33 338 0 358 8 b 299 151 369 86 300 65 b 301 199 299 168 300 183 l 382 774 b 393 821 383 789 388 804 b 492 939 417 904 485 889 b 424 972 494 964 474 972 l 236 972 b 160 939 183 972 163 964 b 222 821 151 886 221 907 b 219 774 222 804 221 789 l 140 199 b 128 151 138 183 133 168 b 29 33 104 69 36 83 b 97 0 26 8 47 0 z "},"Ì":{"ha":479,"x_min":0,"x_max":0,"o":"m 392 1056 b 428 1082 413 1058 431 1068 b 338 1189 426 1101 379 1149 b 221 1257 290 1232 257 1264 b 171 1181 190 1251 164 1219 b 392 1056 181 1111 321 1044 z m 285 0 b 363 33 338 0 358 8 b 299 151 369 86 300 65 b 301 199 299 168 300 183 l 382 774 b 393 821 383 789 388 804 b 492 939 417 904 485 889 b 424 972 494 964 474 972 l 236 972 b 160 939 183 972 163 964 b 222 821 151 886 221 907 b 219 774 222 804 221 789 l 140 199 b 128 151 138 183 133 168 b 29 33 104 69 36 83 b 97 0 26 8 47 0 z "},"Ī":{"ha":479,"x_min":0,"x_max":0,"o":"m 476 1074 b 535 1117 525 1074 531 1082 b 488 1154 539 1144 535 1154 l 174 1154 b 119 1113 128 1154 124 1146 b 163 1074 115 1083 118 1074 z m 285 0 b 363 33 338 0 358 8 b 299 151 369 86 300 65 b 301 199 299 168 300 183 l 382 774 b 393 821 383 789 388 804 b 492 939 417 904 485 889 b 424 972 494 964 474 972 l 236 972 b 160 939 183 972 163 964 b 222 821 151 886 221 907 b 219 774 222 804 221 789 l 140 199 b 128 151 138 183 133 168 b 29 33 104 69 36 83 b 97 0 26 8 47 0 z "},"Į":{"ha":479,"x_min":0,"x_max":0,"o":"m 236 972 b 160 939 183 972 163 964 b 222 821 151 886 221 907 b 219 774 222 804 221 789 l 140 199 b 128 151 138 183 133 168 b 29 33 104 69 36 83 b 97 0 26 8 47 0 l 264 0 b 163 -144 200 -42 163 -89 b 299 -257 163 -215 222 -257 b 415 -214 340 -257 386 -243 b 393 -183 432 -196 424 -169 b 339 -196 376 -190 354 -196 b 264 -124 289 -196 264 -167 b 326 3 264 -89 281 -46 b 363 33 350 7 360 17 b 299 151 369 86 300 65 b 301 199 299 168 300 183 l 382 774 b 393 821 383 789 388 804 b 492 939 417 904 485 889 b 424 972 494 964 474 972 z "},"J":{"ha":753,"x_min":0,"x_max":0,"o":"m 250 -12 b 622 400 497 -12 588 147 l 672 774 b 685 821 675 789 679 804 b 783 939 707 904 776 889 b 715 972 786 964 765 972 l 528 972 b 450 939 474 972 453 964 b 514 821 443 886 511 907 b 510 774 514 804 513 789 l 450 344 b 279 71 426 175 372 71 b 176 225 200 71 178 135 b 106 303 175 268 156 303 b 17 218 63 303 25 274 b 250 -12 0 104 72 -12 z "},"K":{"ha":986,"x_min":0,"x_max":0,"o":"m 790 972 b 732 938 757 972 736 964 b 733 821 725 889 824 896 l 343 500 l 381 772 b 492 938 399 899 483 879 b 422 971 494 964 474 971 l 236 971 b 158 938 182 971 163 964 b 219 772 149 874 238 913 l 139 200 b 29 35 121 74 36 93 b 97 1 25 10 46 1 l 283 1 b 363 35 338 1 358 10 b 301 200 369 99 281 60 l 328 394 l 581 603 l 710 167 b 660 36 738 79 665 78 b 729 0 656 8 678 0 l 911 0 b 978 33 954 0 974 8 b 883 171 985 86 918 64 l 715 711 l 847 821 b 1018 939 957 911 1011 885 b 949 972 1022 964 999 972 z "},"L":{"ha":803,"x_min":0,"x_max":0,"o":"m 589 0 b 710 53 675 0 694 17 b 751 204 726 93 740 140 b 732 257 757 235 756 257 b 672 206 713 257 696 242 b 479 76 618 122 588 76 l 399 75 b 293 142 303 74 286 94 l 382 772 b 392 819 383 789 388 804 b 492 938 417 903 485 888 b 424 971 494 964 474 971 l 236 971 b 158 938 183 971 163 964 b 222 819 150 885 221 907 b 219 772 222 804 221 789 l 142 213 b 128 151 138 183 133 168 b 29 33 104 69 36 83 b 97 0 25 8 47 0 z "},"Ĺ":{"ha":803,"x_min":0,"x_max":0,"o":"m 300 1056 b 521 1181 369 1044 511 1111 b 471 1257 528 1219 501 1251 b 354 1189 435 1264 401 1232 b 263 1082 313 1149 265 1101 b 300 1056 261 1068 278 1058 z m 589 0 b 710 53 675 0 694 17 b 751 204 726 93 740 140 b 732 257 757 235 756 257 b 672 206 713 257 696 242 b 479 76 618 122 588 76 l 399 75 b 293 142 303 74 286 94 l 382 772 b 392 819 383 789 388 804 b 492 938 417 903 485 888 b 424 971 494 964 474 971 l 236 971 b 158 938 183 971 163 964 b 222 819 150 885 221 907 b 219 772 222 804 221 789 l 142 213 b 128 151 138 183 133 168 b 29 33 104 69 36 83 b 97 0 25 8 47 0 z "},"Ľ":{"ha":803,"x_min":0,"x_max":0,"o":"m 546 664 b 703 910 589 664 693 849 b 651 978 708 954 686 978 b 578 906 618 978 590 956 b 528 690 572 886 542 746 b 546 664 524 674 532 664 z m 589 0 b 710 53 675 0 694 17 b 751 204 726 93 740 140 b 732 257 757 235 756 257 b 672 206 713 257 696 242 b 479 76 618 122 588 76 l 399 75 b 293 142 303 74 286 94 l 382 772 b 392 819 383 789 388 804 b 492 938 417 903 485 888 b 424 971 494 964 474 971 l 236 971 b 158 938 183 971 163 964 b 222 819 150 885 221 907 b 219 772 222 804 221 789 l 142 213 b 128 151 138 183 133 168 b 29 33 104 69 36 83 b 97 0 25 8 47 0 z "},"Ł":{"ha":803,"x_min":0,"x_max":0,"o":"m 732 257 b 672 206 713 257 696 242 b 479 76 618 122 588 76 l 399 75 b 293 142 303 74 286 94 l 343 494 l 442 551 b 451 599 464 565 463 579 b 407 614 439 621 425 625 l 356 585 l 382 772 b 392 819 383 789 388 804 b 492 938 417 903 485 888 b 424 971 494 964 474 971 l 236 971 b 158 938 183 971 163 964 b 222 819 150 885 221 907 b 219 772 222 804 221 789 l 179 483 l 79 425 b 71 379 60 414 57 400 b 114 363 82 357 96 351 l 167 393 l 142 213 b 128 151 138 183 133 168 b 29 33 104 69 36 83 b 97 0 25 8 47 0 l 589 0 b 710 53 675 0 694 17 b 751 204 726 93 740 140 b 732 257 757 235 756 257 z "},"M":{"ha":1274,"x_min":0,"x_max":0,"o":"m 194 0 b 263 32 238 0 258 6 b 213 169 269 79 194 67 l 317 757 l 503 78 b 551 60 508 63 522 53 b 599 93 576 65 588 75 l 1004 765 l 938 190 b 838 35 924 74 844 93 b 904 0 832 8 854 0 l 1088 0 b 1160 35 1136 0 1156 8 b 1096 190 1168 97 1083 69 l 1161 803 b 1253 940 1172 906 1246 890 b 1197 972 1256 964 1240 972 l 1069 972 b 1019 942 1047 972 1032 963 l 619 275 l 433 942 b 390 972 426 963 413 972 l 254 972 b 190 940 211 972 193 964 b 243 803 183 893 261 899 l 129 169 b 28 33 110 67 33 79 b 86 0 24 7 43 0 z "},"N":{"ha":1053,"x_min":0,"x_max":0,"o":"m 161 0 b 229 32 204 0 225 6 b 174 169 235 79 160 67 l 253 757 l 761 126 b 789 38 786 96 793 69 b 817 0 785 8 797 0 l 838 0 b 872 40 857 0 868 11 l 979 803 b 1072 939 993 906 1067 894 b 1014 972 1076 965 1057 972 l 906 972 b 838 940 863 972 842 967 b 893 803 832 893 907 906 l 826 315 l 325 944 b 274 972 311 963 297 972 l 186 972 b 108 939 136 972 113 964 b 171 764 100 881 192 922 l 89 169 b -6 33 74 67 0 79 b 53 0 -10 7 10 0 z "},"Ń":{"ha":1053,"x_min":0,"x_max":0,"o":"m 558 1056 b 779 1181 628 1044 769 1111 b 729 1257 786 1219 760 1251 b 613 1189 693 1264 660 1232 b 521 1082 571 1149 524 1101 b 558 1056 519 1068 536 1058 z m 161 0 b 229 32 204 0 225 6 b 174 169 235 79 160 67 l 253 757 l 761 126 b 789 38 786 96 793 69 b 817 0 785 8 797 0 l 838 0 b 872 40 857 0 868 11 l 979 803 b 1072 939 993 906 1067 894 b 1014 972 1076 965 1057 972 l 906 972 b 838 940 863 972 842 967 b 893 803 832 893 907 906 l 826 315 l 325 944 b 274 972 311 963 297 972 l 186 972 b 108 939 136 972 113 964 b 171 764 100 881 192 922 l 89 169 b -6 33 74 67 0 79 b 53 0 -10 7 10 0 z "},"Ň":{"ha":1053,"x_min":0,"x_max":0,"o":"m 611 1047 b 739 1128 658 1047 663 1063 b 828 1214 786 1169 825 1199 b 810 1235 829 1225 826 1233 b 629 1168 772 1236 678 1200 b 465 1235 589 1200 504 1236 b 442 1214 449 1233 443 1225 b 504 1129 442 1200 468 1172 b 611 1047 558 1068 565 1047 z m 161 0 b 229 32 204 0 225 6 b 174 169 235 79 160 67 l 253 757 l 761 126 b 789 38 786 96 793 69 b 817 0 785 8 797 0 l 838 0 b 872 40 857 0 868 11 l 979 803 b 1072 939 993 906 1067 894 b 1014 972 1076 965 1057 972 l 906 972 b 838 940 863 972 842 967 b 893 803 832 893 907 906 l 826 315 l 325 944 b 274 972 311 963 297 972 l 186 972 b 108 939 136 972 113 964 b 171 764 100 881 192 922 l 89 169 b -6 33 74 67 0 79 b 53 0 -10 7 10 0 z "},"Ñ":{"ha":1053,"x_min":0,"x_max":0,"o":"m 711 1053 b 826 1143 779 1053 819 1094 b 788 1185 835 1200 792 1219 b 733 1144 783 1156 764 1144 b 510 1203 686 1144 594 1203 b 396 1113 442 1203 403 1160 b 436 1069 388 1056 431 1036 b 490 1111 439 1100 460 1111 b 711 1053 564 1111 643 1053 z m 161 0 b 229 32 204 0 225 6 b 174 169 235 79 160 67 l 253 757 l 761 126 b 789 38 786 96 793 69 b 817 0 785 8 797 0 l 838 0 b 872 40 857 0 868 11 l 979 803 b 1072 939 993 906 1067 894 b 1014 972 1076 965 1057 972 l 906 972 b 838 940 863 972 842 967 b 893 803 832 893 907 906 l 826 315 l 325 944 b 274 972 311 963 297 972 l 186 972 b 108 939 136 972 113 964 b 171 764 100 881 192 922 l 89 169 b -6 33 74 67 0 79 b 53 0 -10 7 10 0 z "},"O":{"ha":1078,"x_min":0,"x_max":0,"o":"m 492 -10 b 1051 569 815 -18 1051 246 b 635 983 1051 793 901 983 b 71 411 318 983 71 721 b 492 -10 71 161 261 -6 z m 539 78 b 244 425 357 78 244 215 b 607 901 244 668 390 901 b 875 554 779 901 875 760 b 539 78 875 319 757 78 z "},"Ó":{"ha":1078,"x_min":0,"x_max":0,"o":"m 597 1056 b 818 1181 667 1044 808 1111 b 768 1257 825 1219 799 1251 b 651 1189 732 1264 699 1232 b 560 1082 610 1149 563 1101 b 597 1056 558 1068 575 1058 z m 492 -10 b 1051 569 815 -18 1051 246 b 635 983 1051 793 901 983 b 71 411 318 983 71 721 b 492 -10 71 161 261 -6 z m 539 78 b 244 425 357 78 244 215 b 607 901 244 668 390 901 b 875 554 779 901 875 760 b 539 78 875 319 757 78 z "},"Ô":{"ha":1078,"x_min":0,"x_max":0,"o":"m 476 1044 b 658 1110 514 1043 608 1079 b 822 1044 697 1079 782 1043 b 843 1064 838 1046 843 1054 b 779 1151 844 1079 815 1108 b 674 1231 722 1217 721 1231 b 546 1149 629 1231 615 1211 b 458 1064 496 1107 463 1079 b 476 1044 457 1054 460 1046 z m 492 -10 b 1051 569 815 -18 1051 246 b 635 983 1051 793 901 983 b 71 411 318 983 71 721 b 492 -10 71 161 261 -6 z m 539 78 b 244 425 357 78 244 215 b 607 901 244 668 390 901 b 875 554 779 901 875 760 b 539 78 875 319 757 78 z "},"Ö":{"ha":1078,"x_min":0,"x_max":0,"o":"m 529 1071 b 625 1157 579 1071 625 1107 b 554 1226 625 1199 596 1226 b 464 1132 503 1226 464 1179 b 529 1071 464 1094 493 1071 z m 744 1071 b 840 1157 793 1071 840 1107 b 768 1226 840 1199 810 1226 b 678 1132 718 1226 678 1179 b 744 1071 678 1094 707 1071 z m 492 -10 b 1051 569 815 -18 1051 246 b 635 983 1051 793 901 983 b 71 411 318 983 71 721 b 492 -10 71 161 261 -6 z m 539 78 b 244 425 357 78 244 215 b 607 901 244 668 390 901 b 875 554 779 901 875 760 b 539 78 875 319 757 78 z "},"Ò":{"ha":1078,"x_min":0,"x_max":0,"o":"m 694 1056 b 731 1082 715 1058 733 1068 b 640 1189 729 1101 682 1149 b 524 1257 593 1232 560 1264 b 474 1181 493 1251 467 1219 b 694 1056 483 1111 624 1044 z m 492 -10 b 1051 569 815 -18 1051 246 b 635 983 1051 793 901 983 b 71 411 318 983 71 721 b 492 -10 71 161 261 -6 z m 539 78 b 244 425 357 78 244 215 b 607 901 244 668 390 901 b 875 554 779 901 875 760 b 539 78 875 319 757 78 z "},"Ő":{"ha":1078,"x_min":0,"x_max":0,"o":"m 449 1058 b 671 1189 522 1058 671 1124 b 606 1246 671 1217 640 1246 b 497 1183 575 1246 540 1218 b 399 1079 458 1151 399 1099 b 449 1058 399 1067 419 1058 z m 718 1056 b 946 1175 792 1053 942 1110 b 883 1235 947 1201 919 1233 b 772 1178 853 1236 818 1211 b 669 1079 732 1149 671 1099 b 718 1056 668 1067 688 1057 z m 492 -10 b 1051 569 815 -18 1051 246 b 635 983 1051 793 901 983 b 71 411 318 983 71 721 b 492 -10 71 161 261 -6 z m 539 78 b 244 425 357 78 244 215 b 607 901 244 668 390 901 b 875 554 779 901 875 760 b 539 78 875 319 757 78 z "},"Ō":{"ha":1078,"x_min":0,"x_max":0,"o":"m 779 1074 b 838 1117 828 1074 833 1082 b 790 1154 842 1144 838 1154 l 476 1154 b 422 1113 431 1154 426 1146 b 465 1074 418 1083 421 1074 z m 492 -10 b 1051 569 815 -18 1051 246 b 635 983 1051 793 901 983 b 71 411 318 983 71 721 b 492 -10 71 161 261 -6 z m 539 78 b 244 425 357 78 244 215 b 607 901 244 668 390 901 b 875 554 779 901 875 760 b 539 78 875 319 757 78 z "},"Ø":{"ha":1078,"x_min":0,"x_max":0,"o":"m 936 1050 b 924 1100 950 1074 947 1086 b 874 1089 900 1115 885 1110 l 797 956 b 635 983 749 974 694 983 b 71 411 318 983 71 721 b 274 50 71 247 153 119 l 207 -65 b 219 -115 196 -85 197 -100 b 269 -104 242 -129 256 -129 l 340 18 b 492 -10 388 1 439 -8 b 1051 569 815 -18 1051 246 b 864 925 1051 718 986 851 z m 244 425 b 607 901 244 668 390 901 b 743 864 660 901 706 888 l 336 158 b 244 425 278 219 244 311 z m 539 78 b 394 113 485 78 436 90 l 799 813 b 875 554 849 751 875 661 b 539 78 875 319 757 78 z "},"Õ":{"ha":1078,"x_min":0,"x_max":0,"o":"m 750 1053 b 865 1143 818 1053 858 1094 b 826 1185 874 1200 831 1219 b 772 1144 822 1156 803 1144 b 549 1203 725 1144 633 1203 b 435 1113 481 1203 442 1160 b 475 1069 426 1056 469 1036 b 529 1111 478 1100 499 1111 b 750 1053 603 1111 682 1053 z m 492 -10 b 1051 569 815 -18 1051 246 b 635 983 1051 793 901 983 b 71 411 318 983 71 721 b 492 -10 71 161 261 -6 z m 539 78 b 244 425 357 78 244 215 b 607 901 244 668 390 901 b 875 554 779 901 875 760 b 539 78 875 319 757 78 z "},"Œ":{"ha":1586,"x_min":0,"x_max":0,"o":"m 1588 782 b 1572 928 1588 843 1581 890 b 1471 974 1565 965 1551 974 l 992 972 b 946 933 968 972 949 957 l 936 867 b 635 983 865 939 764 983 b 71 411 318 983 71 721 b 492 -10 71 161 261 -6 b 828 97 621 -12 736 26 l 822 58 b 871 0 817 25 840 0 l 1351 0 b 1474 53 1439 0 1458 17 b 1518 213 1490 93 1504 140 b 1501 268 1524 243 1525 263 b 1435 214 1481 272 1463 261 b 1238 76 1379 122 1346 76 l 1138 75 b 1001 142 1011 74 996 94 l 1047 469 b 1179 538 1057 532 1093 538 b 1374 407 1325 536 1313 393 b 1400 476 1397 414 1404 425 l 1390 614 b 1357 657 1388 643 1378 657 b 1189 611 1313 657 1322 611 b 1078 679 1104 611 1069 617 l 1099 833 b 1250 897 1104 878 1128 897 l 1313 897 b 1506 765 1417 897 1468 853 b 1561 722 1522 729 1535 715 b 1588 782 1585 729 1589 750 z m 539 78 b 244 425 357 78 244 215 b 607 901 244 668 390 901 b 875 554 779 901 875 760 b 539 78 875 319 757 78 z "},"P":{"ha":913,"x_min":0,"x_max":0,"o":"m 285 1 b 363 35 339 1 360 10 b 301 179 371 92 290 67 b 313 275 304 210 308 243 b 344 303 317 301 319 303 l 435 303 b 903 619 714 303 874 414 b 490 972 931 819 788 972 l 235 972 b 157 939 183 972 161 964 b 218 760 147 878 242 928 l 140 200 b 29 35 119 60 38 93 b 99 1 26 10 47 1 z m 439 375 b 332 418 347 375 328 389 l 394 863 b 478 900 399 892 411 900 b 729 596 646 900 756 779 b 439 375 707 438 593 375 z "},"Þ":{"ha":883,"x_min":0,"x_max":0,"o":"m 285 1 b 363 35 338 1 358 10 b 299 153 369 88 296 67 b 338 229 300 200 304 229 l 425 229 b 854 494 686 229 829 314 b 486 801 882 686 742 803 l 385 800 b 472 944 401 910 465 900 b 414 972 474 965 457 972 l 244 972 b 178 944 199 972 181 964 b 222 794 172 903 238 903 l 140 200 b 128 153 138 185 133 169 b 29 35 104 71 36 85 b 97 1 26 10 47 1 z m 418 303 b 321 342 329 303 317 311 l 371 692 b 428 729 375 721 386 731 b 681 492 597 728 701 647 b 418 303 661 361 560 303 z "},"Q":{"ha":1078,"x_min":0,"x_max":0,"o":"m 986 -37 b 882 -75 956 -37 957 -75 b 494 -10 760 -75 619 -42 b 1051 569 817 -17 1051 247 b 635 983 1051 793 901 983 b 71 411 318 983 71 721 b 282 44 71 244 156 114 b 158 64 232 57 189 64 b 65 -8 93 64 65 28 b 90 -44 65 -26 75 -44 b 144 -22 106 -44 110 -22 b 406 -103 188 -22 288 -58 b 829 -226 551 -160 719 -226 b 1013 -86 964 -226 1013 -156 b 986 -37 1013 -53 999 -37 z m 607 901 b 875 554 779 901 875 760 b 539 78 875 319 757 78 b 244 425 357 78 244 215 b 607 901 244 668 390 901 z "},"R":{"ha":944,"x_min":0,"x_max":0,"o":"m 283 0 b 363 33 338 0 358 8 b 299 151 369 86 301 65 b 301 199 299 168 300 183 l 324 351 b 440 383 329 397 368 393 b 554 322 515 374 536 365 l 617 167 b 574 36 651 83 581 78 b 636 0 571 8 592 0 l 814 0 b 881 33 857 0 878 8 b 789 161 889 86 828 67 l 690 397 b 914 663 818 442 894 532 b 514 972 938 825 817 972 l 236 972 b 157 939 185 972 161 964 b 224 821 150 889 222 904 b 218 760 224 804 222 789 l 139 199 b 129 151 138 183 135 168 b 29 33 106 69 36 83 b 97 0 25 8 46 0 z m 508 451 b 347 519 447 454 339 467 l 396 863 b 499 900 400 892 415 900 b 742 644 674 899 761 783 b 508 451 724 522 638 443 z "},"Ŕ":{"ha":944,"x_min":0,"x_max":0,"o":"m 526 1056 b 747 1181 596 1044 738 1111 b 697 1257 754 1219 728 1251 b 581 1189 661 1264 628 1232 b 489 1082 539 1149 492 1101 b 526 1056 488 1068 504 1058 z m 283 0 b 363 33 338 0 358 8 b 299 151 369 86 301 65 b 301 199 299 168 300 183 l 324 351 b 440 383 329 397 368 393 b 554 322 515 374 536 365 l 617 167 b 574 36 651 83 581 78 b 636 0 571 8 592 0 l 814 0 b 881 33 857 0 878 8 b 789 161 889 86 828 67 l 690 397 b 914 663 818 442 894 532 b 514 972 938 825 817 972 l 236 972 b 157 939 185 972 161 964 b 224 821 150 889 222 904 b 218 760 224 804 222 789 l 139 199 b 129 151 138 183 135 168 b 29 33 106 69 36 83 b 97 0 25 8 46 0 z m 508 451 b 347 519 447 454 339 467 l 396 863 b 499 900 400 892 415 900 b 742 644 674 899 761 783 b 508 451 724 522 638 443 z "},"Ř":{"ha":944,"x_min":0,"x_max":0,"o":"m 579 1047 b 707 1128 626 1047 631 1063 b 796 1214 754 1169 793 1199 b 778 1235 797 1225 794 1233 b 597 1168 740 1236 646 1200 b 433 1235 557 1200 472 1236 b 410 1214 417 1233 411 1225 b 472 1129 410 1200 436 1172 b 579 1047 526 1068 533 1047 z m 283 0 b 363 33 338 0 358 8 b 299 151 369 86 301 65 b 301 199 299 168 300 183 l 324 351 b 440 383 329 397 368 393 b 554 322 515 374 536 365 l 617 167 b 574 36 651 83 581 78 b 636 0 571 8 592 0 l 814 0 b 881 33 857 0 878 8 b 789 161 889 86 828 67 l 690 397 b 914 663 818 442 894 532 b 514 972 938 825 817 972 l 236 972 b 157 939 185 972 161 964 b 224 821 150 889 222 904 b 218 760 224 804 222 789 l 139 199 b 129 151 138 183 135 168 b 29 33 106 69 36 83 b 97 0 25 8 46 0 z m 508 451 b 347 519 447 454 339 467 l 396 863 b 499 900 400 892 415 900 b 742 644 674 899 761 783 b 508 451 724 522 638 443 z "},"S":{"ha":831,"x_min":0,"x_max":0,"o":"m 364 -14 b 761 257 550 -14 740 76 b 500 567 779 418 643 490 b 300 786 372 636 286 688 b 475 908 311 863 381 908 b 689 746 590 908 654 815 b 742 694 707 711 722 694 b 778 749 768 694 778 717 b 771 911 779 814 775 865 b 731 983 767 969 757 983 b 663 967 706 983 696 967 b 506 983 626 967 575 983 b 139 740 301 983 157 881 b 379 425 114 574 244 499 b 585 203 489 368 604 310 b 390 65 571 126 508 64 b 139 263 231 65 167 178 b 89 315 124 300 111 315 b 56 261 65 315 57 293 b 56 63 51 179 54 118 b 96 -14 57 3 69 -14 b 168 8 121 -14 132 8 b 364 -14 207 8 260 -14 z "},"":{"ha":831,"x_min":0,"x_max":0,"o":"m 364 -14 b 761 257 550 -14 740 76 b 500 567 779 418 643 490 b 300 786 372 636 286 688 b 475 908 311 863 381 908 b 689 746 590 908 654 815 b 742 694 707 711 722 694 b 778 749 768 694 778 717 b 771 911 779 814 775 865 b 731 983 767 969 757 983 b 663 967 706 983 696 967 b 506 983 626 967 575 983 b 139 740 301 983 157 881 b 379 425 114 574 244 499 b 585 203 489 368 604 310 b 390 65 571 126 508 64 b 139 263 231 65 167 178 b 89 315 124 300 111 315 b 56 261 65 315 57 293 b 56 63 51 179 54 118 b 96 -14 57 3 69 -14 b 168 8 121 -14 132 8 b 364 -14 207 8 260 -14 z "},"Ś":{"ha":831,"x_min":0,"x_max":0,"o":"m 442 1064 b 663 1189 511 1053 653 1119 b 613 1265 669 1228 643 1260 b 496 1197 576 1272 543 1240 b 404 1090 454 1157 407 1110 b 442 1064 403 1076 419 1067 z m 364 -14 b 761 257 550 -14 740 76 b 500 567 779 418 643 490 b 300 786 372 636 286 688 b 475 908 311 863 381 908 b 689 746 590 908 654 815 b 742 694 707 711 722 694 b 778 749 768 694 778 717 b 771 911 779 814 775 865 b 731 983 767 969 757 983 b 663 967 706 983 696 967 b 506 983 626 967 575 983 b 139 740 301 983 157 881 b 379 425 114 574 244 499 b 585 203 489 368 604 310 b 390 65 571 126 508 64 b 139 263 231 65 167 178 b 89 315 124 300 111 315 b 56 261 65 315 57 293 b 56 63 51 179 54 118 b 96 -14 57 3 69 -14 b 168 8 121 -14 132 8 b 364 -14 207 8 260 -14 z "},"Š":{"ha":831,"x_min":0,"x_max":0,"o":"m 493 1056 b 621 1136 540 1056 544 1071 b 710 1222 668 1178 707 1207 b 692 1243 711 1233 708 1242 b 511 1176 654 1244 560 1208 b 347 1243 471 1208 386 1244 b 324 1222 331 1242 325 1233 b 386 1138 324 1208 350 1181 b 493 1056 440 1076 447 1056 z m 364 -14 b 761 257 550 -14 740 76 b 500 567 779 418 643 490 b 300 786 372 636 286 688 b 475 908 311 863 381 908 b 689 746 590 908 654 815 b 742 694 707 711 722 694 b 778 749 768 694 778 717 b 771 911 779 814 775 865 b 731 983 767 969 757 983 b 663 967 706 983 696 967 b 506 983 626 967 575 983 b 139 740 301 983 157 881 b 379 425 114 574 244 499 b 585 203 489 368 604 310 b 390 65 571 126 508 64 b 139 263 231 65 167 178 b 89 315 124 300 111 315 b 56 261 65 315 57 293 b 56 63 51 179 54 118 b 96 -14 57 3 69 -14 b 168 8 121 -14 132 8 b 364 -14 207 8 260 -14 z "},"Ş":{"ha":831,"x_min":0,"x_max":0,"o":"m 771 911 b 731 983 767 969 757 983 b 663 967 706 983 696 967 b 506 983 626 967 575 983 b 139 740 301 983 157 881 b 379 425 114 574 244 499 b 585 203 489 368 604 310 b 390 65 571 126 508 64 b 139 263 231 65 167 178 b 89 315 124 300 111 315 b 56 261 65 315 57 293 b 56 63 51 179 54 118 b 96 -14 57 3 69 -14 b 168 8 121 -14 132 8 b 321 -12 201 8 244 -8 l 278 -93 b 294 -118 269 -107 281 -115 b 386 -190 338 -128 386 -144 b 325 -246 386 -219 367 -246 b 257 -225 294 -246 275 -235 b 231 -250 233 -210 217 -232 b 346 -296 249 -272 286 -296 b 478 -182 418 -296 478 -250 b 349 -72 478 -115 418 -85 l 379 -14 b 761 257 560 -8 740 82 b 500 567 779 418 643 490 b 300 786 372 636 286 688 b 475 908 311 863 381 908 b 689 746 590 908 654 815 b 742 694 707 711 722 694 b 778 749 768 694 778 717 b 771 911 779 814 775 865 z "},"ẞ":{"ha":1661,"x_min":0,"x_max":0,"o":"m 364 -14 b 761 257 550 -14 740 76 b 500 567 779 418 643 490 b 300 786 372 636 286 688 b 475 908 311 863 381 908 b 689 746 590 908 654 815 b 742 694 707 711 722 694 b 778 749 768 694 778 717 b 771 911 779 814 775 865 b 731 983 767 969 757 983 b 663 967 706 983 696 967 b 506 983 626 967 575 983 b 139 740 301 983 157 881 b 379 425 114 574 244 499 b 585 203 489 368 604 310 b 390 65 571 126 508 64 b 139 263 231 65 167 178 b 89 315 124 300 111 315 b 56 261 65 315 57 293 b 56 63 51 179 54 118 b 96 -14 57 3 69 -14 b 168 8 121 -14 132 8 b 364 -14 207 8 260 -14 z m 1194 -14 b 1592 257 1381 -14 1571 76 b 1331 567 1610 418 1474 490 b 1131 786 1203 636 1117 688 b 1306 908 1142 863 1211 908 b 1519 746 1421 908 1485 815 b 1572 694 1538 711 1553 694 b 1608 749 1599 694 1608 717 b 1601 911 1610 814 1606 865 b 1561 983 1597 969 1588 983 b 1493 967 1536 983 1526 967 b 1336 983 1457 967 1406 983 b 969 740 1132 983 988 881 b 1210 425 944 574 1075 499 b 1415 203 1319 368 1435 310 b 1221 65 1401 126 1339 64 b 969 263 1061 65 997 178 b 919 315 954 300 942 315 b 886 261 896 315 888 293 b 886 63 882 179 885 118 b 926 -14 888 3 900 -14 b 999 8 951 -14 963 8 b 1194 -14 1038 8 1090 -14 z "},"T":{"ha":903,"x_min":0,"x_max":0,"o":"m 497 1 b 575 35 550 1 571 10 b 511 153 582 88 513 67 b 514 200 511 168 511 185 l 603 831 b 681 896 610 875 631 896 b 832 760 781 896 797 850 b 876 707 846 722 857 707 b 915 761 904 707 911 731 b 918 919 924 833 924 881 b 810 974 913 957 897 974 l 271 972 b 150 919 185 972 165 956 b 108 760 133 879 119 832 b 132 706 103 729 104 706 b 190 760 151 706 167 722 b 382 894 251 850 282 894 b 440 829 431 894 446 874 l 353 200 b 340 153 350 185 346 168 b 242 35 317 69 249 85 b 310 1 239 10 260 1 z "},"Ŧ":{"ha":903,"x_min":0,"x_max":0,"o":"m 918 919 b 810 974 913 957 897 974 l 271 972 b 150 919 185 972 165 956 b 108 760 133 879 119 832 b 132 706 103 729 104 706 b 190 760 151 706 167 722 b 382 894 251 850 282 894 b 440 829 431 894 446 874 l 397 522 l 311 522 b 268 489 282 522 271 510 b 300 447 264 461 267 447 l 388 447 l 353 200 b 340 153 350 185 346 168 b 242 35 317 69 249 85 b 310 1 239 10 260 1 l 497 1 b 575 35 550 1 571 10 b 511 153 582 88 513 67 b 514 200 511 168 511 185 l 549 447 l 638 447 b 682 489 669 447 678 460 b 649 522 685 510 678 522 l 560 522 l 603 831 b 681 896 610 875 631 896 b 832 760 781 896 797 850 b 876 707 846 722 857 707 b 915 761 904 707 911 731 b 918 919 924 833 924 881 z "},"Ť":{"ha":903,"x_min":0,"x_max":0,"o":"m 571 1047 b 699 1128 618 1047 622 1063 b 788 1214 746 1169 785 1199 b 769 1235 789 1225 786 1233 b 589 1168 732 1236 638 1200 b 425 1235 549 1200 464 1236 b 401 1214 408 1233 403 1225 b 464 1129 401 1200 428 1172 b 571 1047 518 1068 525 1047 z m 497 1 b 575 35 550 1 571 10 b 511 153 582 88 513 67 b 514 200 511 168 511 185 l 603 831 b 681 896 610 875 631 896 b 832 760 781 896 797 850 b 876 707 846 722 857 707 b 915 761 904 707 911 731 b 918 919 924 833 924 881 b 810 974 913 957 897 974 l 271 972 b 150 919 185 972 165 956 b 108 760 133 879 119 832 b 132 706 103 729 104 706 b 190 760 151 706 167 722 b 382 894 251 850 282 894 b 440 829 431 894 446 874 l 353 200 b 340 153 350 185 346 168 b 242 35 317 69 249 85 b 310 1 239 10 260 1 z "},"U":{"ha":1031,"x_min":0,"x_max":0,"o":"m 479 -14 b 918 415 736 -14 879 139 l 974 801 b 1067 939 988 906 1061 893 b 1008 972 1071 965 1051 972 l 900 972 b 832 939 857 972 836 965 b 888 801 826 892 901 906 l 832 389 b 529 78 806 206 697 78 b 314 375 367 78 286 182 l 369 771 b 379 819 372 788 375 803 b 479 938 404 901 472 888 b 411 971 483 963 463 971 l 224 971 b 146 938 171 971 150 963 b 210 819 139 885 208 906 b 207 771 210 803 210 788 l 156 404 b 479 -14 118 133 232 -14 z "},"Ú":{"ha":1031,"x_min":0,"x_max":0,"o":"m 636 1056 b 857 1181 706 1044 847 1111 b 807 1257 864 1219 838 1251 b 690 1189 771 1264 738 1232 b 599 1082 649 1149 601 1101 b 636 1056 597 1068 614 1058 z m 479 -14 b 918 415 736 -14 879 139 l 974 801 b 1067 939 988 906 1061 893 b 1008 972 1071 965 1051 972 l 900 972 b 832 939 857 972 836 965 b 888 801 826 892 901 906 l 832 389 b 529 78 806 206 697 78 b 314 375 367 78 286 182 l 369 771 b 379 819 372 788 375 803 b 479 938 404 901 472 888 b 411 971 483 963 463 971 l 224 971 b 146 938 171 971 150 963 b 210 819 139 885 208 906 b 207 771 210 803 210 788 l 156 404 b 479 -14 118 133 232 -14 z "},"Û":{"ha":1031,"x_min":0,"x_max":0,"o":"m 515 1044 b 697 1110 553 1043 647 1079 b 861 1044 736 1079 821 1043 b 882 1064 876 1046 882 1054 b 818 1151 883 1079 854 1108 b 713 1231 761 1217 760 1231 b 585 1149 668 1231 654 1211 b 497 1064 535 1107 501 1079 b 515 1044 496 1054 499 1046 z m 479 -14 b 918 415 736 -14 879 139 l 974 801 b 1067 939 988 906 1061 893 b 1008 972 1071 965 1051 972 l 900 972 b 832 939 857 972 836 965 b 888 801 826 892 901 906 l 832 389 b 529 78 806 206 697 78 b 314 375 367 78 286 182 l 369 771 b 379 819 372 788 375 803 b 479 938 404 901 472 888 b 411 971 483 963 463 971 l 224 971 b 146 938 171 971 150 963 b 210 819 139 885 208 906 b 207 771 210 803 210 788 l 156 404 b 479 -14 118 133 232 -14 z "},"Ü":{"ha":1031,"x_min":0,"x_max":0,"o":"m 568 1071 b 664 1157 618 1071 664 1107 b 593 1226 664 1199 635 1226 b 503 1132 542 1226 503 1179 b 568 1071 503 1094 532 1071 z m 783 1071 b 879 1157 832 1071 879 1107 b 807 1226 879 1199 849 1226 b 717 1132 757 1226 717 1179 b 783 1071 717 1094 746 1071 z m 479 -14 b 918 415 736 -14 879 139 l 974 801 b 1067 939 988 906 1061 893 b 1008 972 1071 965 1051 972 l 900 972 b 832 939 857 972 836 965 b 888 801 826 892 901 906 l 832 389 b 529 78 806 206 697 78 b 314 375 367 78 286 182 l 369 771 b 379 819 372 788 375 803 b 479 938 404 901 472 888 b 411 971 483 963 463 971 l 224 971 b 146 938 171 971 150 963 b 210 819 139 885 208 906 b 207 771 210 803 210 788 l 156 404 b 479 -14 118 133 232 -14 z "},"Ù":{"ha":1031,"x_min":0,"x_max":0,"o":"m 733 1056 b 769 1082 754 1058 772 1068 b 679 1189 768 1101 721 1149 b 563 1257 632 1232 599 1264 b 513 1181 532 1251 506 1219 b 733 1056 522 1111 663 1044 z m 479 -14 b 918 415 736 -14 879 139 l 974 801 b 1067 939 988 906 1061 893 b 1008 972 1071 965 1051 972 l 900 972 b 832 939 857 972 836 965 b 888 801 826 892 901 906 l 832 389 b 529 78 806 206 697 78 b 314 375 367 78 286 182 l 369 771 b 379 819 372 788 375 803 b 479 938 404 901 472 888 b 411 971 483 963 463 971 l 224 971 b 146 938 171 971 150 963 b 210 819 139 885 208 906 b 207 771 210 803 210 788 l 156 404 b 479 -14 118 133 232 -14 z "},"Ű":{"ha":1031,"x_min":0,"x_max":0,"o":"m 488 1058 b 710 1189 561 1058 710 1124 b 644 1246 710 1217 679 1246 b 536 1183 614 1246 579 1218 b 438 1079 497 1151 438 1099 b 488 1058 438 1067 458 1058 z m 757 1056 b 985 1175 831 1053 981 1110 b 922 1235 986 1201 958 1233 b 811 1178 892 1236 857 1211 b 708 1079 771 1149 710 1099 b 757 1056 707 1067 726 1057 z m 479 -14 b 918 415 736 -14 879 139 l 974 801 b 1067 939 988 906 1061 893 b 1008 972 1071 965 1051 972 l 900 972 b 832 939 857 972 836 965 b 888 801 826 892 901 906 l 832 389 b 529 78 806 206 697 78 b 314 375 367 78 286 182 l 369 771 b 379 819 372 788 375 803 b 479 938 404 901 472 888 b 411 971 483 963 463 971 l 224 971 b 146 938 171 971 150 963 b 210 819 139 885 208 906 b 207 771 210 803 210 788 l 156 404 b 479 -14 118 133 232 -14 z "},"Ū":{"ha":1031,"x_min":0,"x_max":0,"o":"m 818 1074 b 876 1117 867 1074 872 1082 b 829 1154 881 1144 876 1154 l 515 1154 b 461 1113 469 1154 465 1146 b 504 1074 457 1083 460 1074 z m 479 -14 b 918 415 736 -14 879 139 l 974 801 b 1067 939 988 906 1061 893 b 1008 972 1071 965 1051 972 l 900 972 b 832 939 857 972 836 965 b 888 801 826 892 901 906 l 832 389 b 529 78 806 206 697 78 b 314 375 367 78 286 182 l 369 771 b 379 819 372 788 375 803 b 479 938 404 901 472 888 b 411 971 483 963 463 971 l 224 971 b 146 938 171 971 150 963 b 210 819 139 885 208 906 b 207 771 210 803 210 788 l 156 404 b 479 -14 118 133 232 -14 z "},"Ų":{"ha":1031,"x_min":0,"x_max":0,"o":"m 900 972 b 832 939 857 972 836 965 b 888 801 826 892 901 906 l 832 389 b 529 78 806 206 697 78 b 314 375 367 78 286 182 l 369 771 b 379 819 372 788 375 803 b 479 938 404 901 472 888 b 411 971 483 963 463 971 l 224 971 b 146 938 171 971 150 963 b 210 819 139 885 208 906 b 207 771 210 803 210 788 l 156 404 b 479 -14 118 133 232 -14 b 533 -11 497 -14 515 -12 b 449 -144 481 -50 449 -94 b 585 -257 449 -215 508 -257 b 701 -214 626 -257 672 -243 b 679 -183 718 -196 710 -169 b 625 -196 663 -190 640 -196 b 550 -124 575 -196 550 -167 b 613 3 550 -89 567 -47 b 918 415 786 49 886 190 l 974 801 b 1067 939 988 906 1061 893 b 1008 972 1071 965 1051 972 z "},"Ů":{"ha":1031,"x_min":0,"x_max":0,"o":"m 681 1038 b 843 1174 760 1038 832 1090 b 724 1306 854 1254 801 1306 b 560 1169 643 1306 571 1251 b 681 1038 549 1090 601 1038 z m 696 1103 b 633 1171 657 1103 633 1131 b 710 1244 638 1214 667 1244 b 769 1176 747 1244 769 1215 b 696 1103 765 1136 738 1103 z m 479 -14 b 918 415 736 -14 879 139 l 974 801 b 1067 939 988 906 1061 893 b 1008 972 1071 965 1051 972 l 900 972 b 832 939 857 972 836 965 b 888 801 826 892 901 906 l 832 389 b 529 78 806 206 697 78 b 314 375 367 78 286 182 l 369 771 b 379 819 372 788 375 803 b 479 938 404 901 472 888 b 411 971 483 963 463 971 l 224 971 b 146 938 171 971 150 963 b 210 819 139 885 208 906 b 207 771 210 803 210 788 l 156 404 b 479 -14 118 133 232 -14 z "},"V":{"ha":1000,"x_min":0,"x_max":0,"o":"m 461 -4 b 529 38 510 3 518 14 l 936 801 b 1071 940 994 913 1064 892 b 1010 972 1074 965 1049 972 l 892 972 b 829 939 858 972 833 965 b 846 801 824 893 904 911 l 518 168 l 360 799 b 426 940 332 907 418 890 b 368 972 429 964 408 972 l 175 972 b 100 938 125 972 104 964 b 183 799 93 890 154 913 l 385 19 b 461 -4 392 -8 406 -12 z "},"W":{"ha":1483,"x_min":0,"x_max":0,"o":"m 421 -4 b 493 38 468 4 483 18 l 779 636 l 907 17 b 982 -4 911 -6 932 -12 b 1054 38 1029 4 1044 19 l 1422 801 b 1554 942 1475 914 1547 893 b 1493 972 1557 965 1532 972 l 1375 972 b 1313 939 1342 972 1317 967 b 1332 801 1307 893 1385 913 l 1038 178 l 921 799 b 985 940 901 904 978 893 b 929 972 988 965 965 972 l 738 972 b 667 939 693 972 671 967 b 747 800 661 893 725 910 l 756 753 l 476 175 l 356 800 b 418 940 335 904 411 893 b 363 972 421 965 399 972 l 171 972 b 100 939 126 972 104 967 b 182 800 94 893 158 910 l 347 17 b 421 -4 351 -6 374 -11 z "},"Ẃ":{"ha":1483,"x_min":0,"x_max":0,"o":"m 779 1056 b 1000 1181 849 1044 990 1111 b 950 1257 1007 1219 981 1251 b 833 1189 914 1264 881 1232 b 742 1082 792 1149 744 1101 b 779 1056 740 1068 757 1058 z m 421 -4 b 493 38 468 4 483 18 l 779 636 l 907 17 b 982 -4 911 -6 932 -12 b 1054 38 1029 4 1044 19 l 1422 801 b 1554 942 1475 914 1547 893 b 1493 972 1557 965 1532 972 l 1375 972 b 1313 939 1342 972 1317 967 b 1332 801 1307 893 1385 913 l 1038 178 l 921 799 b 985 940 901 904 978 893 b 929 972 988 965 965 972 l 738 972 b 667 939 693 972 671 967 b 747 800 661 893 725 910 l 756 753 l 476 175 l 356 800 b 418 940 335 904 411 893 b 363 972 421 965 399 972 l 171 972 b 100 939 126 972 104 967 b 182 800 94 893 158 910 l 347 17 b 421 -4 351 -6 374 -11 z "},"Ŵ":{"ha":1483,"x_min":0,"x_max":0,"o":"m 658 1044 b 840 1110 696 1043 790 1079 b 1004 1044 879 1079 964 1043 b 1025 1064 1019 1046 1025 1054 b 961 1151 1026 1079 997 1108 b 856 1231 904 1217 903 1231 b 728 1149 811 1231 797 1211 b 640 1064 678 1107 644 1079 b 658 1044 639 1054 642 1046 z m 421 -4 b 493 38 468 4 483 18 l 779 636 l 907 17 b 982 -4 911 -6 932 -12 b 1054 38 1029 4 1044 19 l 1422 801 b 1554 942 1475 914 1547 893 b 1493 972 1557 965 1532 972 l 1375 972 b 1313 939 1342 972 1317 967 b 1332 801 1307 893 1385 913 l 1038 178 l 921 799 b 985 940 901 904 978 893 b 929 972 988 965 965 972 l 738 972 b 667 939 693 972 671 967 b 747 800 661 893 725 910 l 756 753 l 476 175 l 356 800 b 418 940 335 904 411 893 b 363 972 421 965 399 972 l 171 972 b 100 939 126 972 104 967 b 182 800 94 893 158 910 l 347 17 b 421 -4 351 -6 374 -11 z "},"Ẅ":{"ha":1483,"x_min":0,"x_max":0,"o":"m 711 1071 b 807 1157 761 1071 807 1107 b 736 1226 807 1199 778 1226 b 646 1132 685 1226 646 1179 b 711 1071 646 1094 675 1071 z m 926 1071 b 1022 1157 975 1071 1022 1107 b 950 1226 1022 1199 992 1226 b 860 1132 900 1226 860 1179 b 926 1071 860 1094 889 1071 z m 421 -4 b 493 38 468 4 483 18 l 779 636 l 907 17 b 982 -4 911 -6 932 -12 b 1054 38 1029 4 1044 19 l 1422 801 b 1554 942 1475 914 1547 893 b 1493 972 1557 965 1532 972 l 1375 972 b 1313 939 1342 972 1317 967 b 1332 801 1307 893 1385 913 l 1038 178 l 921 799 b 985 940 901 904 978 893 b 929 972 988 965 965 972 l 738 972 b 667 939 693 972 671 967 b 747 800 661 893 725 910 l 756 753 l 476 175 l 356 800 b 418 940 335 904 411 893 b 363 972 421 965 399 972 l 171 972 b 100 939 126 972 104 967 b 182 800 94 893 158 910 l 347 17 b 421 -4 351 -6 374 -11 z "},"Ẁ":{"ha":1483,"x_min":0,"x_max":0,"o":"m 876 1056 b 913 1082 897 1058 915 1068 b 822 1189 911 1101 864 1149 b 706 1257 775 1232 742 1264 b 656 1181 675 1251 649 1219 b 876 1056 665 1111 806 1044 z m 421 -4 b 493 38 468 4 483 18 l 779 636 l 907 17 b 982 -4 911 -6 932 -12 b 1054 38 1029 4 1044 19 l 1422 801 b 1554 942 1475 914 1547 893 b 1493 972 1557 965 1532 972 l 1375 972 b 1313 939 1342 972 1317 967 b 1332 801 1307 893 1385 913 l 1038 178 l 921 799 b 985 940 901 904 978 893 b 929 972 988 965 965 972 l 738 972 b 667 939 693 972 671 967 b 747 800 661 893 725 910 l 756 753 l 476 175 l 356 800 b 418 940 335 904 411 893 b 363 972 421 965 399 972 l 171 972 b 100 939 126 972 104 967 b 182 800 94 893 158 910 l 347 17 b 421 -4 351 -6 374 -11 z "},"X":{"ha":1031,"x_min":0,"x_max":0,"o":"m 182 1 b 243 33 214 1 240 7 b 254 153 250 79 174 60 l 481 418 l 636 163 b 597 32 693 69 604 81 b 653 1 594 8 617 1 l 879 1 b 950 33 922 1 947 7 b 836 163 957 81 896 64 l 622 514 l 888 819 b 1049 942 969 914 1040 893 b 988 972 1050 965 1026 972 l 863 972 b 801 939 831 972 806 967 b 790 819 796 893 872 914 l 582 579 l 443 811 b 482 940 386 904 474 893 b 425 972 483 965 463 972 l 200 972 b 128 939 156 972 132 967 b 242 811 122 893 183 908 l 440 483 l 157 154 b -3 32 76 60 4 81 b 58 1 -6 7 19 1 z "},"Y":{"ha":946,"x_min":0,"x_max":0,"o":"m 819 972 b 758 939 788 972 763 965 b 754 814 751 893 828 913 l 532 519 l 382 808 b 424 940 331 906 417 893 b 368 972 428 965 404 972 l 143 972 b 71 939 99 972 75 967 b 182 810 64 893 128 910 l 388 431 l 357 199 b 344 151 354 183 350 168 b 246 33 322 69 253 83 b 314 0 242 8 264 0 l 501 0 b 579 33 556 0 575 8 b 515 151 586 86 518 65 b 519 199 515 168 517 183 l 551 431 l 849 815 b 1004 940 924 913 997 892 b 943 972 1008 965 982 972 z "},"Ý":{"ha":946,"x_min":0,"x_max":0,"o":"m 553 1056 b 774 1181 622 1044 764 1111 b 724 1257 781 1219 754 1251 b 607 1189 688 1264 654 1232 b 515 1082 565 1149 518 1101 b 553 1056 514 1068 531 1058 z m 819 972 b 758 939 788 972 763 965 b 754 814 751 893 828 913 l 532 519 l 382 808 b 424 940 331 906 417 893 b 368 972 428 965 404 972 l 143 972 b 71 939 99 972 75 967 b 182 810 64 893 128 910 l 388 431 l 357 199 b 344 151 354 183 350 168 b 246 33 322 69 253 83 b 314 0 242 8 264 0 l 501 0 b 579 33 556 0 575 8 b 515 151 586 86 518 65 b 519 199 515 168 517 183 l 551 431 l 849 815 b 1004 940 924 913 997 892 b 943 972 1008 965 982 972 z "},"Ŷ":{"ha":946,"x_min":0,"x_max":0,"o":"m 432 1044 b 614 1110 469 1043 564 1079 b 778 1044 653 1079 738 1043 b 799 1064 793 1046 799 1054 b 735 1151 800 1079 771 1108 b 629 1231 678 1217 676 1231 b 501 1149 585 1231 571 1211 b 414 1064 451 1107 418 1079 b 432 1044 413 1054 415 1046 z m 819 972 b 758 939 788 972 763 965 b 754 814 751 893 828 913 l 532 519 l 382 808 b 424 940 331 906 417 893 b 368 972 428 965 404 972 l 143 972 b 71 939 99 972 75 967 b 182 810 64 893 128 910 l 388 431 l 357 199 b 344 151 354 183 350 168 b 246 33 322 69 253 83 b 314 0 242 8 264 0 l 501 0 b 579 33 556 0 575 8 b 515 151 586 86 518 65 b 519 199 515 168 517 183 l 551 431 l 849 815 b 1004 940 924 913 997 892 b 943 972 1008 965 982 972 z "},"Ÿ":{"ha":946,"x_min":0,"x_max":0,"o":"m 485 1071 b 581 1157 535 1071 581 1107 b 510 1226 581 1199 551 1226 b 419 1132 458 1226 419 1179 b 485 1071 419 1094 449 1071 z m 700 1071 b 796 1157 749 1071 796 1107 b 724 1226 796 1199 765 1226 b 633 1132 674 1226 633 1179 b 700 1071 633 1094 663 1071 z m 819 972 b 758 939 788 972 763 965 b 754 814 751 893 828 913 l 532 519 l 382 808 b 424 940 331 906 417 893 b 368 972 428 965 404 972 l 143 972 b 71 939 99 972 75 967 b 182 810 64 893 128 910 l 388 431 l 357 199 b 344 151 354 183 350 168 b 246 33 322 69 253 83 b 314 0 242 8 264 0 l 501 0 b 579 33 556 0 575 8 b 515 151 586 86 518 65 b 519 199 515 168 517 183 l 551 431 l 849 815 b 1004 940 924 913 997 892 b 943 972 1008 965 982 972 z "},"Ỳ":{"ha":946,"x_min":0,"x_max":0,"o":"m 650 1056 b 686 1082 671 1058 689 1068 b 596 1189 685 1101 638 1149 b 479 1257 549 1232 515 1264 b 429 1181 449 1251 422 1219 b 650 1056 439 1111 579 1044 z m 819 972 b 758 939 788 972 763 965 b 754 814 751 893 828 913 l 532 519 l 382 808 b 424 940 331 906 417 893 b 368 972 428 965 404 972 l 143 972 b 71 939 99 972 75 967 b 182 810 64 893 128 910 l 388 431 l 357 199 b 344 151 354 183 350 168 b 246 33 322 69 253 83 b 314 0 242 8 264 0 l 501 0 b 579 33 556 0 575 8 b 515 151 586 86 518 65 b 519 199 515 168 517 183 l 551 431 l 849 815 b 1004 940 924 913 997 892 b 943 972 1008 965 982 972 z "},"Z":{"ha":871,"x_min":0,"x_max":0,"o":"m 644 0 b 760 53 729 0 746 15 b 804 211 776 93 794 150 b 789 267 811 244 813 267 b 729 213 771 267 751 251 b 529 76 675 128 631 76 l 231 75 l 900 917 b 878 972 925 949 917 972 l 303 972 b 186 919 218 972 200 957 b 142 761 169 879 153 822 b 158 706 136 728 135 706 b 218 760 176 706 196 721 b 418 897 272 844 315 897 l 697 897 l 26 57 b 47 0 1 25 10 0 z "},"Ź":{"ha":871,"x_min":0,"x_max":0,"o":"m 486 1056 b 707 1181 556 1044 697 1111 b 657 1257 714 1219 688 1251 b 540 1189 621 1264 588 1232 b 449 1082 499 1149 451 1101 b 486 1056 447 1068 464 1058 z m 644 0 b 760 53 729 0 746 15 b 804 211 776 93 794 150 b 789 267 811 244 813 267 b 729 213 771 267 751 251 b 529 76 675 128 631 76 l 231 75 l 900 917 b 878 972 925 949 917 972 l 303 972 b 186 919 218 972 200 957 b 142 761 169 879 153 822 b 158 706 136 728 135 706 b 218 760 176 706 196 721 b 418 897 272 844 315 897 l 697 897 l 26 57 b 47 0 1 25 10 0 z "},"Ž":{"ha":871,"x_min":0,"x_max":0,"o":"m 538 1047 b 665 1128 585 1047 589 1063 b 754 1214 713 1169 751 1199 b 736 1235 756 1225 753 1233 b 556 1168 699 1236 604 1200 b 392 1235 515 1200 431 1236 b 368 1214 375 1233 369 1225 b 431 1129 368 1200 394 1172 b 538 1047 485 1068 492 1047 z m 644 0 b 760 53 729 0 746 15 b 804 211 776 93 794 150 b 789 267 811 244 813 267 b 729 213 771 267 751 251 b 529 76 675 128 631 76 l 231 75 l 900 917 b 878 972 925 949 917 972 l 303 972 b 186 919 218 972 200 957 b 142 761 169 879 153 822 b 158 706 136 728 135 706 b 218 760 176 706 196 721 b 418 897 272 844 315 897 l 697 897 l 26 57 b 47 0 1 25 10 0 z "},"Ż":{"ha":871,"x_min":0,"x_max":0,"o":"m 558 1056 b 693 1169 621 1053 690 1111 b 618 1249 694 1211 661 1247 b 485 1132 554 1254 486 1190 b 558 1056 482 1090 513 1057 z m 644 0 b 760 53 729 0 746 15 b 804 211 776 93 794 150 b 789 267 811 244 813 267 b 729 213 771 267 751 251 b 529 76 675 128 631 76 l 231 75 l 900 917 b 878 972 925 949 917 972 l 303 972 b 186 919 218 972 200 957 b 142 761 169 879 153 822 b 158 706 136 728 135 706 b 218 760 176 706 196 721 b 418 897 272 844 315 897 l 697 897 l 26 57 b 47 0 1 25 10 0 z "},"Ģ":{"ha":1039,"x_min":0,"x_max":0,"o":"m 492 -14 b 914 186 706 -14 903 93 l 932 317 b 1004 467 949 443 997 415 b 954 500 1008 492 988 500 l 725 499 b 647 465 671 499 651 490 b 771 315 639 404 788 439 l 751 178 b 543 76 742 113 631 76 b 250 546 321 76 214 278 b 601 901 278 733 410 901 b 861 724 760 901 815 810 b 918 669 881 686 893 668 b 951 725 943 671 950 692 b 944 911 953 807 949 865 b 899 983 940 969 925 983 b 831 965 874 983 864 965 b 651 986 794 965 750 986 b 72 464 360 986 114 756 b 492 -14 33 188 194 -14 z m 447 -382 b 603 -161 497 -382 603 -282 b 519 -69 603 -106 568 -69 b 435 -158 481 -69 435 -101 b 485 -271 435 -217 485 -232 b 428 -368 485 -318 428 -344 b 447 -382 428 -376 436 -382 z "},"Ķ":{"ha":986,"x_min":0,"x_max":0,"o":"m 790 972 b 732 938 757 972 736 964 b 733 821 725 889 824 896 l 343 500 l 381 772 b 492 938 399 899 483 879 b 422 971 494 964 474 971 l 236 971 b 158 938 182 971 163 964 b 219 772 149 874 238 913 l 139 200 b 29 35 121 74 36 93 b 97 1 25 10 46 1 l 283 1 b 363 35 338 1 358 10 b 301 200 369 99 281 60 l 328 394 l 581 603 l 710 167 b 660 36 738 79 665 78 b 729 0 656 8 678 0 l 911 0 b 978 33 954 0 974 8 b 883 171 985 86 918 64 l 715 711 l 847 821 b 1018 939 957 911 1011 885 b 949 972 1022 964 999 972 z m 510 -69 b 425 -158 471 -69 425 -101 b 475 -271 425 -217 475 -232 b 418 -368 475 -318 418 -344 b 438 -382 418 -376 426 -382 b 593 -161 488 -382 593 -282 b 510 -69 593 -106 558 -69 z "},"Ļ":{"ha":803,"x_min":0,"x_max":0,"o":"m 589 0 b 710 53 675 0 694 17 b 751 204 726 93 740 140 b 732 257 757 235 756 257 b 672 206 713 257 696 242 b 479 76 618 122 588 76 l 399 75 b 293 142 303 74 286 94 l 382 772 b 392 819 383 789 388 804 b 492 938 417 903 485 888 b 424 971 494 964 474 971 l 236 971 b 158 938 183 971 163 964 b 222 819 150 885 221 907 b 219 772 222 804 221 789 l 142 213 b 128 151 138 183 133 168 b 29 33 104 69 36 83 b 97 0 25 8 47 0 z m 333 -382 b 489 -161 383 -382 489 -282 b 406 -69 489 -106 454 -69 b 321 -158 367 -69 321 -101 b 371 -271 321 -217 371 -232 b 314 -368 371 -318 314 -344 b 333 -382 314 -376 322 -382 z "},"Ņ":{"ha":1053,"x_min":0,"x_max":0,"o":"m 161 0 b 229 32 204 0 225 6 b 174 169 235 79 160 67 l 253 757 l 761 126 b 789 38 786 96 793 69 b 817 0 785 8 797 0 l 838 0 b 872 40 857 0 868 11 l 979 803 b 1072 939 993 906 1067 894 b 1014 972 1076 965 1057 972 l 906 972 b 838 940 863 972 842 967 b 893 803 832 893 907 906 l 826 315 l 325 944 b 274 972 311 963 297 972 l 186 972 b 108 939 136 972 113 964 b 171 764 100 881 192 922 l 89 169 b -6 33 74 67 0 79 b 53 0 -10 7 10 0 z m 400 -382 b 556 -161 450 -382 556 -282 b 472 -69 556 -106 521 -69 b 388 -158 433 -69 388 -101 b 438 -271 388 -217 438 -232 b 381 -368 438 -318 381 -344 b 400 -382 381 -376 389 -382 z "},"Ŗ":{"ha":944,"x_min":0,"x_max":0,"o":"m 283 0 b 363 33 338 0 358 8 b 299 151 369 86 301 65 b 301 199 299 168 300 183 l 324 351 b 440 383 329 397 368 393 b 554 322 515 374 536 365 l 617 167 b 574 36 651 83 581 78 b 636 0 571 8 592 0 l 814 0 b 881 33 857 0 878 8 b 789 161 889 86 828 67 l 690 397 b 914 663 818 442 894 532 b 514 972 938 825 817 972 l 236 972 b 157 939 185 972 161 964 b 224 821 150 889 222 904 b 218 760 224 804 222 789 l 139 199 b 129 151 138 183 135 168 b 29 33 106 69 36 83 b 97 0 25 8 46 0 z m 508 451 b 347 519 447 454 339 467 l 396 863 b 499 900 400 892 415 900 b 742 644 674 899 761 783 b 508 451 724 522 638 443 z m 367 -382 b 522 -161 417 -382 522 -282 b 439 -69 522 -106 488 -69 b 354 -158 400 -69 354 -101 b 404 -271 354 -217 404 -232 b 347 -368 404 -318 347 -344 b 367 -382 347 -376 356 -382 z "},"Ţ":{"ha":903,"x_min":0,"x_max":0,"o":"m 497 1 b 575 35 550 1 571 10 b 511 153 582 88 513 67 b 514 200 511 168 511 185 l 603 831 b 681 896 610 875 631 896 b 832 760 781 896 797 850 b 876 707 846 722 857 707 b 915 761 904 707 911 731 b 918 919 924 833 924 881 b 810 974 913 957 897 974 l 271 972 b 150 919 185 972 165 956 b 108 760 133 879 119 832 b 132 706 103 729 104 706 b 190 760 151 706 167 722 b 382 894 251 850 282 894 b 440 829 431 894 446 874 l 353 200 b 340 153 350 185 346 168 b 242 35 317 69 249 85 b 310 1 239 10 260 1 z m 408 -296 b 540 -182 481 -296 540 -250 b 411 -72 540 -115 481 -85 l 449 0 l 390 0 l 340 -93 b 357 -118 332 -107 343 -115 b 449 -190 400 -128 449 -144 b 388 -246 449 -219 429 -246 b 319 -225 357 -246 338 -235 b 293 -250 296 -210 279 -232 b 408 -296 311 -272 349 -296 z "},"Ș":{"ha":831,"x_min":0,"x_max":0,"o":"m 364 -14 b 761 257 550 -14 740 76 b 500 567 779 418 643 490 b 300 786 372 636 286 688 b 475 908 311 863 381 908 b 689 746 590 908 654 815 b 742 694 707 711 722 694 b 778 749 768 694 778 717 b 771 911 779 814 775 865 b 731 983 767 969 757 983 b 663 967 706 983 696 967 b 506 983 626 967 575 983 b 139 740 301 983 157 881 b 379 425 114 574 244 499 b 585 203 489 368 604 310 b 390 65 571 126 508 64 b 139 263 231 65 167 178 b 89 315 124 300 111 315 b 56 261 65 315 57 293 b 56 63 51 179 54 118 b 96 -14 57 3 69 -14 b 168 8 121 -14 132 8 b 364 -14 207 8 260 -14 z m 261 -382 b 417 -161 311 -382 417 -282 b 333 -69 417 -106 382 -69 b 249 -158 294 -69 249 -101 b 299 -271 249 -217 299 -232 b 242 -368 299 -318 242 -344 b 261 -382 242 -376 250 -382 z "},"Ț":{"ha":903,"x_min":0,"x_max":0,"o":"m 497 1 b 575 35 550 1 571 10 b 511 153 582 88 513 67 b 514 200 511 168 511 185 l 603 831 b 681 896 610 875 631 896 b 832 760 781 896 797 850 b 876 707 846 722 857 707 b 915 761 904 707 911 731 b 918 919 924 833 924 881 b 810 974 913 957 897 974 l 271 972 b 150 919 185 972 165 956 b 108 760 133 879 119 832 b 132 706 103 729 104 706 b 190 760 151 706 167 722 b 382 894 251 850 282 894 b 440 829 431 894 446 874 l 353 200 b 340 153 350 185 346 168 b 242 35 317 69 249 85 b 310 1 239 10 260 1 z m 350 -382 b 506 -161 400 -382 506 -282 b 422 -69 506 -106 471 -69 b 338 -158 383 -69 338 -101 b 388 -271 338 -217 388 -232 b 331 -368 388 -318 331 -344 b 350 -382 331 -376 339 -382 z "},"a":{"ha":856,"x_min":0,"x_max":0,"o":"m 776 139 b 715 100 757 139 740 100 b 690 157 692 100 688 121 l 721 625 b 686 681 724 660 715 681 b 575 651 654 681 615 651 b 417 679 540 651 486 679 b 47 235 214 679 47 474 b 276 -14 47 76 150 -14 b 529 133 379 -14 472 47 b 640 -11 525 15 576 -11 b 793 115 728 -11 789 61 b 776 139 794 132 785 139 z m 343 94 b 213 283 278 94 213 142 b 417 608 214 419 285 608 b 556 447 494 608 563 553 l 553 406 b 343 94 542 242 450 94 z "},"á":{"ha":856,"x_min":0,"x_max":0,"o":"m 446 764 b 688 865 510 740 664 800 b 631 956 704 911 679 956 b 526 896 600 956 567 929 b 429 792 476 851 436 810 b 446 764 425 781 428 769 z m 776 139 b 715 100 757 139 740 100 b 690 157 692 100 688 121 l 721 625 b 686 681 724 660 715 681 b 575 651 654 681 615 651 b 417 679 540 651 486 679 b 47 235 214 679 47 474 b 276 -14 47 76 150 -14 b 529 133 379 -14 472 47 b 640 -11 525 15 576 -11 b 793 115 728 -11 789 61 b 776 139 794 132 785 139 z m 343 94 b 213 283 278 94 213 142 b 417 608 214 419 285 608 b 556 447 494 608 563 553 l 553 406 b 343 94 542 242 450 94 z "},"ă":{"ha":856,"x_min":0,"x_max":0,"o":"m 504 744 b 711 911 614 744 696 819 b 696 947 715 933 710 947 b 671 931 688 947 683 943 b 521 856 628 881 585 856 b 392 931 457 856 419 882 b 369 947 385 943 378 947 b 344 911 356 947 346 933 b 504 744 335 822 389 744 z m 776 139 b 715 100 757 139 740 100 b 690 157 692 100 688 121 l 721 625 b 686 681 724 660 715 681 b 575 651 654 681 615 651 b 417 679 540 651 486 679 b 47 235 214 679 47 474 b 276 -14 47 76 150 -14 b 529 133 379 -14 472 47 b 640 -11 525 15 576 -11 b 793 115 728 -11 789 61 b 776 139 794 132 785 139 z m 343 94 b 213 283 278 94 213 142 b 417 608 214 419 285 608 b 556 447 494 608 563 553 l 553 406 b 343 94 542 242 450 94 z "},"â":{"ha":856,"x_min":0,"x_max":0,"o":"m 368 747 b 533 843 406 746 482 797 b 674 747 572 797 633 746 b 696 768 689 749 694 757 b 643 876 697 783 669 828 b 550 957 606 943 604 957 b 428 871 503 957 488 939 b 350 768 388 825 353 783 b 368 747 349 757 351 749 z m 776 139 b 715 100 757 139 740 100 b 690 157 692 100 688 121 l 721 625 b 686 681 724 660 715 681 b 575 651 654 681 615 651 b 417 679 540 651 486 679 b 47 235 214 679 47 474 b 276 -14 47 76 150 -14 b 529 133 379 -14 472 47 b 640 -11 525 15 576 -11 b 793 115 728 -11 789 61 b 776 139 794 132 785 139 z m 343 94 b 213 283 278 94 213 142 b 417 608 214 419 285 608 b 556 447 494 608 563 553 l 553 406 b 343 94 542 242 450 94 z "},"ä":{"ha":856,"x_min":0,"x_max":0,"o":"m 383 779 b 479 867 432 779 479 817 b 407 936 479 908 450 936 b 317 842 357 936 317 889 b 383 779 317 804 346 779 z m 599 779 b 693 867 647 779 693 817 b 622 936 693 908 664 936 b 532 842 571 936 532 889 b 599 779 532 804 561 779 z m 776 139 b 715 100 757 139 740 100 b 690 157 692 100 688 121 l 721 625 b 686 681 724 660 715 681 b 575 651 654 681 615 651 b 417 679 540 651 486 679 b 47 235 214 679 47 474 b 276 -14 47 76 150 -14 b 529 133 379 -14 472 47 b 640 -11 525 15 576 -11 b 793 115 728 -11 789 61 b 776 139 794 132 785 139 z m 343 94 b 213 283 278 94 213 142 b 417 608 214 419 285 608 b 556 447 494 608 563 553 l 553 406 b 343 94 542 242 450 94 z "},"à":{"ha":856,"x_min":0,"x_max":0,"o":"m 618 764 b 635 792 636 769 639 781 b 539 896 628 810 588 851 b 415 953 489 936 451 965 b 376 865 382 940 361 907 b 618 764 400 800 554 740 z m 776 139 b 715 100 757 139 740 100 b 690 157 692 100 688 121 l 721 625 b 686 681 724 660 715 681 b 575 651 654 681 615 651 b 417 679 540 651 486 679 b 47 235 214 679 47 474 b 276 -14 47 76 150 -14 b 529 133 379 -14 472 47 b 640 -11 525 15 576 -11 b 793 115 728 -11 789 61 b 776 139 794 132 785 139 z m 343 94 b 213 283 278 94 213 142 b 417 608 214 419 285 608 b 556 447 494 608 563 553 l 553 406 b 343 94 542 242 450 94 z "},"ā":{"ha":856,"x_min":0,"x_max":0,"o":"m 658 768 b 721 811 707 768 713 776 b 681 849 729 839 726 849 l 365 849 b 306 807 321 849 315 840 b 343 768 297 778 300 768 z m 776 139 b 715 100 757 139 740 100 b 690 157 692 100 688 121 l 721 625 b 686 681 724 660 715 681 b 575 651 654 681 615 651 b 417 679 540 651 486 679 b 47 235 214 679 47 474 b 276 -14 47 76 150 -14 b 529 133 379 -14 472 47 b 640 -11 525 15 576 -11 b 793 115 728 -11 789 61 b 776 139 794 132 785 139 z m 343 94 b 213 283 278 94 213 142 b 417 608 214 419 285 608 b 556 447 494 608 563 553 l 553 406 b 343 94 542 242 450 94 z "},"ą":{"ha":856,"x_min":0,"x_max":0,"o":"m 767 -179 b 713 -192 750 -186 728 -192 b 638 -119 663 -192 638 -162 b 692 -3 638 -86 653 -47 b 793 115 751 18 790 72 b 776 139 794 132 785 139 b 715 100 757 139 740 100 b 690 157 692 100 688 121 l 721 625 b 686 681 724 660 715 681 b 575 651 654 681 615 651 b 417 679 540 651 486 679 b 47 235 214 679 47 474 b 276 -14 47 76 150 -14 b 529 133 379 -14 472 47 b 617 -10 525 31 564 -3 b 536 -140 567 -49 536 -92 b 672 -253 536 -211 596 -253 b 789 -210 714 -253 760 -239 b 767 -179 806 -192 797 -165 z m 343 94 b 213 283 278 94 213 142 b 417 608 214 419 285 608 b 556 447 494 608 563 553 l 553 406 b 343 94 542 242 450 94 z "},"å":{"ha":856,"x_min":0,"x_max":0,"o":"m 506 732 b 668 868 585 732 657 785 b 549 1000 679 949 626 1000 b 385 864 468 1000 396 946 b 506 732 374 785 426 732 z m 535 939 b 594 871 572 939 594 910 b 521 797 590 831 563 797 b 458 865 482 797 458 825 b 535 939 463 908 492 939 z m 776 139 b 715 100 757 139 740 100 b 690 157 692 100 688 121 l 721 625 b 686 681 724 660 715 681 b 575 651 654 681 615 651 b 417 679 540 651 486 679 b 47 235 214 679 47 474 b 276 -14 47 76 150 -14 b 529 133 379 -14 472 47 b 640 -11 525 15 576 -11 b 793 115 728 -11 789 61 b 776 139 794 132 785 139 z m 343 94 b 213 283 278 94 213 142 b 417 608 214 419 285 608 b 556 447 494 608 563 553 l 553 406 b 343 94 542 242 450 94 z "},"ã":{"ha":856,"x_min":0,"x_max":0,"o":"m 360 764 b 414 806 363 794 383 806 b 635 747 488 806 567 747 b 750 838 703 747 743 789 b 711 879 758 894 715 914 b 657 839 707 850 688 839 b 433 897 610 839 518 897 b 319 807 365 897 326 854 b 360 764 311 750 354 731 z m 776 139 b 715 100 757 139 740 100 b 690 157 692 100 688 121 l 721 625 b 686 681 724 660 715 681 b 575 651 654 681 615 651 b 417 679 540 651 486 679 b 47 235 214 679 47 474 b 276 -14 47 76 150 -14 b 529 133 379 -14 472 47 b 640 -11 525 15 576 -11 b 793 115 728 -11 789 61 b 776 139 794 132 785 139 z m 343 94 b 213 283 278 94 213 142 b 417 608 214 419 285 608 b 556 447 494 608 563 553 l 553 406 b 343 94 542 242 450 94 z "},"æ":{"ha":1225,"x_min":0,"x_max":0,"o":"m 1101 192 b 886 99 1046 143 976 99 b 714 225 803 99 739 151 b 1165 522 936 256 1165 342 b 960 681 1165 625 1072 681 b 685 575 849 681 754 639 b 433 681 613 654 511 681 b 49 247 222 681 49 465 b 278 -14 49 85 151 -14 b 551 188 390 -14 493 61 b 824 -14 582 54 692 -14 b 1139 161 983 -14 1101 89 b 1101 192 1158 200 1131 217 z m 911 607 b 1022 500 979 607 1022 561 b 739 301 1022 385 881 322 b 700 331 708 296 700 311 b 911 607 700 481 794 607 z m 347 92 b 210 293 278 92 210 150 b 431 606 211 424 282 606 b 568 529 507 606 571 553 l 551 406 b 347 92 528 229 454 92 z "},"b":{"ha":804,"x_min":0,"x_max":0,"o":"m 529 678 b 278 554 428 678 340 626 l 346 949 b 317 986 350 974 339 986 b 201 958 292 986 253 978 b 114 896 125 931 114 913 b 164 790 114 854 178 874 l 88 328 b 329 -17 64 189 97 -8 b 758 440 565 -22 758 188 b 529 678 758 567 672 678 z m 365 61 b 242 258 290 61 229 126 b 454 579 258 454 353 579 b 581 429 538 579 576 513 b 365 61 588 249 499 61 z "},"":{"ha":804,"x_min":0,"x_max":0,"o":"m 529 678 b 278 554 428 678 340 626 l 346 949 b 317 986 350 974 339 986 b 201 958 292 986 253 978 b 114 896 125 931 114 913 b 164 790 114 854 178 874 l 88 328 b 329 -17 64 189 97 -8 b 758 440 565 -22 758 188 b 529 678 758 567 672 678 z m 365 61 b 242 258 290 61 229 126 b 454 579 258 454 353 579 b 581 429 538 579 576 513 b 365 61 588 249 499 61 z "},"c":{"ha":747,"x_min":0,"x_max":0,"o":"m 351 -14 b 668 156 513 -14 631 82 b 631 186 686 193 661 211 b 422 104 575 138 510 104 b 214 328 290 104 214 196 b 408 603 214 465 290 603 b 526 436 511 603 532 515 b 592 356 524 389 546 358 b 690 458 643 353 685 396 b 443 681 701 563 614 681 b 51 275 229 681 51 497 b 351 -14 51 113 164 -14 z "},"ć":{"ha":747,"x_min":0,"x_max":0,"o":"m 365 764 b 607 865 429 740 583 800 b 550 956 624 911 599 956 b 446 896 519 956 486 929 b 349 792 396 851 356 810 b 365 764 344 781 347 769 z m 351 -14 b 668 156 513 -14 631 82 b 631 186 686 193 661 211 b 422 104 575 138 510 104 b 214 328 290 104 214 196 b 408 603 214 465 290 603 b 526 436 511 603 532 515 b 592 356 524 389 546 358 b 690 458 643 353 685 396 b 443 681 701 563 614 681 b 51 275 229 681 51 497 b 351 -14 51 113 164 -14 z "},"č":{"ha":747,"x_min":0,"x_max":0,"o":"m 435 769 b 551 850 489 769 494 783 b 633 958 590 899 631 943 b 617 979 636 969 633 978 b 450 883 578 981 501 929 b 311 979 411 929 350 981 b 288 958 296 978 290 969 b 338 856 288 943 310 901 b 435 769 378 788 388 769 z m 351 -14 b 668 156 513 -14 631 82 b 631 186 686 193 661 211 b 422 104 575 138 510 104 b 214 328 290 104 214 196 b 408 603 214 465 290 603 b 526 436 511 603 532 515 b 592 356 524 389 546 358 b 690 458 643 353 685 396 b 443 681 701 563 614 681 b 51 275 229 681 51 497 b 351 -14 51 113 164 -14 z "},"ç":{"ha":747,"x_min":0,"x_max":0,"o":"m 592 356 b 690 458 643 353 685 396 b 443 681 701 563 614 681 b 51 275 229 681 51 497 b 299 -10 51 128 143 11 l 254 -93 b 271 -118 246 -107 257 -115 b 363 -190 314 -128 363 -144 b 301 -246 363 -219 343 -246 b 233 -225 271 -246 251 -235 b 207 -250 210 -210 193 -232 b 322 -296 225 -272 263 -296 b 454 -182 394 -296 454 -250 b 325 -72 454 -115 394 -85 l 356 -14 b 668 156 514 -12 631 82 b 631 186 686 193 661 211 b 422 104 575 138 510 104 b 214 328 290 104 214 196 b 408 603 214 465 290 603 b 526 436 511 603 532 515 b 592 356 524 389 546 358 z "},"ċ":{"ha":747,"x_min":0,"x_max":0,"o":"m 424 761 b 558 875 486 758 556 817 b 483 954 560 917 526 953 b 350 838 419 960 351 896 b 424 761 347 796 378 763 z m 351 -14 b 668 156 513 -14 631 82 b 631 186 686 193 661 211 b 422 104 575 138 510 104 b 214 328 290 104 214 196 b 408 603 214 465 290 603 b 526 436 511 603 532 515 b 592 356 524 389 546 358 b 690 458 643 353 685 396 b 443 681 701 563 614 681 b 51 275 229 681 51 497 b 351 -14 51 113 164 -14 z "},"d":{"ha":840,"x_min":0,"x_max":0,"o":"m 790 949 b 760 986 793 974 782 986 b 643 958 735 986 696 978 b 557 896 567 931 557 913 b 607 793 557 860 618 872 l 585 640 b 442 681 540 665 493 681 b 47 239 236 681 47 485 b 282 -14 47 90 131 -14 b 511 113 382 -14 458 42 b 619 -11 507 17 556 -11 b 778 115 713 -11 774 61 b 760 139 779 132 769 139 b 697 100 742 139 724 100 b 675 157 675 100 669 121 z m 340 96 b 211 268 253 96 213 167 b 422 604 208 426 290 604 b 550 397 507 604 568 540 b 340 96 529 219 439 96 z "},"ď":{"ha":840,"x_min":0,"x_max":0,"o":"m 282 -14 b 511 113 382 -14 458 42 b 619 -11 507 17 556 -11 b 778 115 713 -11 774 61 b 760 139 779 132 769 139 b 697 100 742 139 724 100 b 675 157 675 100 669 121 l 790 949 b 760 986 793 974 782 986 b 643 958 735 986 696 978 b 557 896 567 931 557 913 b 607 793 557 860 618 872 l 585 640 b 442 681 540 665 493 681 b 47 239 236 681 47 485 b 282 -14 47 90 131 -14 z m 860 664 b 1017 910 903 664 1007 849 b 965 978 1022 954 1000 978 b 892 906 932 978 904 956 b 842 690 886 886 856 746 b 860 664 838 674 846 664 z m 340 96 b 211 268 253 96 213 167 b 422 604 208 426 290 604 b 550 397 507 604 568 540 b 340 96 529 219 439 96 z "},"đ":{"ha":840,"x_min":0,"x_max":0,"o":"m 760 986 b 643 958 735 986 696 978 b 557 896 567 931 557 913 b 607 793 557 860 618 872 l 604 774 l 468 774 b 438 740 447 774 438 763 b 468 707 438 718 447 707 l 594 707 l 585 640 b 442 681 540 665 493 681 b 47 239 236 681 47 485 b 282 -14 47 90 131 -14 b 511 113 382 -14 458 42 b 619 -11 507 17 556 -11 b 778 115 713 -11 774 61 b 760 139 779 132 769 139 b 697 100 742 139 724 100 b 675 157 675 100 669 121 l 756 707 b 800 740 783 707 800 714 b 765 772 800 768 786 769 l 790 949 b 760 986 793 974 782 986 z m 340 96 b 211 268 253 96 213 167 b 422 604 208 426 290 604 b 550 397 507 604 568 540 b 340 96 529 219 439 96 z "},"ð":{"ha":796,"x_min":0,"x_max":0,"o":"m 658 894 b 681 938 678 901 685 917 b 643 957 676 957 665 965 l 538 921 b 438 1001 506 953 471 981 b 388 992 421 1013 400 1007 b 392 942 375 975 376 957 b 440 888 408 925 425 907 l 360 860 b 336 819 339 853 332 839 b 374 797 342 797 353 790 l 479 833 b 560 646 513 778 542 713 b 422 679 521 668 472 679 b 51 274 219 683 51 485 b 339 -14 51 97 176 -14 b 749 436 565 -14 749 172 b 585 869 749 608 676 760 z m 358 63 b 213 272 261 63 213 154 b 435 610 211 421 296 608 b 582 413 542 610 581 517 b 358 63 583 256 503 63 z "},"e":{"ha":733,"x_min":0,"x_max":0,"o":"m 610 192 b 394 99 554 143 485 99 b 222 225 311 99 247 151 b 674 522 444 256 674 342 b 468 681 674 625 581 681 b 50 269 213 681 50 460 b 332 -14 50 83 175 -14 b 647 161 492 -14 610 89 b 610 192 668 200 639 217 z m 421 607 b 532 500 488 607 532 561 b 249 301 532 385 389 322 b 208 331 218 296 208 311 b 421 607 208 481 303 607 z "},"é":{"ha":733,"x_min":0,"x_max":0,"o":"m 351 757 b 593 858 415 733 569 793 b 536 949 610 904 585 949 b 432 889 506 949 472 922 b 335 785 382 844 342 803 b 351 757 331 774 333 763 z m 610 192 b 394 99 554 143 485 99 b 222 225 311 99 247 151 b 674 522 444 256 674 342 b 468 681 674 625 581 681 b 50 269 213 681 50 460 b 332 -14 50 83 175 -14 b 647 161 492 -14 610 89 b 610 192 668 200 639 217 z m 421 607 b 532 500 488 607 532 561 b 249 301 532 385 389 322 b 208 331 218 296 208 311 b 421 607 208 481 303 607 z "},"ě":{"ha":733,"x_min":0,"x_max":0,"o":"m 431 769 b 547 850 485 769 490 783 b 629 958 586 899 626 943 b 613 979 632 969 629 978 b 446 883 574 981 497 929 b 307 979 407 929 346 981 b 283 958 292 978 286 969 b 333 856 283 943 306 901 b 431 769 374 788 383 769 z m 610 192 b 394 99 554 143 485 99 b 222 225 311 99 247 151 b 674 522 444 256 674 342 b 468 681 674 625 581 681 b 50 269 213 681 50 460 b 332 -14 50 83 175 -14 b 647 161 492 -14 610 89 b 610 192 668 200 639 217 z m 421 607 b 532 500 488 607 532 561 b 249 301 532 385 389 322 b 208 331 218 296 208 311 b 421 607 208 481 303 607 z "},"ê":{"ha":733,"x_min":0,"x_max":0,"o":"m 274 740 b 439 836 311 739 388 790 b 579 740 478 790 539 739 b 601 761 594 742 600 750 b 549 869 603 776 575 821 b 456 950 511 936 510 950 b 333 864 408 950 393 932 b 256 761 293 818 258 776 b 274 740 254 750 257 742 z m 610 192 b 394 99 554 143 485 99 b 222 225 311 99 247 151 b 674 522 444 256 674 342 b 468 681 674 625 581 681 b 50 269 213 681 50 460 b 332 -14 50 83 175 -14 b 647 161 492 -14 610 89 b 610 192 668 200 639 217 z m 421 607 b 532 500 488 607 532 561 b 249 301 532 385 389 322 b 208 331 218 296 208 311 b 421 607 208 481 303 607 z "},"ë":{"ha":733,"x_min":0,"x_max":0,"o":"m 289 772 b 385 860 338 772 385 810 b 313 929 385 901 356 929 b 222 835 263 929 222 882 b 289 772 222 797 251 772 z m 504 772 b 599 860 553 772 599 810 b 528 929 599 901 569 929 b 438 835 476 929 438 882 b 504 772 438 797 467 772 z m 610 192 b 394 99 554 143 485 99 b 222 225 311 99 247 151 b 674 522 444 256 674 342 b 468 681 674 625 581 681 b 50 269 213 681 50 460 b 332 -14 50 83 175 -14 b 647 161 492 -14 610 89 b 610 192 668 200 639 217 z m 421 607 b 532 500 488 607 532 561 b 249 301 532 385 389 322 b 208 331 218 296 208 311 b 421 607 208 481 303 607 z "},"ė":{"ha":733,"x_min":0,"x_max":0,"o":"m 410 764 b 544 878 472 761 542 819 b 469 957 546 919 513 956 b 336 840 406 963 338 899 b 410 764 333 799 364 765 z m 610 192 b 394 99 554 143 485 99 b 222 225 311 99 247 151 b 674 522 444 256 674 342 b 468 681 674 625 581 681 b 50 269 213 681 50 460 b 332 -14 50 83 175 -14 b 647 161 492 -14 610 89 b 610 192 668 200 639 217 z m 421 607 b 532 500 488 607 532 561 b 249 301 532 385 389 322 b 208 331 218 296 208 311 b 421 607 208 481 303 607 z "},"è":{"ha":733,"x_min":0,"x_max":0,"o":"m 524 757 b 540 785 542 763 544 774 b 444 889 533 803 493 844 b 321 946 394 929 357 958 b 282 858 288 933 267 900 b 524 757 306 793 460 733 z m 610 192 b 394 99 554 143 485 99 b 222 225 311 99 247 151 b 674 522 444 256 674 342 b 468 681 674 625 581 681 b 50 269 213 681 50 460 b 332 -14 50 83 175 -14 b 647 161 492 -14 610 89 b 610 192 668 200 639 217 z m 421 607 b 532 500 488 607 532 561 b 249 301 532 385 389 322 b 208 331 218 296 208 311 b 421 607 208 481 303 607 z "},"ē":{"ha":733,"x_min":0,"x_max":0,"o":"m 564 761 b 626 804 613 761 618 769 b 586 842 635 832 632 842 l 271 842 b 211 800 226 842 221 833 b 249 761 203 771 206 761 z m 610 192 b 394 99 554 143 485 99 b 222 225 311 99 247 151 b 674 522 444 256 674 342 b 468 681 674 625 581 681 b 50 269 213 681 50 460 b 332 -14 50 83 175 -14 b 647 161 492 -14 610 89 b 610 192 668 200 639 217 z m 421 607 b 532 500 488 607 532 561 b 249 301 532 385 389 322 b 208 331 218 296 208 311 b 421 607 208 481 303 607 z "},"ę":{"ha":733,"x_min":0,"x_max":0,"o":"m 610 192 b 394 99 554 143 485 99 b 222 225 311 99 247 151 b 674 522 444 256 674 342 b 468 681 674 625 581 681 b 50 269 213 681 50 460 b 322 -14 50 88 169 -10 b 240 -144 271 -51 240 -96 b 376 -257 240 -215 300 -257 b 493 -214 418 -257 464 -243 b 471 -183 510 -196 501 -169 b 417 -196 454 -190 432 -196 b 342 -124 367 -196 342 -167 b 394 -8 342 -92 356 -53 b 647 161 522 14 615 99 b 610 192 668 200 639 217 z m 421 607 b 532 500 488 607 532 561 b 249 301 532 385 389 322 b 208 331 218 296 208 311 b 421 607 208 481 303 607 z "},"f":{"ha":513,"x_min":0,"x_max":0,"o":"m 481 986 b 193 663 339 986 225 878 l 186 613 l 117 596 b 67 550 89 590 74 579 b 104 513 58 515 72 504 l 174 526 l 103 26 b 72 -97 94 -35 88 -75 b 108 -143 49 -131 65 -156 l 208 -117 b 243 -86 228 -111 240 -107 l 335 547 l 439 567 b 513 626 475 572 496 572 b 469 674 526 668 519 683 l 349 647 l 349 649 b 318 775 314 640 310 714 b 419 903 329 867 375 903 b 488 814 463 903 481 875 b 542 764 490 785 508 764 b 619 840 581 764 614 794 b 481 986 631 917 578 986 z "},"g":{"ha":751,"x_min":0,"x_max":0,"o":"m 704 782 b 649 750 681 782 665 768 b 528 674 603 696 560 674 b 431 679 497 674 482 679 l 429 679 b 82 399 242 679 82 550 b 167 246 82 333 113 281 b 36 118 81 214 42 164 b 106 -3 28 60 61 19 b -1 -122 42 -29 4 -79 b 288 -293 -19 -244 125 -293 b 719 -54 536 -293 700 -196 b 539 99 733 36 672 99 b 318 88 485 99 396 88 b 171 164 244 88 164 101 b 219 219 174 188 197 208 b 356 199 258 206 304 199 b 692 474 542 199 692 311 b 624 618 692 531 668 582 b 753 728 688 632 750 669 b 704 782 756 760 731 782 z m 376 264 b 242 414 289 264 242 329 b 408 615 242 518 310 615 b 536 463 493 615 536 544 b 376 264 536 364 475 264 z m 247 -37 b 464 -31 335 -39 400 -33 b 567 -107 556 -26 572 -68 b 332 -224 557 -182 467 -224 b 135 -115 206 -224 125 -186 b 247 -37 143 -62 199 -37 z "},"ğ":{"ha":751,"x_min":0,"x_max":0,"o":"m 426 744 b 633 911 536 744 618 819 b 618 947 638 933 632 947 b 593 931 610 947 606 943 b 443 856 550 881 507 856 b 314 931 379 856 342 882 b 292 947 307 943 300 947 b 267 911 278 947 268 933 b 426 744 257 822 311 744 z m 704 782 b 649 750 681 782 665 768 b 528 674 603 696 560 674 b 431 679 497 674 482 679 l 429 679 b 82 399 242 679 82 550 b 167 246 82 333 113 281 b 36 118 81 214 42 164 b 106 -3 28 60 61 19 b -1 -122 42 -29 4 -79 b 288 -293 -19 -244 125 -293 b 719 -54 536 -293 700 -196 b 539 99 733 36 672 99 b 318 88 485 99 396 88 b 171 164 244 88 164 101 b 219 219 174 188 197 208 b 356 199 258 206 304 199 b 692 474 542 199 692 311 b 624 618 692 531 668 582 b 753 728 688 632 750 669 b 704 782 756 760 731 782 z m 376 264 b 242 414 289 264 242 329 b 408 615 242 518 310 615 b 536 463 493 615 536 544 b 376 264 536 364 475 264 z m 247 -37 b 464 -31 335 -39 400 -33 b 567 -107 556 -26 572 -68 b 332 -224 557 -182 467 -224 b 135 -115 206 -224 125 -186 b 247 -37 143 -62 199 -37 z "},"ġ":{"ha":751,"x_min":0,"x_max":0,"o":"m 425 771 b 560 885 488 768 557 826 b 485 964 561 926 528 963 b 351 847 421 969 353 906 b 425 771 349 806 379 772 z m 704 782 b 649 750 681 782 665 768 b 528 674 603 696 560 674 b 431 679 497 674 482 679 l 429 679 b 82 399 242 679 82 550 b 167 246 82 333 113 281 b 36 118 81 214 42 164 b 106 -3 28 60 61 19 b -1 -122 42 -29 4 -79 b 288 -293 -19 -244 125 -293 b 719 -54 536 -293 700 -196 b 539 99 733 36 672 99 b 318 88 485 99 396 88 b 171 164 244 88 164 101 b 219 219 174 188 197 208 b 356 199 258 206 304 199 b 692 474 542 199 692 311 b 624 618 692 531 668 582 b 753 728 688 632 750 669 b 704 782 756 760 731 782 z m 376 264 b 242 414 289 264 242 329 b 408 615 242 518 310 615 b 536 463 493 615 536 544 b 376 264 536 364 475 264 z m 247 -37 b 464 -31 335 -39 400 -33 b 567 -107 556 -26 572 -68 b 332 -224 557 -182 467 -224 b 135 -115 206 -224 125 -186 b 247 -37 143 -62 199 -37 z "},"h":{"ha":871,"x_min":0,"x_max":0,"o":"m 790 139 b 729 100 772 139 756 100 b 707 157 706 100 704 121 l 722 431 b 549 678 733 586 678 678 b 278 490 439 678 346 608 l 349 953 b 318 989 353 978 340 989 b 203 961 293 989 256 983 b 115 899 129 933 115 917 b 174 803 115 861 185 878 l 57 22 b 93 -14 53 -1 67 -19 l 181 6 b 214 39 196 10 211 19 l 238 178 b 486 574 278 426 393 574 b 568 422 558 574 574 514 l 550 142 b 653 -11 543 44 575 -11 b 808 115 743 -11 804 61 b 790 139 810 132 800 139 z "},"ħ":{"ha":871,"x_min":0,"x_max":0,"o":"m 790 139 b 729 100 772 139 756 100 b 707 157 706 100 704 121 l 722 431 b 549 678 733 586 678 678 b 278 490 439 678 346 608 l 308 696 l 375 696 b 406 729 396 696 406 707 b 375 763 406 751 396 763 l 319 763 l 349 953 b 318 989 353 978 340 989 b 203 961 293 989 256 983 b 115 899 129 933 115 917 b 174 803 115 861 185 878 l 168 763 l 88 763 b 57 729 67 763 57 751 b 88 696 57 707 67 696 l 157 696 l 57 22 b 93 -14 53 -1 67 -19 l 181 6 b 214 39 196 10 211 19 l 238 178 b 486 574 278 426 393 574 b 568 422 558 574 574 514 l 550 142 b 653 -11 543 44 575 -11 b 808 115 743 -11 804 61 b 790 139 810 132 800 139 z "},"i":{"ha":414,"x_min":0,"x_max":0,"o":"m 225 771 b 360 885 288 768 357 826 b 285 964 361 926 328 963 b 151 847 221 969 153 906 b 225 771 149 806 179 772 z m 182 -11 b 340 115 275 -11 336 61 b 322 139 340 132 331 139 b 260 100 304 139 286 100 b 236 157 238 100 231 121 l 306 640 b 275 678 310 665 297 678 b 168 650 250 678 219 668 b 81 588 92 622 81 604 b 131 483 81 547 143 561 l 79 140 b 182 -11 64 44 103 -11 z "},"ı":{"ha":414,"x_min":0,"x_max":0,"o":"m 182 -11 b 340 115 275 -11 336 61 b 322 139 340 132 331 139 b 260 100 304 139 286 100 b 236 157 238 100 231 121 l 306 640 b 275 678 310 665 297 678 b 168 650 250 678 219 668 b 81 588 92 622 81 604 b 131 483 81 547 143 561 l 79 140 b 182 -11 64 44 103 -11 z "},"í":{"ha":414,"x_min":0,"x_max":0,"o":"m 167 764 b 408 865 231 740 385 800 b 351 956 425 911 400 956 b 247 896 321 956 288 929 b 150 792 197 851 157 810 b 167 764 146 781 149 769 z m 182 -11 b 340 115 275 -11 336 61 b 322 139 340 132 331 139 b 260 100 304 139 286 100 b 236 157 238 100 231 121 l 306 640 b 275 678 310 665 297 678 b 168 650 250 678 219 668 b 81 588 92 622 81 604 b 131 483 81 547 143 561 l 79 140 b 182 -11 64 44 103 -11 z "},"î":{"ha":414,"x_min":0,"x_max":0,"o":"m 89 747 b 254 843 126 746 203 797 b 394 747 293 797 354 746 b 417 768 410 749 415 757 b 364 876 418 783 390 828 b 271 957 326 943 325 957 b 149 871 224 957 208 939 b 71 768 108 825 74 783 b 89 747 69 757 72 749 z m 182 -11 b 340 115 275 -11 336 61 b 322 139 340 132 331 139 b 260 100 304 139 286 100 b 236 157 238 100 231 121 l 306 640 b 275 678 310 665 297 678 b 168 650 250 678 219 668 b 81 588 92 622 81 604 b 131 483 81 547 143 561 l 79 140 b 182 -11 64 44 103 -11 z "},"ï":{"ha":414,"x_min":0,"x_max":0,"o":"m 104 779 b 200 867 153 779 200 817 b 128 936 200 908 171 936 b 38 842 78 936 38 889 b 104 779 38 804 67 779 z m 319 779 b 414 867 368 779 414 817 b 343 936 414 908 385 936 b 253 842 292 936 253 889 b 319 779 253 804 282 779 z m 182 -11 b 340 115 275 -11 336 61 b 322 139 340 132 331 139 b 260 100 304 139 286 100 b 236 157 238 100 231 121 l 306 640 b 275 678 310 665 297 678 b 168 650 250 678 219 668 b 81 588 92 622 81 604 b 131 483 81 547 143 561 l 79 140 b 182 -11 64 44 103 -11 z "},"ì":{"ha":414,"x_min":0,"x_max":0,"o":"m 339 764 b 356 792 357 769 360 781 b 260 896 349 810 308 851 b 136 953 210 936 172 965 b 97 865 103 940 82 907 b 339 764 121 800 275 740 z m 182 -11 b 340 115 275 -11 336 61 b 322 139 340 132 331 139 b 260 100 304 139 286 100 b 236 157 238 100 231 121 l 306 640 b 275 678 310 665 297 678 b 168 650 250 678 219 668 b 81 588 92 622 81 604 b 131 483 81 547 143 561 l 79 140 b 182 -11 64 44 103 -11 z "},"ī":{"ha":414,"x_min":0,"x_max":0,"o":"m 379 768 b 442 811 428 768 433 776 b 401 849 450 839 447 849 l 86 849 b 26 807 42 849 36 840 b 64 768 18 778 21 768 z m 182 -11 b 340 115 275 -11 336 61 b 322 139 340 132 331 139 b 260 100 304 139 286 100 b 236 157 238 100 231 121 l 306 640 b 275 678 310 665 297 678 b 168 650 250 678 219 668 b 81 588 92 622 81 604 b 131 483 81 547 143 561 l 79 140 b 182 -11 64 44 103 -11 z "},"į":{"ha":414,"x_min":0,"x_max":0,"o":"m 225 771 b 360 885 288 768 357 826 b 285 964 361 926 328 963 b 151 847 221 969 153 906 b 225 771 149 806 179 772 z m 329 -172 b 275 -185 313 -179 290 -185 b 200 -112 225 -185 200 -156 b 256 6 200 -79 215 -40 b 340 115 306 29 338 76 b 322 139 340 132 331 139 b 260 100 304 139 286 100 b 236 157 238 100 231 121 l 306 640 b 275 678 310 665 297 678 b 168 650 250 678 219 668 b 81 588 92 622 81 604 b 131 483 81 547 143 561 l 79 140 b 169 -11 65 50 99 -6 b 99 -133 125 -47 99 -87 b 235 -246 99 -204 158 -246 b 351 -203 276 -246 322 -232 b 329 -172 368 -185 360 -158 z "},"j":{"ha":396,"x_min":0,"x_max":0,"o":"m 246 771 b 381 885 308 768 378 826 b 306 964 382 926 349 963 b 172 847 242 969 174 906 b 246 771 169 806 200 772 z m -11 -293 b 218 -69 139 -293 199 -204 l 325 640 b 293 678 328 665 315 678 b 178 650 269 678 231 668 b 92 588 101 622 92 604 b 119 554 92 574 101 565 b 142 483 143 542 147 522 l 69 -18 b -76 -228 50 -150 25 -197 b -11 -293 -131 -243 -118 -293 z "},"ȷ":{"ha":396,"x_min":0,"x_max":0,"o":"m -11 -293 b 218 -69 139 -293 199 -204 l 325 640 b 293 678 328 665 315 678 b 178 650 269 678 231 668 b 92 588 101 622 92 604 b 119 554 92 574 101 565 b 142 483 143 542 147 522 l 69 -18 b -76 -228 50 -150 25 -197 b -11 -293 -131 -243 -118 -293 z "},"k":{"ha":771,"x_min":0,"x_max":0,"o":"m 696 128 b 635 94 678 128 663 94 b 457 303 565 94 492 219 b 697 546 596 351 697 432 b 542 679 697 636 622 679 b 290 542 447 679 357 628 l 349 953 b 318 989 351 978 340 989 b 203 961 293 989 256 983 b 115 899 129 933 115 917 b 174 803 115 861 185 878 l 61 22 b 97 -14 57 0 71 -19 l 185 6 b 219 39 201 10 217 21 l 250 257 b 335 271 279 261 307 265 b 565 -14 371 136 438 -14 b 714 104 656 -14 714 61 b 696 128 714 115 710 128 z m 263 346 b 467 576 283 454 371 576 b 551 500 521 576 551 542 b 260 326 550 406 414 338 z "},"l":{"ha":399,"x_min":0,"x_max":0,"o":"m 183 -11 b 336 115 271 -11 332 61 b 318 139 336 132 326 139 b 256 100 300 139 282 100 b 233 157 233 100 228 121 l 347 949 b 317 986 350 974 339 986 b 201 958 292 986 254 978 b 115 896 125 931 115 913 b 168 797 115 860 178 872 l 75 140 b 183 -11 60 39 96 -11 z "},"ĺ":{"ha":399,"x_min":0,"x_max":0,"o":"m 240 1060 b 482 1161 304 1036 458 1096 b 425 1251 499 1207 474 1251 b 321 1192 394 1251 361 1225 b 224 1088 271 1147 231 1106 b 240 1060 219 1076 222 1065 z m 183 -11 b 336 115 271 -11 332 61 b 318 139 336 132 326 139 b 256 100 300 139 282 100 b 233 157 233 100 228 121 l 347 949 b 317 986 350 974 339 986 b 201 958 292 986 254 978 b 115 896 125 931 115 913 b 168 797 115 860 178 872 l 75 140 b 183 -11 60 39 96 -11 z "},"ľ":{"ha":399,"x_min":0,"x_max":0,"o":"m 183 -11 b 336 115 271 -11 332 61 b 318 139 336 132 326 139 b 256 100 300 139 282 100 b 233 157 233 100 228 121 l 347 949 b 317 986 350 974 339 986 b 201 958 292 986 254 978 b 115 896 125 931 115 913 b 168 797 115 860 178 872 l 75 140 b 183 -11 60 39 96 -11 z m 438 646 b 593 892 479 646 585 831 b 543 960 599 936 576 960 b 468 886 510 960 481 938 b 418 672 463 868 432 728 b 438 646 415 656 422 646 z "},"ł":{"ha":399,"x_min":0,"x_max":0,"o":"m 389 569 b 344 585 376 592 363 596 l 290 554 l 347 949 b 317 986 350 974 339 986 b 201 958 292 986 254 978 b 115 896 125 931 115 913 b 168 797 115 860 178 872 l 119 456 l 17 396 b 8 350 -3 385 -6 371 b 51 333 19 328 33 322 l 107 365 l 75 140 b 183 -11 60 39 96 -11 b 336 115 271 -11 332 61 b 318 139 336 132 326 139 b 256 100 300 139 282 100 b 233 157 233 100 228 121 l 278 464 l 379 522 b 389 569 401 536 400 550 z "},"m":{"ha":1311,"x_min":0,"x_max":0,"o":"m 1231 139 b 1168 100 1213 139 1194 100 b 1146 157 1146 100 1144 121 l 1163 431 b 988 678 1172 586 1115 678 b 731 511 894 678 799 617 b 551 678 721 617 657 678 b 275 493 456 678 350 614 l 297 640 b 267 676 301 665 289 676 b 167 649 242 676 213 668 b 81 583 92 618 81 604 b 131 483 81 546 142 563 l 60 19 b 92 -14 56 -4 69 -19 l 185 10 b 217 44 203 14 214 24 l 240 178 b 493 576 285 426 392 576 b 563 371 565 576 583 515 l 511 21 b 542 -12 507 -4 521 -18 l 636 11 b 668 44 654 15 664 25 l 692 178 b 928 576 736 426 835 576 b 1007 422 996 576 1014 514 l 989 142 b 1090 -11 983 44 1011 -11 b 1249 115 1183 -11 1244 61 b 1231 139 1249 132 1239 139 z "},"n":{"ha":876,"x_min":0,"x_max":0,"o":"m 796 139 b 735 100 778 139 761 100 b 713 157 711 100 710 121 l 728 431 b 554 678 739 586 683 678 b 272 476 440 678 342 601 l 297 640 b 267 676 301 665 289 676 b 167 649 242 676 213 668 b 81 583 92 618 81 604 b 131 483 81 546 142 563 l 64 22 b 96 -11 60 -3 74 -17 l 189 13 b 219 47 207 17 217 26 l 243 178 b 492 574 286 426 399 574 b 574 422 564 574 579 514 l 556 142 b 658 -11 549 44 581 -11 b 814 115 749 -11 810 61 b 796 139 815 132 806 139 z "},"ń":{"ha":876,"x_min":0,"x_max":0,"o":"m 381 754 b 622 856 444 731 599 790 b 565 946 639 901 614 946 b 461 886 535 946 501 919 b 364 782 411 842 371 800 b 381 754 360 771 363 760 z m 796 139 b 735 100 778 139 761 100 b 713 157 711 100 710 121 l 728 431 b 554 678 739 586 683 678 b 272 476 440 678 342 601 l 297 640 b 267 676 301 665 289 676 b 167 649 242 676 213 668 b 81 583 92 618 81 604 b 131 483 81 546 142 563 l 64 22 b 96 -11 60 -3 74 -17 l 189 13 b 219 47 207 17 217 26 l 243 178 b 492 574 286 426 399 574 b 574 422 564 574 579 514 l 556 142 b 658 -11 549 44 581 -11 b 814 115 749 -11 810 61 b 796 139 815 132 806 139 z "},"ň":{"ha":876,"x_min":0,"x_max":0,"o":"m 460 769 b 576 850 514 769 519 783 b 658 958 615 899 656 943 b 642 979 661 969 658 978 b 475 883 603 981 526 929 b 336 979 436 929 375 981 b 313 958 321 978 315 969 b 363 856 313 943 335 901 b 460 769 403 788 413 769 z m 796 139 b 735 100 778 139 761 100 b 713 157 711 100 710 121 l 728 431 b 554 678 739 586 683 678 b 272 476 440 678 342 601 l 297 640 b 267 676 301 665 289 676 b 167 649 242 676 213 668 b 81 583 92 618 81 604 b 131 483 81 546 142 563 l 64 22 b 96 -11 60 -3 74 -17 l 189 13 b 219 47 207 17 217 26 l 243 178 b 492 574 286 426 399 574 b 574 422 564 574 579 514 l 556 142 b 658 -11 549 44 581 -11 b 814 115 749 -11 810 61 b 796 139 815 132 806 139 z "},"ñ":{"ha":876,"x_min":0,"x_max":0,"o":"m 294 754 b 349 796 297 785 318 796 b 569 738 422 796 501 738 b 685 828 638 738 678 779 b 646 869 693 885 650 904 b 592 829 642 840 622 829 b 368 888 544 829 453 888 b 254 797 300 888 261 844 b 294 754 246 740 289 721 z m 796 139 b 735 100 778 139 761 100 b 713 157 711 100 710 121 l 728 431 b 554 678 739 586 683 678 b 272 476 440 678 342 601 l 297 640 b 267 676 301 665 289 676 b 167 649 242 676 213 668 b 81 583 92 618 81 604 b 131 483 81 546 142 563 l 64 22 b 96 -11 60 -3 74 -17 l 189 13 b 219 47 207 17 217 26 l 243 178 b 492 574 286 426 399 574 b 574 422 564 574 579 514 l 556 142 b 658 -11 549 44 581 -11 b 814 115 749 -11 810 61 b 796 139 815 132 806 139 z "},"o":{"ha":804,"x_min":0,"x_max":0,"o":"m 353 -14 b 753 401 576 -14 753 167 b 458 681 753 554 646 681 b 51 272 239 681 51 493 b 353 -14 51 103 169 -14 z m 369 61 b 217 279 263 61 218 158 b 439 607 218 426 296 607 b 578 399 543 607 578 508 b 369 61 578 244 504 61 z "},"ó":{"ha":804,"x_min":0,"x_max":0,"o":"m 397 764 b 639 865 461 740 615 800 b 582 956 656 911 631 956 b 478 896 551 956 518 929 b 381 792 428 851 388 810 b 397 764 376 781 379 769 z m 353 -14 b 753 401 576 -14 753 167 b 458 681 753 554 646 681 b 51 272 239 681 51 493 b 353 -14 51 103 169 -14 z m 369 61 b 217 279 263 61 218 158 b 439 607 218 426 296 607 b 578 399 543 607 578 508 b 369 61 578 244 504 61 z "},"ô":{"ha":804,"x_min":0,"x_max":0,"o":"m 321 747 b 486 843 358 746 435 797 b 626 747 525 797 586 746 b 649 768 642 749 647 757 b 596 876 650 783 622 828 b 503 957 558 943 557 957 b 381 871 456 957 440 939 b 303 768 340 825 306 783 b 321 747 301 757 304 749 z m 353 -14 b 753 401 576 -14 753 167 b 458 681 753 554 646 681 b 51 272 239 681 51 493 b 353 -14 51 103 169 -14 z m 369 61 b 217 279 263 61 218 158 b 439 607 218 426 296 607 b 578 399 543 607 578 508 b 369 61 578 244 504 61 z "},"ö":{"ha":804,"x_min":0,"x_max":0,"o":"m 336 779 b 432 867 385 779 432 817 b 360 936 432 908 403 936 b 269 842 310 936 269 889 b 336 779 269 804 299 779 z m 551 779 b 646 867 600 779 646 817 b 575 936 646 908 617 936 b 485 842 524 936 485 889 b 551 779 485 804 514 779 z m 353 -14 b 753 401 576 -14 753 167 b 458 681 753 554 646 681 b 51 272 239 681 51 493 b 353 -14 51 103 169 -14 z m 369 61 b 217 279 263 61 218 158 b 439 607 218 426 296 607 b 578 399 543 607 578 508 b 369 61 578 244 504 61 z "},"ò":{"ha":804,"x_min":0,"x_max":0,"o":"m 571 764 b 588 792 589 769 592 781 b 492 896 581 810 540 851 b 368 953 442 936 404 965 b 329 865 335 940 314 907 b 571 764 353 800 507 740 z m 353 -14 b 753 401 576 -14 753 167 b 458 681 753 554 646 681 b 51 272 239 681 51 493 b 353 -14 51 103 169 -14 z m 369 61 b 217 279 263 61 218 158 b 439 607 218 426 296 607 b 578 399 543 607 578 508 b 369 61 578 244 504 61 z "},"ő":{"ha":804,"x_min":0,"x_max":0,"o":"m 349 747 b 519 906 408 747 519 844 b 461 968 519 946 492 968 b 375 882 426 968 404 932 b 326 767 349 831 326 783 b 349 747 326 756 332 747 z m 557 746 b 733 900 619 746 733 839 b 676 961 733 938 707 961 b 588 879 643 961 619 926 b 532 765 557 828 532 782 b 557 746 532 756 539 746 z m 353 -14 b 753 401 576 -14 753 167 b 458 681 753 554 646 681 b 51 272 239 681 51 493 b 353 -14 51 103 169 -14 z m 369 61 b 217 279 263 61 218 158 b 439 607 218 426 296 607 b 578 399 543 607 578 508 b 369 61 578 244 504 61 z "},"ō":{"ha":804,"x_min":0,"x_max":0,"o":"m 611 768 b 674 811 660 768 665 776 b 633 849 682 839 679 849 l 318 849 b 258 807 274 849 268 840 b 296 768 250 778 253 768 z m 353 -14 b 753 401 576 -14 753 167 b 458 681 753 554 646 681 b 51 272 239 681 51 493 b 353 -14 51 103 169 -14 z m 369 61 b 217 279 263 61 218 158 b 439 607 218 426 296 607 b 578 399 543 607 578 508 b 369 61 578 244 504 61 z "},"ø":{"ha":804,"x_min":0,"x_max":0,"o":"m 701 776 b 708 800 706 785 708 793 b 678 824 708 815 692 824 b 639 800 661 824 650 819 l 561 667 b 458 681 531 675 496 681 b 51 272 239 681 51 493 b 192 24 51 160 103 71 l 111 -115 b 103 -136 107 -122 103 -129 b 133 -162 103 -153 117 -162 b 178 -133 150 -162 164 -156 l 254 -1 b 353 -14 285 -10 317 -14 b 753 401 576 -14 753 167 b 622 639 753 501 707 590 z m 217 279 b 439 607 218 426 296 607 b 514 583 469 607 494 599 l 251 128 b 217 279 228 167 217 221 z m 369 61 b 300 79 342 61 319 68 l 557 525 b 578 399 572 489 578 444 b 369 61 578 244 504 61 z "},"õ":{"ha":804,"x_min":0,"x_max":0,"o":"m 588 747 b 703 838 656 747 696 789 b 664 879 711 894 668 914 b 610 839 660 850 640 839 b 386 897 563 839 471 897 b 272 807 318 897 279 854 b 313 764 264 750 307 731 b 367 806 315 794 336 806 b 588 747 440 806 519 747 z m 353 -14 b 753 401 576 -14 753 167 b 458 681 753 554 646 681 b 51 272 239 681 51 493 b 353 -14 51 103 169 -14 z m 369 61 b 217 279 263 61 218 158 b 439 607 218 426 296 607 b 578 399 543 607 578 508 b 369 61 578 244 504 61 z "},"œ":{"ha":1282,"x_min":0,"x_max":0,"o":"m 1158 192 b 943 99 1103 143 1033 99 b 771 225 860 99 796 151 b 1222 522 993 256 1222 342 b 1017 681 1222 625 1129 681 b 714 549 890 681 786 626 b 458 681 667 628 579 681 b 51 272 239 681 51 493 b 353 -14 51 103 169 -14 b 639 108 467 -14 567 32 b 881 -14 689 28 778 -14 b 1196 161 1040 -14 1158 89 b 1158 192 1217 200 1188 217 z m 369 61 b 217 279 263 61 218 158 b 439 607 218 426 296 607 b 578 399 543 607 578 508 b 369 61 578 244 504 61 z m 968 607 b 1079 500 1036 607 1079 561 b 796 301 1079 385 938 322 b 757 331 767 296 757 311 b 968 607 757 481 851 607 z "},"p":{"ha":806,"x_min":0,"x_max":0,"o":"m 549 676 b 292 551 446 676 353 625 l 304 642 b 275 678 308 665 297 678 b 169 650 250 678 224 671 b 83 588 96 622 83 606 b 140 489 83 551 149 556 l 54 -111 b -31 -250 42 -208 -25 -208 b 29 -278 -33 -271 -18 -278 l 190 -278 b 257 -250 235 -278 254 -272 b 213 -111 263 -210 200 -208 l 231 17 b 364 -8 274 1 318 -8 b 758 419 557 -8 747 160 b 549 676 768 563 690 676 z m 372 64 b 250 256 294 64 236 124 b 467 571 271 446 368 571 b 592 419 553 571 590 501 b 372 64 593 231 503 64 z "},"þ":{"ha":808,"x_min":0,"x_max":0,"o":"m 557 678 b 293 542 456 678 358 625 l 351 951 b 326 988 354 978 347 989 b 165 935 306 986 229 963 b 118 894 131 919 121 911 b 139 858 117 879 125 869 b 167 760 168 839 174 807 l 46 -111 b -40 -249 32 -207 -35 -208 b 19 -278 -43 -271 -26 -278 l 182 -278 b 246 -250 225 -278 243 -271 b 201 -111 253 -208 188 -208 l 221 28 b 367 -8 283 0 325 -8 b 761 419 560 -8 750 160 b 557 678 771 564 694 678 z m 375 64 b 251 247 299 64 242 121 l 261 308 b 471 572 292 474 382 572 b 594 419 556 572 593 503 b 375 64 596 231 506 64 z "},"q":{"ha":811,"x_min":0,"x_max":0,"o":"m 742 625 b 707 682 746 660 736 682 b 597 650 675 682 638 650 b 432 681 563 650 508 681 b 49 246 217 681 49 465 b 286 -14 49 85 144 -14 b 507 100 378 -14 456 35 l 478 -111 b 393 -250 465 -208 399 -208 b 453 -278 390 -271 406 -278 l 614 -278 b 681 -250 658 -278 678 -272 b 636 -111 686 -210 622 -208 z m 546 375 b 347 92 526 229 454 92 b 210 286 278 92 210 150 b 415 604 210 431 269 604 b 567 529 492 604 569 553 z "},"r":{"ha":600,"x_min":0,"x_max":0,"o":"m 501 679 b 283 533 424 679 339 617 l 297 640 b 267 676 301 665 289 676 b 167 649 242 676 213 668 b 81 583 92 618 81 604 b 131 483 81 546 142 563 l 63 18 b 96 -15 60 -4 74 -19 l 190 6 b 224 40 208 10 221 21 l 251 238 b 421 556 278 443 360 556 b 526 489 474 556 467 488 b 596 576 567 489 592 524 b 501 679 600 631 571 679 z "},"ŕ":{"ha":600,"x_min":0,"x_max":0,"o":"m 293 749 b 535 850 357 725 511 785 b 478 940 551 896 526 940 b 374 881 447 940 414 914 b 276 776 324 836 283 794 b 293 749 272 765 275 754 z m 501 679 b 283 533 424 679 339 617 l 297 640 b 267 676 301 665 289 676 b 167 649 242 676 213 668 b 81 583 92 618 81 604 b 131 483 81 546 142 563 l 63 18 b 96 -15 60 -4 74 -19 l 190 6 b 224 40 208 10 221 21 l 251 238 b 421 556 278 443 360 556 b 526 489 474 556 467 488 b 596 576 567 489 592 524 b 501 679 600 631 571 679 z "},"ř":{"ha":600,"x_min":0,"x_max":0,"o":"m 372 767 b 489 847 426 767 432 781 b 571 956 528 896 568 940 b 554 976 574 967 571 975 b 388 881 515 978 439 926 b 249 976 349 926 288 978 b 225 956 233 975 228 967 b 275 853 225 940 247 899 b 372 767 315 785 325 767 z m 501 679 b 283 533 424 679 339 617 l 297 640 b 267 676 301 665 289 676 b 167 649 242 676 213 668 b 81 583 92 618 81 604 b 131 483 81 546 142 563 l 63 18 b 96 -15 60 -4 74 -19 l 190 6 b 224 40 208 10 221 21 l 251 238 b 421 556 278 443 360 556 b 526 489 474 556 467 488 b 596 576 567 489 592 524 b 501 679 600 631 571 679 z "},"s":{"ha":660,"x_min":0,"x_max":0,"o":"m 307 -14 b 589 178 457 -14 568 65 b 394 400 607 279 525 342 b 243 539 283 450 232 481 b 349 610 249 575 290 610 b 507 535 410 610 463 578 b 585 483 549 496 564 478 b 601 543 604 490 610 504 b 579 611 594 569 589 586 b 379 681 556 669 444 681 b 94 504 256 681 115 629 b 271 278 74 389 165 325 b 432 129 379 229 443 189 b 326 58 426 92 388 58 b 101 196 246 58 168 99 b 51 228 82 221 69 233 b 29 183 33 224 25 208 b 57 61 38 132 46 99 b 307 -14 76 -4 211 -14 z "},"":{"ha":660,"x_min":0,"x_max":0,"o":"m 307 -14 b 589 178 457 -14 568 65 b 394 400 607 279 525 342 b 243 539 283 450 232 481 b 349 610 249 575 290 610 b 507 535 410 610 463 578 b 585 483 549 496 564 478 b 601 543 604 490 610 504 b 579 611 594 569 589 586 b 379 681 556 669 444 681 b 94 504 256 681 115 629 b 271 278 74 389 165 325 b 432 129 379 229 443 189 b 326 58 426 92 388 58 b 101 196 246 58 168 99 b 51 228 82 221 69 233 b 29 183 33 224 25 208 b 57 61 38 132 46 99 b 307 -14 76 -4 211 -14 z "},"ś":{"ha":660,"x_min":0,"x_max":0,"o":"m 303 764 b 544 865 367 740 521 800 b 488 956 561 911 536 956 b 383 896 457 956 424 929 b 286 792 333 851 293 810 b 303 764 282 781 285 769 z m 307 -14 b 589 178 457 -14 568 65 b 394 400 607 279 525 342 b 243 539 283 450 232 481 b 349 610 249 575 290 610 b 507 535 410 610 463 578 b 585 483 549 496 564 478 b 601 543 604 490 610 504 b 579 611 594 569 589 586 b 379 681 556 669 444 681 b 94 504 256 681 115 629 b 271 278 74 389 165 325 b 432 129 379 229 443 189 b 326 58 426 92 388 58 b 101 196 246 58 168 99 b 51 228 82 221 69 233 b 29 183 33 224 25 208 b 57 61 38 132 46 99 b 307 -14 76 -4 211 -14 z "},"š":{"ha":660,"x_min":0,"x_max":0,"o":"m 376 769 b 493 850 431 769 436 783 b 575 958 532 899 572 943 b 558 979 578 969 575 978 b 392 883 519 981 443 929 b 253 979 353 929 292 981 b 229 958 238 978 232 969 b 279 856 229 943 251 901 b 376 769 319 788 329 769 z m 307 -14 b 589 178 457 -14 568 65 b 394 400 607 279 525 342 b 243 539 283 450 232 481 b 349 610 249 575 290 610 b 507 535 410 610 463 578 b 585 483 549 496 564 478 b 601 543 604 490 610 504 b 579 611 594 569 589 586 b 379 681 556 669 444 681 b 94 504 256 681 115 629 b 271 278 74 389 165 325 b 432 129 379 229 443 189 b 326 58 426 92 388 58 b 101 196 246 58 168 99 b 51 228 82 221 69 233 b 29 183 33 224 25 208 b 57 61 38 132 46 99 b 307 -14 76 -4 211 -14 z "},"ş":{"ha":660,"x_min":0,"x_max":0,"o":"m 349 610 b 507 535 410 610 463 578 b 585 483 549 496 564 478 b 601 543 604 490 610 504 b 579 611 594 569 589 586 b 379 681 556 669 444 681 b 94 504 256 681 115 629 b 271 278 74 389 165 325 b 432 129 379 229 443 189 b 326 58 426 92 388 58 b 101 196 246 58 168 99 b 51 228 82 221 69 233 b 29 183 33 224 25 208 b 57 61 38 132 46 99 b 235 -11 72 11 154 -7 l 192 -93 b 208 -118 183 -107 194 -115 b 300 -190 251 -128 300 -144 b 239 -246 300 -219 281 -246 b 171 -225 208 -246 189 -235 b 144 -250 147 -210 131 -232 b 260 -296 163 -272 200 -296 b 392 -182 332 -296 392 -250 b 263 -72 392 -115 332 -85 l 293 -14 l 307 -14 b 589 178 457 -14 568 65 b 394 400 607 279 525 342 b 243 539 283 450 232 481 b 349 610 249 575 290 610 z "},"ß":{"ha":817,"x_min":0,"x_max":0,"o":"m 118 -117 b 153 -86 138 -111 150 -107 l 258 667 b 396 914 275 778 290 914 b 468 800 464 914 474 851 b 347 486 451 683 361 581 b 483 304 335 388 407 353 b 603 143 564 253 611 211 b 499 57 596 94 556 57 b 322 186 403 57 350 135 b 290 225 311 207 306 225 b 254 167 272 225 258 203 b 268 58 249 135 251 88 b 460 -14 303 3 407 -14 b 747 214 613 -15 728 85 b 590 438 763 325 679 382 b 449 563 490 500 444 522 b 607 821 460 640 590 707 b 433 986 619 915 561 986 b 103 663 258 986 131 856 l 13 26 b -18 -97 4 -35 -3 -75 b 18 -143 -42 -131 -25 -156 z "},"t":{"ha":519,"x_min":0,"x_max":0,"o":"m 318 657 b 339 789 325 704 332 749 b 306 822 342 814 328 828 l 219 803 b 186 769 200 800 189 789 b 164 636 179 733 172 688 l 97 626 b 47 583 71 622 54 613 b 86 540 39 547 54 536 l 149 547 b 96 165 125 396 100 231 b 251 -14 88 60 132 -14 b 447 139 364 -14 447 79 b 411 151 447 161 429 174 b 318 99 383 118 350 99 b 258 215 271 99 251 128 b 303 560 264 283 282 421 l 435 571 b 510 626 472 575 493 574 b 467 676 524 667 517 683 z "},"ŧ":{"ha":519,"x_min":0,"x_max":0,"o":"m 318 657 b 339 789 325 704 332 749 b 306 822 342 814 328 828 l 219 803 b 186 769 200 800 189 789 b 164 636 179 733 172 688 l 97 626 b 47 583 71 622 54 613 b 86 540 39 547 54 536 l 149 547 b 133 451 144 515 139 483 l 67 451 b 36 418 46 451 36 440 b 67 385 36 396 46 385 l 124 385 b 96 165 110 290 99 207 b 251 -14 88 60 132 -14 b 447 139 364 -14 447 79 b 411 151 447 161 429 174 b 318 99 383 118 350 99 b 258 215 271 99 251 128 b 278 385 261 254 268 314 l 354 385 b 385 418 375 385 385 396 b 354 451 385 440 375 451 l 288 451 b 303 560 292 486 297 522 l 435 571 b 510 626 472 575 493 574 b 467 676 524 667 517 683 z "},"ť":{"ha":519,"x_min":0,"x_max":0,"o":"m 515 1026 b 440 953 482 1026 453 1004 b 390 739 435 935 404 794 b 410 713 388 722 394 713 b 565 958 451 713 557 897 b 515 1026 571 1003 549 1026 z m 318 657 b 339 789 325 704 332 749 b 306 822 342 814 328 828 l 219 803 b 186 769 200 800 189 789 b 164 636 179 733 172 688 l 97 626 b 47 583 71 622 54 613 b 86 540 39 547 54 536 l 149 547 b 96 165 125 396 100 231 b 251 -14 88 60 132 -14 b 447 139 364 -14 447 79 b 411 151 447 161 429 174 b 318 99 383 118 350 99 b 258 215 271 99 251 128 b 303 560 264 283 282 421 l 435 571 b 510 626 472 575 493 574 b 467 676 524 667 517 683 z "},"u":{"ha":872,"x_min":0,"x_max":0,"o":"m 781 139 b 718 100 761 139 744 100 b 696 158 696 100 690 121 l 768 642 b 735 675 772 663 758 682 l 644 651 b 608 617 626 647 613 639 l 586 479 b 331 82 546 229 429 82 b 258 290 233 82 243 188 l 311 640 b 281 678 315 665 303 678 b 167 649 256 678 213 667 b 81 583 92 619 81 604 b 131 488 81 546 142 567 l 97 251 b 283 -14 74 83 135 -14 b 538 149 385 -14 468 47 b 640 -11 525 26 575 -11 b 797 115 732 -11 793 61 b 781 139 799 132 789 139 z "},"ú":{"ha":872,"x_min":0,"x_max":0,"o":"m 433 757 b 675 858 497 733 651 793 b 618 949 692 904 667 949 b 514 889 588 949 554 922 b 417 785 464 844 424 803 b 433 757 413 774 415 763 z m 781 139 b 718 100 761 139 744 100 b 696 158 696 100 690 121 l 768 642 b 735 675 772 663 758 682 l 644 651 b 608 617 626 647 613 639 l 586 479 b 331 82 546 229 429 82 b 258 290 233 82 243 188 l 311 640 b 281 678 315 665 303 678 b 167 649 256 678 213 667 b 81 583 92 619 81 604 b 131 488 81 546 142 567 l 97 251 b 283 -14 74 83 135 -14 b 538 149 385 -14 468 47 b 640 -11 525 26 575 -11 b 797 115 732 -11 793 61 b 781 139 799 132 789 139 z "},"û":{"ha":872,"x_min":0,"x_max":0,"o":"m 357 740 b 522 836 394 739 471 790 b 663 740 561 790 622 739 b 685 761 678 742 683 750 b 632 869 686 776 658 821 b 539 950 594 936 593 950 b 417 864 492 950 476 932 b 339 761 376 818 342 776 b 357 740 338 750 340 742 z m 781 139 b 718 100 761 139 744 100 b 696 158 696 100 690 121 l 768 642 b 735 675 772 663 758 682 l 644 651 b 608 617 626 647 613 639 l 586 479 b 331 82 546 229 429 82 b 258 290 233 82 243 188 l 311 640 b 281 678 315 665 303 678 b 167 649 256 678 213 667 b 81 583 92 619 81 604 b 131 488 81 546 142 567 l 97 251 b 283 -14 74 83 135 -14 b 538 149 385 -14 468 47 b 640 -11 525 26 575 -11 b 797 115 732 -11 793 61 b 781 139 799 132 789 139 z "},"ü":{"ha":872,"x_min":0,"x_max":0,"o":"m 372 772 b 468 860 421 772 468 810 b 396 929 468 901 439 929 b 306 835 346 929 306 882 b 372 772 306 797 335 772 z m 588 772 b 682 860 636 772 682 810 b 611 929 682 901 653 929 b 521 835 560 929 521 882 b 588 772 521 797 550 772 z m 781 139 b 718 100 761 139 744 100 b 696 158 696 100 690 121 l 768 642 b 735 675 772 663 758 682 l 644 651 b 608 617 626 647 613 639 l 586 479 b 331 82 546 229 429 82 b 258 290 233 82 243 188 l 311 640 b 281 678 315 665 303 678 b 167 649 256 678 213 667 b 81 583 92 619 81 604 b 131 488 81 546 142 567 l 97 251 b 283 -14 74 83 135 -14 b 538 149 385 -14 468 47 b 640 -11 525 26 575 -11 b 797 115 732 -11 793 61 b 781 139 799 132 789 139 z "},"ù":{"ha":872,"x_min":0,"x_max":0,"o":"m 607 757 b 624 785 625 763 628 774 b 528 889 617 803 576 844 b 404 946 478 929 440 958 b 365 858 371 933 350 900 b 607 757 389 793 543 733 z m 781 139 b 718 100 761 139 744 100 b 696 158 696 100 690 121 l 768 642 b 735 675 772 663 758 682 l 644 651 b 608 617 626 647 613 639 l 586 479 b 331 82 546 229 429 82 b 258 290 233 82 243 188 l 311 640 b 281 678 315 665 303 678 b 167 649 256 678 213 667 b 81 583 92 619 81 604 b 131 488 81 546 142 567 l 97 251 b 283 -14 74 83 135 -14 b 538 149 385 -14 468 47 b 640 -11 525 26 575 -11 b 797 115 732 -11 793 61 b 781 139 799 132 789 139 z "},"ű":{"ha":872,"x_min":0,"x_max":0,"o":"m 386 740 b 557 899 446 740 557 838 b 499 961 557 939 529 961 b 413 875 464 961 442 925 b 364 760 386 824 364 776 b 386 740 364 749 369 740 z m 594 739 b 771 893 657 739 771 832 b 714 954 771 931 744 954 b 625 872 681 954 657 919 b 569 758 594 821 569 775 b 594 739 569 749 576 739 z m 781 139 b 718 100 761 139 744 100 b 696 158 696 100 690 121 l 768 642 b 735 675 772 663 758 682 l 644 651 b 608 617 626 647 613 639 l 586 479 b 331 82 546 229 429 82 b 258 290 233 82 243 188 l 311 640 b 281 678 315 665 303 678 b 167 649 256 678 213 667 b 81 583 92 619 81 604 b 131 488 81 546 142 567 l 97 251 b 283 -14 74 83 135 -14 b 538 149 385 -14 468 47 b 640 -11 525 26 575 -11 b 797 115 732 -11 793 61 b 781 139 799 132 789 139 z "},"ū":{"ha":872,"x_min":0,"x_max":0,"o":"m 647 761 b 710 804 696 761 701 769 b 669 842 718 832 715 842 l 354 842 b 294 800 310 842 304 833 b 332 761 286 771 289 761 z m 781 139 b 718 100 761 139 744 100 b 696 158 696 100 690 121 l 768 642 b 735 675 772 663 758 682 l 644 651 b 608 617 626 647 613 639 l 586 479 b 331 82 546 229 429 82 b 258 290 233 82 243 188 l 311 640 b 281 678 315 665 303 678 b 167 649 256 678 213 667 b 81 583 92 619 81 604 b 131 488 81 546 142 567 l 97 251 b 283 -14 74 83 135 -14 b 538 149 385 -14 468 47 b 640 -11 525 26 575 -11 b 797 115 732 -11 793 61 b 781 139 799 132 789 139 z "},"ģ":{"ha":751,"x_min":0,"x_max":0,"o":"m 432 728 b 518 803 475 728 511 760 b 483 872 522 836 508 854 b 458 918 463 889 456 901 b 493 974 461 936 472 953 b 438 967 513 993 478 1004 b 360 825 397 931 367 878 b 432 728 350 758 385 728 z m 704 782 b 649 750 681 782 665 768 b 528 674 603 696 560 674 b 431 679 497 674 482 679 l 429 679 b 82 399 242 679 82 550 b 167 246 82 333 113 281 b 36 118 81 214 42 164 b 106 -3 28 60 61 19 b -1 -122 42 -29 4 -79 b 288 -293 -19 -244 125 -293 b 719 -54 536 -293 700 -196 b 539 99 733 36 672 99 b 318 88 485 99 396 88 b 171 164 244 88 164 101 b 219 219 174 188 197 208 b 356 199 258 206 304 199 b 692 474 542 199 692 311 b 624 618 692 531 668 582 b 753 728 688 632 750 669 b 704 782 756 760 731 782 z m 376 264 b 242 414 289 264 242 329 b 408 615 242 518 310 615 b 536 463 493 615 536 544 b 376 264 536 364 475 264 z m 247 -37 b 464 -31 335 -39 400 -33 b 567 -107 556 -26 572 -68 b 332 -224 557 -182 467 -224 b 135 -115 206 -224 125 -186 b 247 -37 143 -62 199 -37 z "},"ķ":{"ha":771,"x_min":0,"x_max":0,"o":"m 696 128 b 635 94 678 128 663 94 b 457 303 565 94 492 219 b 697 546 596 351 697 432 b 542 679 697 636 622 679 b 290 542 447 679 357 628 l 349 953 b 318 989 351 978 340 989 b 203 961 293 989 256 983 b 115 899 129 933 115 917 b 174 803 115 861 185 878 l 61 22 b 97 -14 57 0 71 -19 l 185 6 b 219 39 201 10 217 21 l 250 257 b 335 271 279 261 307 265 b 565 -14 371 136 438 -14 b 714 104 656 -14 714 61 b 696 128 714 115 710 128 z m 263 346 b 467 576 283 454 371 576 b 551 500 521 576 551 542 b 260 326 550 406 414 338 z m 357 -69 b 272 -158 318 -69 272 -101 b 322 -271 272 -217 322 -232 b 265 -368 322 -318 265 -344 b 285 -382 265 -376 274 -382 b 440 -161 335 -382 440 -282 b 357 -69 440 -106 406 -69 z "},"ļ":{"ha":399,"x_min":0,"x_max":0,"o":"m 183 -11 b 336 115 271 -11 332 61 b 318 139 336 132 326 139 b 256 100 300 139 282 100 b 233 157 233 100 228 121 l 347 949 b 317 986 350 974 339 986 b 201 958 292 986 254 978 b 115 896 125 931 115 913 b 168 797 115 860 178 872 l 75 140 b 183 -11 60 39 96 -11 z m 75 -389 b 231 -168 125 -389 231 -289 b 147 -76 231 -112 196 -76 b 63 -165 108 -76 63 -108 b 113 -278 63 -224 113 -239 b 56 -375 113 -325 56 -351 b 75 -389 56 -383 64 -389 z "},"ņ":{"ha":876,"x_min":0,"x_max":0,"o":"m 796 139 b 735 100 778 139 761 100 b 713 157 711 100 710 121 l 728 431 b 554 678 739 586 683 678 b 272 476 440 678 342 601 l 297 640 b 267 676 301 665 289 676 b 167 649 242 676 213 668 b 81 583 92 618 81 604 b 131 483 81 546 142 563 l 64 22 b 96 -11 60 -3 74 -17 l 189 13 b 219 47 207 17 217 26 l 243 178 b 492 574 286 426 399 574 b 574 422 564 574 579 514 l 556 142 b 658 -11 549 44 581 -11 b 814 115 749 -11 810 61 b 796 139 815 132 806 139 z m 388 -69 b 303 -158 349 -69 303 -101 b 353 -271 303 -217 353 -232 b 296 -368 353 -318 296 -344 b 315 -382 296 -376 304 -382 b 471 -161 365 -382 471 -282 b 388 -69 471 -106 436 -69 z "},"ŗ":{"ha":600,"x_min":0,"x_max":0,"o":"m 501 679 b 283 533 424 679 339 617 l 297 640 b 267 676 301 665 289 676 b 167 649 242 676 213 668 b 81 583 92 618 81 604 b 131 483 81 546 142 563 l 63 18 b 96 -15 60 -4 74 -19 l 190 6 b 224 40 208 10 221 21 l 251 238 b 421 556 278 443 360 556 b 526 489 474 556 467 488 b 596 576 567 489 592 524 b 501 679 600 631 571 679 z m 118 -69 b 33 -158 79 -69 33 -101 b 83 -271 33 -217 83 -232 b 26 -368 83 -318 26 -344 b 46 -382 26 -376 35 -382 b 201 -161 96 -382 201 -282 b 118 -69 201 -106 167 -69 z "},"ţ":{"ha":519,"x_min":0,"x_max":0,"o":"m 318 657 b 339 789 325 704 332 749 b 306 822 342 814 328 828 l 219 803 b 186 769 200 800 189 789 b 164 636 179 733 172 688 l 97 626 b 47 583 71 622 54 613 b 86 540 39 547 54 536 l 149 547 b 96 165 125 396 100 231 b 215 -11 89 71 122 3 l 171 -93 b 188 -118 163 -107 174 -115 b 279 -190 231 -128 279 -144 b 218 -246 279 -219 260 -246 b 150 -225 188 -246 168 -235 b 124 -250 126 -210 110 -232 b 239 -296 142 -272 179 -296 b 371 -182 311 -296 371 -250 b 242 -72 371 -115 311 -85 l 272 -12 b 447 139 374 -3 447 83 b 411 151 447 161 429 174 b 318 99 383 118 350 99 b 258 215 271 99 251 128 b 303 560 264 283 282 421 l 435 571 b 510 626 472 575 493 574 b 467 676 524 667 517 683 z "},"ș":{"ha":660,"x_min":0,"x_max":0,"o":"m 307 -14 b 589 178 457 -14 568 65 b 394 400 607 279 525 342 b 243 539 283 450 232 481 b 349 610 249 575 290 610 b 507 535 410 610 463 578 b 585 483 549 496 564 478 b 601 543 604 490 610 504 b 579 611 594 569 589 586 b 379 681 556 669 444 681 b 94 504 256 681 115 629 b 271 278 74 389 165 325 b 432 129 379 229 443 189 b 326 58 426 92 388 58 b 101 196 246 58 168 99 b 51 228 82 221 69 233 b 29 183 33 224 25 208 b 57 61 38 132 46 99 b 307 -14 76 -4 211 -14 z m 201 -382 b 357 -161 251 -382 357 -282 b 274 -69 357 -106 322 -69 b 189 -158 235 -69 189 -101 b 239 -271 189 -217 239 -232 b 182 -368 239 -318 182 -344 b 201 -382 182 -376 190 -382 z "},"ț":{"ha":519,"x_min":0,"x_max":0,"o":"m 318 657 b 339 789 325 704 332 749 b 306 822 342 814 328 828 l 219 803 b 186 769 200 800 189 789 b 164 636 179 733 172 688 l 97 626 b 47 583 71 622 54 613 b 86 540 39 547 54 536 l 149 547 b 96 165 125 396 100 231 b 251 -14 88 60 132 -14 b 447 139 364 -14 447 79 b 411 151 447 161 429 174 b 318 99 383 118 350 99 b 258 215 271 99 251 128 b 303 560 264 283 282 421 l 435 571 b 510 626 472 575 493 574 b 467 676 524 667 517 683 z m 254 -69 b 169 -158 215 -69 169 -101 b 219 -271 169 -217 219 -232 b 163 -368 219 -318 163 -344 b 182 -382 163 -376 171 -382 b 338 -161 232 -382 338 -282 b 254 -69 338 -106 303 -69 z "},"ų":{"ha":872,"x_min":0,"x_max":0,"o":"m 797 115 b 781 139 799 132 789 139 b 718 100 761 139 744 100 b 696 158 696 100 690 121 l 768 642 b 735 675 772 663 758 682 l 644 651 b 608 617 626 647 613 639 l 586 479 b 331 82 546 229 429 82 b 258 290 233 82 243 188 l 311 640 b 281 678 315 665 303 678 b 167 649 256 678 213 667 b 81 583 92 619 81 604 b 131 488 81 546 142 567 l 97 251 b 283 -14 74 83 135 -14 b 538 149 385 -14 468 47 b 613 -8 526 46 561 3 b 531 -139 561 -47 531 -90 b 667 -251 531 -210 590 -251 b 783 -208 708 -251 754 -237 b 761 -178 800 -190 792 -164 b 707 -190 744 -185 722 -190 b 632 -118 657 -190 632 -161 b 682 -6 632 -86 646 -49 b 797 115 750 11 793 69 z "},"ů":{"ha":872,"x_min":0,"x_max":0,"o":"m 494 725 b 657 861 574 725 646 778 b 538 993 668 942 615 993 b 374 857 457 993 385 939 b 494 725 363 778 415 725 z m 524 932 b 583 864 561 932 583 903 b 510 790 579 824 551 790 b 447 858 471 790 447 818 b 524 932 451 901 481 932 z m 781 139 b 718 100 761 139 744 100 b 696 158 696 100 690 121 l 768 642 b 735 675 772 663 758 682 l 644 651 b 608 617 626 647 613 639 l 586 479 b 331 82 546 229 429 82 b 258 290 233 82 243 188 l 311 640 b 281 678 315 665 303 678 b 167 649 256 678 213 667 b 81 583 92 619 81 604 b 131 488 81 546 142 567 l 97 251 b 283 -14 74 83 135 -14 b 538 149 385 -14 468 47 b 640 -11 525 26 575 -11 b 797 115 732 -11 793 61 b 781 139 799 132 789 139 z "},"v":{"ha":715,"x_min":0,"x_max":0,"o":"m 260 -14 b 681 586 485 -14 681 301 b 599 682 681 632 661 682 b 494 588 547 682 494 636 b 551 414 494 526 551 511 b 335 93 551 276 436 93 b 257 275 263 93 239 150 l 307 640 b 276 678 311 665 299 678 b 165 649 251 678 211 667 b 78 583 89 619 78 604 b 128 488 78 546 139 567 l 97 251 b 260 -14 72 68 149 -14 z "},"w":{"ha":1126,"x_min":0,"x_max":0,"o":"m 1007 682 b 903 588 956 682 903 636 b 960 414 903 526 960 511 b 750 89 960 265 867 89 b 669 275 678 89 653 150 l 719 640 b 688 678 722 664 710 678 b 590 653 664 678 619 668 b 556 596 567 643 560 626 l 521 339 b 338 89 489 185 429 89 b 257 275 264 89 239 149 l 307 640 b 276 678 311 665 299 678 b 165 649 251 678 211 667 b 78 583 89 619 78 604 b 128 488 78 546 139 567 l 97 251 b 269 -14 72 68 154 -14 b 513 121 378 -14 457 39 b 697 -14 535 29 601 -14 b 1089 564 935 -14 1089 310 b 1007 682 1089 632 1069 682 z "},"":{"ha":1126,"x_min":0,"x_max":0,"o":"m 1007 682 b 903 588 956 682 903 636 b 960 414 903 526 960 511 b 750 89 960 265 867 89 b 669 275 678 89 653 150 l 719 640 b 688 678 722 664 710 678 b 590 653 664 678 619 668 b 556 596 567 643 560 626 l 521 339 b 338 89 489 185 429 89 b 257 275 264 89 239 149 l 307 640 b 276 678 311 665 299 678 b 165 649 251 678 211 667 b 78 583 89 619 78 604 b 128 488 78 546 139 567 l 97 251 b 269 -14 72 68 154 -14 b 513 121 378 -14 457 39 b 697 -14 535 29 601 -14 b 1089 564 935 -14 1089 310 b 1007 682 1089 632 1069 682 z "},"ẃ":{"ha":1126,"x_min":0,"x_max":0,"o":"m 568 757 b 810 858 632 733 786 793 b 753 949 826 904 801 949 b 649 889 722 949 689 922 b 551 785 599 844 558 803 b 568 757 547 774 550 763 z m 1007 682 b 903 588 956 682 903 636 b 960 414 903 526 960 511 b 750 89 960 265 867 89 b 669 275 678 89 653 150 l 719 640 b 688 678 722 664 710 678 b 590 653 664 678 619 668 b 556 596 567 643 560 626 l 521 339 b 338 89 489 185 429 89 b 257 275 264 89 239 149 l 307 640 b 276 678 311 665 299 678 b 165 649 251 678 211 667 b 78 583 89 619 78 604 b 128 488 78 546 139 567 l 97 251 b 269 -14 72 68 154 -14 b 513 121 378 -14 457 39 b 697 -14 535 29 601 -14 b 1089 564 935 -14 1089 310 b 1007 682 1089 632 1069 682 z "},"ŵ":{"ha":1126,"x_min":0,"x_max":0,"o":"m 492 740 b 657 836 529 739 606 790 b 797 740 696 790 757 739 b 819 761 813 742 818 750 b 767 869 821 776 793 821 b 674 950 729 936 728 950 b 551 864 626 950 611 932 b 474 761 511 818 476 776 b 492 740 472 750 475 742 z m 1007 682 b 903 588 956 682 903 636 b 960 414 903 526 960 511 b 750 89 960 265 867 89 b 669 275 678 89 653 150 l 719 640 b 688 678 722 664 710 678 b 590 653 664 678 619 668 b 556 596 567 643 560 626 l 521 339 b 338 89 489 185 429 89 b 257 275 264 89 239 149 l 307 640 b 276 678 311 665 299 678 b 165 649 251 678 211 667 b 78 583 89 619 78 604 b 128 488 78 546 139 567 l 97 251 b 269 -14 72 68 154 -14 b 513 121 378 -14 457 39 b 697 -14 535 29 601 -14 b 1089 564 935 -14 1089 310 b 1007 682 1089 632 1069 682 z "},"ẅ":{"ha":1126,"x_min":0,"x_max":0,"o":"m 507 772 b 603 860 556 772 603 810 b 531 929 603 901 574 929 b 440 835 481 929 440 882 b 507 772 440 797 469 772 z m 722 772 b 817 860 771 772 817 810 b 746 929 817 901 788 929 b 656 835 694 929 656 882 b 722 772 656 797 685 772 z m 1007 682 b 903 588 956 682 903 636 b 960 414 903 526 960 511 b 750 89 960 265 867 89 b 669 275 678 89 653 150 l 719 640 b 688 678 722 664 710 678 b 590 653 664 678 619 668 b 556 596 567 643 560 626 l 521 339 b 338 89 489 185 429 89 b 257 275 264 89 239 149 l 307 640 b 276 678 311 665 299 678 b 165 649 251 678 211 667 b 78 583 89 619 78 604 b 128 488 78 546 139 567 l 97 251 b 269 -14 72 68 154 -14 b 513 121 378 -14 457 39 b 697 -14 535 29 601 -14 b 1089 564 935 -14 1089 310 b 1007 682 1089 632 1069 682 z "},"ẁ":{"ha":1126,"x_min":0,"x_max":0,"o":"m 742 757 b 758 785 760 763 763 774 b 663 889 751 803 711 844 b 539 946 613 929 575 958 b 500 858 506 933 485 900 b 742 757 524 793 678 733 z m 1007 682 b 903 588 956 682 903 636 b 960 414 903 526 960 511 b 750 89 960 265 867 89 b 669 275 678 89 653 150 l 719 640 b 688 678 722 664 710 678 b 590 653 664 678 619 668 b 556 596 567 643 560 626 l 521 339 b 338 89 489 185 429 89 b 257 275 264 89 239 149 l 307 640 b 276 678 311 665 299 678 b 165 649 251 678 211 667 b 78 583 89 619 78 604 b 128 488 78 546 139 567 l 97 251 b 269 -14 72 68 154 -14 b 513 121 378 -14 457 39 b 697 -14 535 29 601 -14 b 1089 564 935 -14 1089 310 b 1007 682 1089 632 1069 682 z "},"x":{"ha":732,"x_min":0,"x_max":0,"o":"m 654 678 b 397 422 565 678 478 550 l 306 649 b 265 681 297 671 282 681 b 103 565 226 681 103 608 b 144 543 103 546 122 542 b 210 483 171 544 194 524 l 285 300 b 115 117 218 194 157 117 b 53 149 90 117 82 149 b -10 71 22 149 -10 115 b 72 -14 -10 28 15 -14 b 317 221 158 -14 236 94 l 349 142 b 500 -14 382 61 415 -14 b 658 89 571 -14 658 43 b 640 108 658 100 654 108 b 581 96 621 108 610 96 b 474 236 533 96 500 171 l 431 343 b 608 547 500 453 567 547 b 669 517 632 547 640 517 b 732 592 701 517 729 549 b 654 678 736 638 711 678 z "},"y":{"ha":729,"x_min":0,"x_max":0,"o":"m 610 682 b 506 588 558 682 506 636 b 563 414 506 526 563 511 b 429 63 563 308 503 181 b 256 640 381 272 325 453 b 207 679 246 665 231 679 b 35 565 161 679 35 610 b 72 540 35 550 49 540 b 143 490 111 539 128 529 b 276 68 200 347 249 194 b 288 -58 289 8 293 -25 b 150 -194 278 -131 221 -194 b 54 -124 89 -194 72 -162 b -18 -68 35 -82 8 -68 b -101 -165 -65 -68 -101 -107 b 61 -292 -101 -237 -49 -292 b 485 11 236 -292 371 -164 b 692 585 557 122 692 383 b 610 682 692 632 672 682 z "},"":{"ha":729,"x_min":0,"x_max":0,"o":"m 610 682 b 506 588 558 682 506 636 b 563 414 506 526 563 511 b 429 63 563 308 503 181 b 256 640 381 272 325 453 b 207 679 246 665 231 679 b 35 565 161 679 35 610 b 72 540 35 550 49 540 b 143 490 111 539 128 529 b 276 68 200 347 249 194 b 288 -58 289 8 293 -25 b 150 -194 278 -131 221 -194 b 54 -124 89 -194 72 -162 b -18 -68 35 -82 8 -68 b -101 -165 -65 -68 -101 -107 b 61 -292 -101 -237 -49 -292 b 485 11 236 -292 371 -164 b 692 585 557 122 692 383 b 610 682 692 632 672 682 z "},"ý":{"ha":729,"x_min":0,"x_max":0,"o":"m 342 751 b 583 853 406 728 560 788 b 526 943 600 899 575 943 b 422 883 496 943 463 917 b 325 779 372 839 332 797 b 342 751 321 768 324 757 z m 610 682 b 506 588 558 682 506 636 b 563 414 506 526 563 511 b 429 63 563 308 503 181 b 256 640 381 272 325 453 b 207 679 246 665 231 679 b 35 565 161 679 35 610 b 72 540 35 550 49 540 b 143 490 111 539 128 529 b 276 68 200 347 249 194 b 288 -58 289 8 293 -25 b 150 -194 278 -131 221 -194 b 54 -124 89 -194 72 -162 b -18 -68 35 -82 8 -68 b -101 -165 -65 -68 -101 -107 b 61 -292 -101 -237 -49 -292 b 485 11 236 -292 371 -164 b 692 585 557 122 692 383 b 610 682 692 632 672 682 z "},"ŷ":{"ha":729,"x_min":0,"x_max":0,"o":"m 264 735 b 429 831 301 733 378 785 b 569 735 468 785 529 733 b 592 756 585 736 590 744 b 539 864 593 771 565 815 b 446 944 501 931 500 944 b 324 858 399 944 383 926 b 246 756 283 813 249 771 b 264 735 244 744 247 736 z m 610 682 b 506 588 558 682 506 636 b 563 414 506 526 563 511 b 429 63 563 308 503 181 b 256 640 381 272 325 453 b 207 679 246 665 231 679 b 35 565 161 679 35 610 b 72 540 35 550 49 540 b 143 490 111 539 128 529 b 276 68 200 347 249 194 b 288 -58 289 8 293 -25 b 150 -194 278 -131 221 -194 b 54 -124 89 -194 72 -162 b -18 -68 35 -82 8 -68 b -101 -165 -65 -68 -101 -107 b 61 -292 -101 -237 -49 -292 b 485 11 236 -292 371 -164 b 692 585 557 122 692 383 b 610 682 692 632 672 682 z "},"ÿ":{"ha":729,"x_min":0,"x_max":0,"o":"m 279 767 b 375 854 328 767 375 804 b 303 924 375 896 346 924 b 213 829 253 924 213 876 b 279 767 213 792 242 767 z m 494 767 b 589 854 543 767 589 804 b 518 924 589 896 560 924 b 428 829 467 924 428 876 b 494 767 428 792 457 767 z m 610 682 b 506 588 558 682 506 636 b 563 414 506 526 563 511 b 429 63 563 308 503 181 b 256 640 381 272 325 453 b 207 679 246 665 231 679 b 35 565 161 679 35 610 b 72 540 35 550 49 540 b 143 490 111 539 128 529 b 276 68 200 347 249 194 b 288 -58 289 8 293 -25 b 150 -194 278 -131 221 -194 b 54 -124 89 -194 72 -162 b -18 -68 35 -82 8 -68 b -101 -165 -65 -68 -101 -107 b 61 -292 -101 -237 -49 -292 b 485 11 236 -292 371 -164 b 692 585 557 122 692 383 b 610 682 692 632 672 682 z "},"ỳ":{"ha":729,"x_min":0,"x_max":0,"o":"m 514 751 b 531 779 532 757 535 768 b 435 883 524 797 483 839 b 311 940 385 924 347 953 b 272 853 278 928 257 894 b 514 751 296 788 450 728 z m 610 682 b 506 588 558 682 506 636 b 563 414 506 526 563 511 b 429 63 563 308 503 181 b 256 640 381 272 325 453 b 207 679 246 665 231 679 b 35 565 161 679 35 610 b 72 540 35 550 49 540 b 143 490 111 539 128 529 b 276 68 200 347 249 194 b 288 -58 289 8 293 -25 b 150 -194 278 -131 221 -194 b 54 -124 89 -194 72 -162 b -18 -68 35 -82 8 -68 b -101 -165 -65 -68 -101 -107 b 61 -292 -101 -237 -49 -292 b 485 11 236 -292 371 -164 b 692 585 557 122 692 383 b 610 682 692 632 672 682 z "},"z":{"ha":694,"x_min":0,"x_max":0,"o":"m 460 -12 b 631 178 600 -12 631 113 b 613 213 631 197 629 213 b 467 132 581 213 563 135 b 218 140 407 131 288 151 l 639 581 b 678 651 657 597 678 628 b 654 678 678 667 671 678 b 528 658 618 678 606 658 b 238 679 436 658 331 679 b 103 510 150 679 107 583 b 121 464 101 478 106 464 b 229 533 149 464 154 533 b 478 524 300 533 392 515 l 58 92 b 18 19 36 69 18 44 b 43 -8 18 3 22 -8 b 158 8 71 -8 93 8 b 460 -12 217 8 367 -12 z "},"ź":{"ha":694,"x_min":0,"x_max":0,"o":"m 310 744 b 551 846 374 721 528 781 b 494 936 568 892 543 936 b 390 876 464 936 431 910 b 293 772 340 832 300 790 b 310 744 289 761 292 750 z m 460 -12 b 631 178 600 -12 631 113 b 613 213 631 197 629 213 b 467 132 581 213 563 135 b 218 140 407 131 288 151 l 639 581 b 678 651 657 597 678 628 b 654 678 678 667 671 678 b 528 658 618 678 606 658 b 238 679 436 658 331 679 b 103 510 150 679 107 583 b 121 464 101 478 106 464 b 229 533 149 464 154 533 b 478 524 300 533 392 515 l 58 92 b 18 19 36 69 18 44 b 43 -8 18 3 22 -8 b 158 8 71 -8 93 8 b 460 -12 217 8 367 -12 z "},"ž":{"ha":694,"x_min":0,"x_max":0,"o":"m 406 772 b 522 853 460 772 465 786 b 604 961 561 901 601 946 b 588 982 607 972 604 981 b 421 886 549 983 472 932 b 282 982 382 932 321 983 b 258 961 267 981 261 972 b 308 858 258 946 281 904 b 406 772 349 790 358 772 z m 460 -12 b 631 178 600 -12 631 113 b 613 213 631 197 629 213 b 467 132 581 213 563 135 b 218 140 407 131 288 151 l 639 581 b 678 651 657 597 678 628 b 654 678 678 667 671 678 b 528 658 618 678 606 658 b 238 679 436 658 331 679 b 103 510 150 679 107 583 b 121 464 101 478 106 464 b 229 533 149 464 154 533 b 478 524 300 533 392 515 l 58 92 b 18 19 36 69 18 44 b 43 -8 18 3 22 -8 b 158 8 71 -8 93 8 b 460 -12 217 8 367 -12 z "},"ż":{"ha":694,"x_min":0,"x_max":0,"o":"m 368 751 b 503 865 431 749 500 807 b 428 944 504 907 471 943 b 294 828 364 950 296 886 b 368 751 292 786 322 753 z m 460 -12 b 631 178 600 -12 631 113 b 613 213 631 197 629 213 b 467 132 581 213 563 135 b 218 140 407 131 288 151 l 639 581 b 678 651 657 597 678 628 b 654 678 678 667 671 678 b 528 658 618 678 606 658 b 238 679 436 658 331 679 b 103 510 150 679 107 583 b 121 464 101 478 106 464 b 229 533 149 464 154 533 b 478 524 300 533 392 515 l 58 92 b 18 19 36 69 18 44 b 43 -8 18 3 22 -8 b 158 8 71 -8 93 8 b 460 -12 217 8 367 -12 z "},"ª":{"ha":567,"x_min":0,"x_max":0,"o":"m 568 647 b 531 624 556 647 546 624 b 514 660 515 624 513 636 l 533 951 b 511 986 535 974 531 986 b 442 968 492 986 468 968 b 343 986 421 968 388 986 b 113 708 217 986 113 857 b 256 553 113 608 176 553 b 414 644 321 553 378 590 b 483 554 411 571 443 554 b 579 633 538 554 576 600 b 568 647 579 643 574 647 z m 297 619 b 215 738 257 619 215 650 b 343 942 217 824 261 942 b 431 840 392 942 435 906 l 428 814 b 297 619 422 713 364 619 z "},"º":{"ha":544,"x_min":0,"x_max":0,"o":"m 303 553 b 553 813 443 553 553 665 b 369 986 553 907 486 986 b 115 731 232 986 115 869 b 303 553 115 625 189 553 z m 314 600 b 218 736 247 600 218 660 b 357 940 218 828 268 940 b 444 810 422 940 444 879 b 314 600 444 714 397 600 z "},"А":{"ha":974,"x_min":0,"x_max":0,"o":"m 144 0 b 206 33 178 0 201 6 b 190 171 213 79 132 60 l 231 244 b 447 285 251 285 251 285 b 647 243 636 285 636 285 l 664 174 b 597 32 692 65 606 82 b 656 0 594 8 615 0 l 849 0 b 924 35 899 0 919 8 b 840 174 931 82 869 60 l 644 942 b 606 972 639 963 626 972 l 463 972 b 418 939 433 972 419 961 b 447 815 410 890 492 899 l 101 171 b -35 31 42 60 -28 79 b 26 0 -39 7 -14 0 z m 458 358 b 310 394 290 358 290 358 l 513 776 l 608 394 b 458 358 618 358 617 358 z "},"Б":{"ha":936,"x_min":0,"x_max":0,"o":"m 393 0 b 861 311 672 0 833 111 b 440 658 890 514 738 658 b 396 657 424 658 408 658 b 369 685 375 656 367 667 l 392 836 b 540 897 396 878 419 897 l 622 897 b 782 761 724 897 754 846 b 828 707 794 722 810 707 b 860 763 851 707 857 729 b 861 919 867 824 865 881 b 757 974 856 958 842 974 l 235 972 b 157 939 183 972 161 964 b 224 821 150 889 222 904 b 218 760 224 804 222 789 l 142 213 b 129 151 138 183 135 168 b 29 33 106 69 36 83 b 99 0 25 8 47 0 z m 397 74 b 290 117 304 74 286 86 l 350 550 b 411 588 354 579 367 589 b 688 288 585 586 713 467 b 397 74 667 136 551 74 z "},"В":{"ha":922,"x_min":0,"x_max":0,"o":"m 388 0 b 857 313 656 0 828 107 b 625 581 876 451 786 553 b 804 760 736 606 793 676 b 489 972 824 906 700 972 l 235 972 b 157 939 183 972 161 964 b 224 821 150 889 222 904 b 218 760 224 804 222 789 l 142 213 b 129 151 138 183 135 168 b 29 33 106 69 36 83 b 99 0 25 8 47 0 z m 436 613 b 364 642 400 613 360 611 l 393 847 b 472 897 399 889 425 897 b 638 739 586 897 651 831 b 436 613 626 654 568 613 z m 394 75 b 297 172 300 75 288 104 l 343 485 b 418 533 347 518 357 533 b 675 282 606 533 696 429 b 394 75 654 136 563 75 z "},"Г":{"ha":821,"x_min":0,"x_max":0,"o":"m 285 1 b 363 35 339 1 360 10 b 299 153 369 88 301 67 b 303 200 299 168 300 185 l 392 836 b 540 897 397 878 419 897 l 604 897 b 765 761 706 897 736 846 b 810 707 778 722 792 707 b 842 763 833 707 839 729 b 843 919 849 824 847 881 b 740 974 839 958 825 974 l 235 972 b 157 939 183 972 161 964 b 224 821 150 889 222 904 b 218 760 224 804 222 789 l 140 200 b 129 153 139 185 135 168 b 29 35 106 69 36 85 b 99 1 26 10 47 1 z "},"Ґ":{"ha":790,"x_min":0,"x_max":0,"o":"m 242 1 b 319 35 296 1 317 10 b 256 153 326 88 258 67 b 260 200 256 168 257 185 l 349 836 b 497 897 353 878 376 897 l 710 897 b 826 950 794 897 813 913 b 871 1108 843 990 860 1047 b 854 1164 876 1142 878 1164 b 794 1110 836 1164 818 1149 b 594 974 742 1025 696 974 l 192 972 b 114 939 140 972 118 964 b 181 821 107 889 179 904 b 175 760 181 804 179 789 l 97 200 b 86 153 94 185 92 168 b -14 35 63 69 -7 85 b 56 1 -17 10 4 1 z "},"Д":{"ha":1008,"x_min":0,"x_max":0,"o":"m -67 -183 b -1 -131 -43 -183 -25 -167 b 188 -1 53 -47 104 -1 l 685 0 b 836 -129 767 0 806 -47 b 886 -182 850 -167 863 -182 b 926 -128 914 -182 922 -158 b 928 22 933 -64 933 -17 b 828 76 922 60 908 76 b 792 133 789 76 785 82 l 879 760 b 893 821 883 789 888 804 b 992 939 917 904 985 889 b 924 972 996 964 974 972 l 360 972 b 275 935 294 972 279 963 b 342 799 268 883 357 897 b 119 118 317 618 251 340 b 49 75 101 88 78 75 b -50 22 -15 75 -35 58 b -90 -129 -67 -18 -79 -65 b -67 -183 -96 -160 -94 -183 z m 197 75 b 442 831 326 344 367 503 b 600 897 454 889 511 897 b 728 836 715 897 733 878 l 622 76 z "},"Е":{"ha":878,"x_min":0,"x_max":0,"o":"m 643 0 b 765 53 731 0 750 17 b 810 213 782 93 796 140 b 793 268 815 243 817 263 b 726 214 772 272 754 261 b 529 76 671 122 638 76 l 429 75 b 293 142 303 74 286 94 l 339 469 b 471 538 349 532 385 538 b 665 407 617 536 604 393 b 692 476 689 414 697 425 l 682 614 b 649 657 679 643 669 657 b 481 611 604 657 614 611 b 369 679 396 611 361 617 l 390 833 b 542 897 397 878 419 897 l 604 897 b 797 765 708 897 760 853 b 853 722 814 729 826 715 b 879 782 876 729 881 750 b 864 928 879 843 872 890 b 763 974 857 965 843 974 l 235 972 b 157 939 183 972 161 967 b 218 760 149 876 242 926 l 142 213 b 29 33 118 46 38 96 b 97 0 25 6 46 0 z "},"Ё":{"ha":878,"x_min":0,"x_max":0,"o":"m 426 1071 b 522 1157 476 1071 522 1107 b 451 1226 522 1199 493 1226 b 361 1132 400 1226 361 1179 b 426 1071 361 1094 390 1071 z m 642 1071 b 738 1157 690 1071 738 1107 b 665 1226 738 1199 707 1226 b 575 1132 615 1226 575 1179 b 642 1071 575 1094 604 1071 z m 643 0 b 765 53 731 0 750 17 b 810 213 782 93 796 140 b 793 268 815 243 817 263 b 726 214 772 272 754 261 b 529 76 671 122 638 76 l 429 75 b 293 142 303 74 286 94 l 339 469 b 471 538 349 532 385 538 b 665 407 617 536 604 393 b 692 476 689 414 697 425 l 682 614 b 649 657 679 643 669 657 b 481 611 604 657 614 611 b 369 679 396 611 361 617 l 390 833 b 542 897 397 878 419 897 l 604 897 b 797 765 708 897 760 853 b 853 722 814 729 826 715 b 879 782 876 729 881 750 b 864 928 879 843 872 890 b 763 974 857 965 843 974 l 235 972 b 157 939 183 972 161 967 b 218 760 149 876 242 926 l 142 213 b 29 33 118 46 38 96 b 97 0 25 6 46 0 z "},"Ж":{"ha":1517,"x_min":0,"x_max":0,"o":"m 254 0 b 306 28 285 0 304 10 b 300 157 311 68 246 71 l 526 522 l 668 322 l 647 167 b 561 29 633 71 567 69 b 621 0 558 8 575 0 l 790 0 b 856 28 833 0 853 7 b 810 167 861 69 796 69 l 831 318 l 1039 529 l 1165 157 b 1122 28 1196 71 1129 68 b 1168 0 1121 10 1136 0 l 1392 0 b 1450 29 1422 0 1447 8 b 1344 161 1456 68 1381 61 l 1167 656 l 1335 825 b 1492 944 1414 904 1486 903 b 1429 972 1493 964 1478 972 l 1281 972 b 1224 944 1244 972 1225 965 b 1224 825 1217 904 1301 904 l 847 442 l 899 806 b 983 943 913 901 978 901 b 925 971 986 964 971 971 l 756 971 b 690 943 711 971 692 964 b 736 806 683 903 750 903 l 685 446 l 419 825 b 454 944 365 904 447 904 b 404 972 456 965 439 972 l 256 972 b 186 944 207 972 188 964 b 308 825 181 903 253 904 l 435 649 l 122 161 b -21 29 58 61 -14 68 b 29 0 -22 8 -1 0 z "},"З":{"ha":789,"x_min":0,"x_max":0,"o":"m 285 -12 b 724 278 507 -17 696 81 b 504 538 742 404 669 507 b 738 771 625 567 724 658 b 488 985 756 919 631 985 b 313 967 397 985 349 967 b 249 985 279 967 274 985 b 185 911 222 985 206 971 b 140 753 168 867 150 808 b 157 699 133 719 133 699 b 224 750 179 699 196 713 b 451 908 276 821 342 908 b 565 772 528 908 578 860 b 313 572 551 663 476 588 b 301 496 258 567 251 497 b 549 258 506 489 567 392 b 328 65 531 139 440 65 b 115 232 215 65 147 136 b 74 286 103 268 93 283 b 38 242 51 288 39 268 b 40 106 31 167 38 140 b 140 6 47 43 83 21 b 285 -12 182 -6 226 -11 z "},"И":{"ha":1149,"x_min":0,"x_max":0,"o":"m 285 0 b 363 33 338 0 358 8 b 300 196 371 94 282 58 l 876 694 l 807 200 b 697 35 790 75 706 93 b 765 1 694 10 715 1 l 953 1 b 1029 35 1006 1 1026 10 b 969 200 1039 99 951 56 l 1049 772 b 1160 938 1068 903 1151 881 b 1092 971 1163 964 1142 971 l 904 971 b 826 938 851 971 829 964 b 889 797 821 888 903 903 l 315 300 l 382 772 b 492 938 400 904 483 881 b 424 971 494 964 474 971 l 236 971 b 160 938 183 971 163 964 b 219 772 150 879 239 911 l 140 200 b 29 33 122 74 38 93 b 97 0 26 8 47 0 z "},"Й":{"ha":1149,"x_min":0,"x_max":0,"o":"m 671 1046 b 911 1194 786 1046 899 1104 b 867 1247 915 1224 896 1247 b 679 1107 788 1247 772 1107 b 531 1247 585 1107 608 1247 b 469 1194 501 1247 475 1224 b 671 1046 457 1106 546 1046 z m 285 0 b 363 33 338 0 358 8 b 300 196 371 94 282 58 l 876 694 l 807 200 b 697 35 790 75 706 93 b 765 1 694 10 715 1 l 953 1 b 1029 35 1006 1 1026 10 b 969 200 1039 99 951 56 l 1049 772 b 1160 938 1068 903 1151 881 b 1092 971 1163 964 1142 971 l 904 971 b 826 938 851 971 829 964 b 889 797 821 888 903 903 l 315 300 l 382 772 b 492 938 400 904 483 881 b 424 971 494 964 474 971 l 236 971 b 160 938 183 971 163 964 b 219 772 150 879 239 911 l 140 200 b 29 33 122 74 38 93 b 97 0 26 8 47 0 z "},"К":{"ha":986,"x_min":0,"x_max":0,"o":"m 790 972 b 732 938 757 972 736 964 b 733 821 725 889 824 896 l 343 500 l 381 772 b 492 938 399 899 483 879 b 422 971 494 964 474 971 l 236 971 b 158 938 182 971 163 964 b 219 772 149 874 238 913 l 139 200 b 29 35 121 74 36 93 b 97 1 25 10 46 1 l 283 1 b 363 35 338 1 358 10 b 301 200 369 99 281 60 l 328 394 l 581 603 l 710 167 b 660 36 738 79 665 78 b 729 0 656 8 678 0 l 911 0 b 978 33 954 0 974 8 b 883 171 985 86 918 64 l 715 711 l 847 821 b 1018 939 957 911 1011 885 b 949 972 1022 964 999 972 z "},"Л":{"ha":1015,"x_min":0,"x_max":0,"o":"m 78 -14 b 238 57 135 -14 189 3 b 479 831 361 192 419 535 b 642 897 492 889 544 897 b 768 836 751 897 772 878 l 678 200 b 667 153 675 185 672 168 b 568 35 643 69 575 85 b 636 1 565 10 586 1 l 824 1 b 900 35 876 1 897 10 b 838 153 908 88 839 67 b 840 200 838 168 838 185 l 925 806 b 1019 944 939 901 1014 903 b 949 972 1022 964 1007 972 l 406 972 b 328 944 347 972 329 964 b 388 799 321 901 403 900 b 147 111 342 468 238 111 b 47 194 94 111 114 194 b -42 107 10 194 -32 165 b 78 -14 -53 21 18 -14 z "},"М":{"ha":1274,"x_min":0,"x_max":0,"o":"m 194 0 b 263 32 238 0 258 6 b 213 169 269 79 194 67 l 317 757 l 503 78 b 551 60 508 63 522 53 b 599 93 576 65 588 75 l 1004 765 l 938 190 b 838 35 924 74 844 93 b 904 0 832 8 854 0 l 1088 0 b 1160 35 1136 0 1156 8 b 1096 190 1168 97 1083 69 l 1161 803 b 1253 940 1172 906 1246 890 b 1197 972 1256 964 1240 972 l 1069 972 b 1019 942 1047 972 1032 963 l 619 275 l 433 942 b 390 972 426 963 413 972 l 254 972 b 190 940 211 972 193 964 b 243 803 183 893 261 899 l 129 169 b 28 33 110 67 33 79 b 86 0 24 7 43 0 z "},"Н":{"ha":1136,"x_min":0,"x_max":0,"o":"m 285 0 b 363 33 338 0 358 8 b 299 151 369 86 300 65 b 301 199 299 168 300 183 l 331 411 b 592 479 340 479 340 479 b 825 411 835 479 835 479 l 796 199 b 785 151 794 183 790 168 b 685 33 761 69 692 83 b 754 0 682 8 703 0 l 940 0 b 1018 33 994 0 1015 8 b 954 151 1025 86 957 65 b 958 199 954 168 956 183 l 1038 774 b 1049 821 1039 789 1043 804 b 1149 939 1072 904 1142 889 b 1079 972 1151 964 1131 972 l 893 972 b 815 939 839 972 818 964 b 879 821 808 886 876 907 b 875 774 879 804 878 789 l 854 622 b 604 554 844 554 844 554 b 361 622 351 554 351 554 l 382 774 b 393 821 383 789 388 804 b 492 939 417 904 485 889 b 424 972 494 964 474 972 l 236 972 b 160 939 183 972 163 964 b 222 821 151 886 221 907 b 219 774 222 804 221 789 l 140 199 b 128 151 138 183 133 168 b 29 33 104 69 36 83 b 97 0 26 8 47 0 z "},"О":{"ha":1078,"x_min":0,"x_max":0,"o":"m 492 -10 b 1051 569 815 -18 1051 246 b 635 983 1051 793 901 983 b 71 411 318 983 71 721 b 492 -10 71 161 261 -6 z m 539 78 b 244 425 357 78 244 215 b 607 901 244 668 390 901 b 875 554 779 901 875 760 b 539 78 875 319 757 78 z "},"П":{"ha":1089,"x_min":0,"x_max":0,"o":"m 285 1 b 363 35 339 1 360 10 b 299 153 369 88 301 67 b 303 200 299 169 300 185 l 390 833 b 628 896 397 878 418 896 b 838 833 824 896 844 878 l 750 200 b 738 153 747 185 743 169 b 639 35 714 71 646 85 b 707 1 636 10 657 1 l 894 1 b 972 35 949 1 969 10 b 908 153 979 88 911 67 b 911 200 908 169 908 185 l 990 760 b 1003 821 994 789 997 804 b 1101 939 1026 904 1094 889 b 1033 972 1106 964 1085 972 l 235 972 b 157 939 183 972 161 964 b 224 821 150 889 222 904 b 218 760 224 804 222 789 l 140 200 b 129 153 138 185 135 169 b 29 35 106 71 36 85 b 99 1 26 10 47 1 z "},"Р":{"ha":913,"x_min":0,"x_max":0,"o":"m 285 1 b 363 35 339 1 360 10 b 301 179 371 92 290 67 b 313 275 304 210 308 243 b 344 303 317 301 319 303 l 435 303 b 903 619 714 303 874 414 b 490 972 931 819 788 972 l 235 972 b 157 939 183 972 161 964 b 218 760 147 878 242 928 l 140 200 b 29 35 119 60 38 93 b 99 1 26 10 47 1 z m 439 375 b 332 418 347 375 328 389 l 394 863 b 478 900 399 892 411 900 b 729 596 646 900 756 779 b 439 375 707 438 593 375 z "},"С":{"ha":964,"x_min":0,"x_max":0,"o":"m 494 -14 b 888 176 683 -14 831 93 b 854 222 918 219 889 256 b 557 90 772 146 682 90 b 254 539 335 90 221 290 b 611 901 282 735 419 901 b 865 724 765 901 817 810 b 925 669 886 686 899 668 b 960 725 953 671 958 692 b 950 911 958 807 954 865 b 904 983 944 969 931 983 b 836 965 879 983 869 965 b 665 986 800 965 756 986 b 76 494 368 986 118 785 b 494 -14 36 206 210 -14 z "},"Т":{"ha":903,"x_min":0,"x_max":0,"o":"m 497 1 b 575 35 550 1 571 10 b 511 153 582 88 513 67 b 514 200 511 168 511 185 l 603 831 b 681 896 610 875 631 896 b 832 760 781 896 797 850 b 876 707 846 722 857 707 b 915 761 904 707 911 731 b 918 919 924 833 924 881 b 810 974 913 957 897 974 l 271 972 b 150 919 185 972 165 956 b 108 760 133 879 119 832 b 132 706 103 729 104 706 b 190 760 151 706 167 722 b 382 894 251 850 282 894 b 440 829 431 894 446 874 l 353 200 b 340 153 350 185 346 168 b 242 35 317 69 249 85 b 310 1 239 10 260 1 z "},"У":{"ha":919,"x_min":0,"x_max":0,"o":"m 208 -14 b 508 258 306 -14 382 43 l 831 801 b 971 940 896 911 964 892 b 910 971 974 964 949 971 l 792 971 b 731 938 758 971 733 965 b 742 801 724 892 806 911 l 517 418 l 357 814 b 408 943 324 899 403 903 b 349 972 410 964 394 972 l 147 972 b 90 944 111 972 92 965 b 169 814 83 903 136 899 l 399 254 b 397 228 403 244 403 238 b 276 110 354 153 317 110 b 181 178 228 110 246 178 b 94 93 143 178 103 142 b 208 -14 83 13 158 -14 z "},"Ф":{"ha":1153,"x_min":0,"x_max":0,"o":"m 621 0 b 699 33 674 0 694 8 b 633 169 706 88 619 51 b 650 185 635 181 639 186 b 742 181 683 182 708 181 b 1114 492 924 181 1088 307 b 838 796 1138 667 1025 796 b 732 792 801 796 772 794 b 722 807 722 790 719 796 b 828 939 746 915 821 885 b 760 972 832 964 810 972 l 572 972 b 496 939 518 972 499 964 b 561 806 488 883 569 919 b 546 790 560 794 554 789 b 443 796 507 794 475 796 b 82 492 267 796 107 671 b 367 181 56 311 179 181 b 460 183 396 181 425 182 b 469 168 468 185 472 179 b 365 33 451 56 374 88 b 433 0 361 8 382 0 z m 433 250 b 243 488 300 250 225 351 b 501 725 264 631 349 725 b 549 721 517 725 533 724 l 483 256 b 433 250 468 253 449 250 z m 697 250 b 644 254 681 250 663 251 l 711 722 b 760 725 726 724 744 725 b 949 488 911 725 969 631 b 697 250 931 350 832 250 z "},"Х":{"ha":1011,"x_min":0,"x_max":0,"o":"m 149 1 b 210 35 181 1 207 7 b 221 153 217 81 140 60 l 447 418 l 603 163 b 564 33 660 69 571 81 b 619 1 561 8 583 1 l 846 1 b 917 35 889 1 914 7 b 803 163 924 81 863 65 l 589 514 l 854 818 b 1015 940 936 913 1007 892 b 954 971 1017 964 993 971 l 829 971 b 768 938 797 971 772 965 b 757 818 763 892 839 913 l 549 579 l 410 810 b 449 939 353 903 440 892 b 392 971 450 964 429 971 l 167 971 b 94 938 122 971 99 965 b 208 810 89 892 150 907 l 407 483 l 124 154 b -36 32 43 60 -29 81 b 25 1 -39 8 -15 1 z "},"Ч":{"ha":1006,"x_min":0,"x_max":0,"o":"m 810 1 b 886 35 863 1 883 10 b 824 153 894 88 825 67 b 826 200 824 168 824 185 l 906 772 b 918 819 908 789 913 804 b 1017 938 942 903 1010 888 b 949 971 1019 964 999 971 l 761 971 b 683 938 708 971 688 964 b 747 819 676 885 746 907 b 744 772 747 804 747 789 l 699 447 b 457 421 610 431 518 421 b 299 708 272 421 274 549 l 307 771 b 319 818 310 786 314 801 b 418 936 343 901 411 886 b 350 969 422 961 401 969 l 163 969 b 85 936 110 969 89 961 b 149 818 78 883 147 904 b 146 771 149 801 149 786 l 133 679 b 407 343 107 501 136 343 b 689 371 472 343 578 353 l 664 200 b 653 153 661 185 658 168 b 554 35 629 69 561 85 b 622 1 551 10 572 1 z "},"Ц":{"ha":1111,"x_min":0,"x_max":0,"o":"m 990 -182 b 1029 -128 1018 -182 1026 -158 b 1031 22 1036 -64 1036 -17 b 947 76 1026 60 1013 76 b 901 133 913 76 897 96 l 990 772 b 1003 819 993 789 997 804 b 1101 938 1026 903 1094 888 b 1033 971 1104 964 1083 971 l 846 971 b 768 938 792 971 771 964 b 832 819 761 885 829 907 b 829 772 832 804 832 789 l 740 139 b 511 76 733 94 713 76 b 293 139 307 76 286 94 l 382 772 b 393 819 385 789 388 804 b 492 938 417 903 485 888 b 424 971 494 964 474 971 l 236 971 b 160 938 183 971 163 964 b 222 819 151 885 221 907 b 219 772 222 804 222 789 l 142 213 b 128 151 138 183 133 168 b 29 33 104 69 36 83 b 97 0 25 8 47 0 l 789 0 b 940 -129 871 0 908 -47 b 990 -182 954 -167 965 -182 z "},"Ш":{"ha":1533,"x_min":0,"x_max":0,"o":"m 1339 0 b 1417 33 1390 0 1413 8 b 1350 151 1424 83 1351 69 b 1356 213 1350 168 1351 183 l 1433 772 b 1444 819 1436 789 1439 804 b 1544 938 1468 903 1538 888 b 1475 971 1547 964 1526 971 l 1289 971 b 1211 938 1235 971 1214 964 b 1275 819 1204 885 1272 907 b 1271 772 1275 804 1274 789 l 1183 139 b 994 76 1176 94 1156 76 b 819 139 833 76 813 94 l 907 772 b 919 819 910 789 914 804 b 1018 938 943 903 1011 888 b 950 971 1021 964 1000 971 l 763 971 b 685 938 708 971 688 964 b 749 819 678 885 746 907 b 746 772 749 804 749 789 l 657 139 b 469 76 650 94 629 76 b 293 139 307 76 286 94 l 382 772 b 393 819 385 789 388 804 b 492 938 417 903 485 888 b 424 971 494 964 474 971 l 236 971 b 160 938 183 971 163 964 b 222 819 151 885 221 907 b 219 772 222 804 222 789 l 142 213 b 128 151 138 183 133 168 b 29 33 104 69 36 83 b 97 0 25 8 47 0 z "},"Щ":{"ha":1554,"x_min":0,"x_max":0,"o":"m 1433 -182 b 1472 -128 1461 -182 1469 -158 b 1474 22 1479 -64 1479 -17 b 1390 76 1469 60 1454 76 b 1344 133 1356 76 1339 96 l 1433 772 b 1444 819 1436 789 1439 804 b 1544 938 1468 903 1538 888 b 1475 971 1547 964 1526 971 l 1289 971 b 1211 938 1235 971 1214 964 b 1275 819 1204 885 1272 907 b 1271 772 1275 804 1274 789 l 1183 139 b 994 76 1176 94 1156 76 b 819 139 833 76 813 94 l 907 772 b 919 819 910 789 914 804 b 1018 938 943 903 1011 888 b 950 971 1021 964 1000 971 l 763 971 b 685 938 708 971 688 964 b 749 819 678 885 746 907 b 746 772 749 804 749 789 l 657 139 b 469 76 650 94 629 76 b 293 139 307 76 286 94 l 382 772 b 393 819 385 789 388 804 b 492 938 417 903 485 888 b 424 971 494 964 474 971 l 236 971 b 160 938 183 971 163 964 b 222 819 151 885 221 907 b 219 772 222 804 222 789 l 142 213 b 128 151 138 183 133 168 b 29 33 104 69 36 83 b 97 0 25 8 47 0 l 1231 0 b 1382 -129 1313 0 1351 -47 b 1433 -182 1396 -167 1408 -182 z "},"Ь":{"ha":882,"x_min":0,"x_max":0,"o":"m 393 0 b 860 311 671 0 832 111 b 440 658 889 514 738 658 b 394 657 424 658 408 658 b 369 685 375 656 367 667 l 382 772 b 393 819 385 789 388 804 b 492 938 417 903 485 888 b 424 971 494 964 474 971 l 236 971 b 160 938 183 971 163 964 b 222 819 151 885 221 907 b 219 772 222 804 222 789 l 142 213 b 128 151 138 183 133 168 b 29 33 104 69 36 83 b 97 0 25 8 47 0 z m 396 72 b 289 114 303 72 285 85 l 350 550 b 411 588 354 579 367 589 b 688 288 585 586 711 467 b 396 72 665 136 550 72 z "},"Ы":{"ha":1339,"x_min":0,"x_max":0,"o":"m 393 0 b 860 311 671 0 832 111 b 440 658 889 514 738 658 b 394 657 424 658 408 658 b 369 685 375 656 367 667 l 382 772 b 393 819 385 789 388 804 b 492 938 417 903 485 888 b 424 971 494 964 474 971 l 236 971 b 160 938 183 971 163 964 b 222 819 151 885 221 907 b 219 772 222 804 222 789 l 142 213 b 128 151 138 183 133 168 b 29 33 104 69 36 83 b 97 0 25 8 47 0 z m 1143 1 b 1221 35 1197 1 1218 10 b 1157 153 1228 88 1160 67 b 1160 200 1157 168 1157 185 l 1240 772 b 1251 819 1243 789 1246 804 b 1350 938 1275 903 1343 888 b 1282 971 1354 964 1333 971 l 1094 971 b 1018 938 1042 971 1021 964 b 1081 819 1011 885 1079 907 b 1078 772 1081 804 1081 789 l 999 200 b 986 153 996 185 992 168 b 888 35 963 69 894 85 b 956 1 885 10 906 1 z m 396 72 b 289 114 303 72 285 85 l 350 550 b 411 588 354 579 367 589 b 688 288 585 586 711 467 b 396 72 665 136 550 72 z "},"Ъ":{"ha":1010,"x_min":0,"x_max":0,"o":"m 521 0 b 988 311 799 0 961 111 b 568 658 1017 514 865 658 b 522 657 551 658 536 658 b 497 685 503 656 494 667 l 508 760 b 521 821 513 789 515 804 b 621 939 544 904 613 889 b 551 972 624 964 603 972 l 210 972 b 88 919 119 972 101 956 b 39 738 71 879 51 811 b 60 683 33 704 35 683 b 115 736 79 683 93 697 b 297 897 171 829 214 897 b 354 819 329 897 364 892 l 269 215 b 257 154 265 185 261 169 b 158 35 233 71 165 86 b 225 0 154 10 175 0 z m 525 74 b 418 117 432 74 414 86 l 478 550 b 539 588 482 579 494 589 b 815 288 713 586 840 467 b 525 74 794 136 679 74 z "},"Є":{"ha":943,"x_min":0,"x_max":0,"o":"m 469 -14 b 863 161 667 -14 807 81 b 832 213 894 207 871 240 b 553 111 753 154 668 111 b 250 467 363 111 244 256 b 413 414 307 432 361 414 b 618 486 496 414 549 486 b 758 431 676 486 725 431 b 797 461 783 431 794 446 b 597 594 803 506 682 594 b 364 515 521 594 450 515 b 257 549 332 515 299 524 b 604 904 288 743 413 904 b 858 724 757 904 813 810 b 908 669 878 686 886 669 b 942 725 933 669 939 692 b 935 911 943 807 939 865 b 889 983 929 969 915 983 b 822 965 864 983 854 965 b 650 986 785 965 740 986 b 76 492 347 986 118 782 b 469 -14 36 203 199 -14 z "},"Э":{"ha":936,"x_min":0,"x_max":0,"o":"m 324 -11 b 907 503 638 -14 865 207 b 503 986 946 779 788 986 b 290 965 389 986 326 965 b 225 983 257 965 250 983 b 161 911 200 983 182 969 b 111 725 144 865 125 807 b 131 669 106 692 106 669 b 193 725 153 669 165 686 b 490 914 256 810 336 914 b 736 547 671 914 751 756 b 619 515 689 524 651 515 b 410 594 535 515 486 594 b 172 461 326 594 179 506 b 203 431 171 446 178 431 b 358 486 236 431 300 486 b 544 414 429 486 461 414 b 726 469 597 414 658 433 b 381 67 690 271 567 67 b 131 232 246 67 169 144 b 83 290 113 271 103 288 b 46 246 61 292 47 272 b 49 110 39 171 46 144 b 149 10 56 47 92 25 b 324 -11 190 -1 251 -11 z "},"І":{"ha":478,"x_min":0,"x_max":0,"o":"m 285 1 b 363 35 338 1 358 10 b 299 153 369 88 300 67 b 301 200 299 168 299 185 l 382 772 b 393 819 385 789 388 804 b 492 938 417 903 485 888 b 424 971 494 964 474 971 l 236 971 b 160 938 183 971 163 964 b 222 819 151 885 221 907 b 219 772 222 804 222 789 l 140 200 b 128 153 138 185 133 168 b 29 35 104 69 36 85 b 97 1 26 10 47 1 z "},"Ї":{"ha":436,"x_min":0,"x_max":0,"o":"m 199 1071 b 307 1157 247 1071 300 1107 b 244 1226 313 1199 288 1226 b 140 1132 194 1226 149 1179 b 199 1071 136 1094 161 1071 z m 414 1071 b 521 1157 463 1071 514 1107 b 460 1226 526 1199 501 1226 b 356 1132 408 1226 363 1179 b 414 1071 350 1094 375 1071 z m 242 1 b 319 35 296 1 317 10 b 256 153 326 88 258 67 b 260 200 256 168 257 185 l 339 772 b 350 819 342 789 344 804 b 450 938 374 903 443 888 b 381 971 453 964 432 971 l 194 971 b 117 938 140 971 119 964 b 181 819 110 885 178 907 b 176 772 181 804 179 789 l 97 200 b 86 153 94 185 92 168 b -14 35 63 69 -7 85 b 56 1 -17 10 4 1 z "},"Ю":{"ha":1497,"x_min":0,"x_max":0,"o":"m 1054 983 b 504 528 778 983 556 783 l 347 528 l 381 772 b 492 938 399 899 483 879 b 422 971 494 964 474 971 l 236 971 b 158 938 182 971 163 964 b 219 772 149 874 238 913 l 139 200 b 29 35 121 74 36 93 b 97 1 25 10 46 1 l 283 1 b 363 35 338 1 358 10 b 301 200 369 99 281 60 l 336 453 l 493 453 b 492 411 492 439 492 425 b 913 -10 492 161 682 -6 b 1471 569 1235 -18 1471 246 b 1054 983 1471 793 1322 983 z m 958 78 b 665 425 776 78 665 215 b 1026 901 665 668 811 901 b 1296 554 1200 901 1296 760 b 958 78 1296 319 1176 78 z "},"Я":{"ha":933,"x_min":0,"x_max":0,"o":"m 228 0 b 300 36 272 0 296 8 b 290 167 306 78 236 82 l 397 329 b 492 322 426 325 458 322 l 582 322 b 606 294 607 322 610 321 l 593 200 b 582 153 590 185 588 168 b 485 35 556 67 492 88 b 554 1 482 10 500 1 l 740 1 b 818 35 792 1 815 10 b 751 153 825 85 753 69 b 756 200 751 168 753 185 l 833 760 b 846 821 838 789 840 804 b 946 939 869 904 939 889 b 876 972 949 964 928 972 l 631 972 b 125 625 336 972 154 826 b 260 369 111 514 154 421 l 121 161 b -8 33 57 65 -1 86 b 50 0 -12 8 7 0 z m 507 396 b 300 654 369 396 278 494 b 594 900 322 811 435 900 b 649 896 613 900 631 899 b 685 858 679 892 689 888 l 626 438 b 507 396 622 408 600 396 z "},"а":{"ha":856,"x_min":0,"x_max":0,"o":"m 776 139 b 715 100 757 139 740 100 b 690 157 692 100 688 121 l 721 625 b 686 681 724 660 715 681 b 575 651 654 681 615 651 b 417 679 540 651 486 679 b 47 235 214 679 47 474 b 276 -14 47 76 150 -14 b 529 133 379 -14 472 47 b 640 -11 525 15 576 -11 b 793 115 728 -11 789 61 b 776 139 794 132 785 139 z m 343 94 b 213 283 278 94 213 142 b 417 608 214 419 285 608 b 556 447 494 608 563 553 l 553 406 b 343 94 542 242 450 94 z "},"б":{"ha":814,"x_min":0,"x_max":0,"o":"m 378 786 b 679 843 501 826 585 799 b 801 985 749 875 794 925 b 764 1011 807 1018 785 1024 b 704 983 746 1004 733 996 b 575 960 671 967 631 963 b 357 913 492 954 415 943 b 68 422 190 833 99 646 b 358 -14 26 115 175 -14 b 764 399 568 -14 753 171 b 506 685 775 561 678 685 b 204 490 375 685 264 606 b 378 786 206 671 288 761 z m 228 285 b 457 599 236 450 331 599 b 603 415 564 599 603 507 b 372 63 603 238 511 61 b 228 285 274 63 222 154 z "},"в":{"ha":726,"x_min":0,"x_max":0,"o":"m 342 -14 b 653 221 514 -14 653 79 b 510 367 653 293 600 351 b 674 539 601 389 674 457 b 461 681 674 636 581 679 b 50 265 243 681 50 483 b 342 -14 50 96 175 -14 z m 358 57 b 208 272 247 57 208 157 b 432 613 208 421 296 613 b 524 528 489 613 524 574 b 353 388 524 450 456 393 b 307 350 325 386 308 367 b 339 322 306 336 315 322 b 482 206 422 319 482 278 b 358 57 482 121 428 57 z "},"г":{"ha":597,"x_min":0,"x_max":0,"o":"m 224 -12 b 504 126 371 -12 472 76 b 475 171 532 163 510 196 b 281 96 435 142 364 96 b 192 169 233 96 192 114 b 333 322 192 238 260 279 b 531 549 426 376 531 432 b 353 681 531 632 457 681 b 92 553 244 681 144 631 b 131 515 64 513 99 494 b 303 582 190 557 246 582 b 376 528 346 582 375 563 b 265 385 378 471 331 425 b 32 138 164 321 32 261 b 224 -12 32 68 75 -12 z "},"ґ":{"ha":597,"x_min":0,"x_max":0,"o":"m 294 764 b 536 865 358 740 513 800 b 479 956 553 911 528 956 b 375 896 449 956 415 929 b 278 792 325 851 285 810 b 294 764 274 781 276 769 z m 224 -12 b 504 126 371 -12 472 76 b 475 171 532 163 510 196 b 281 96 435 142 364 96 b 192 169 233 96 192 114 b 333 322 192 238 260 279 b 531 549 426 376 531 432 b 353 681 531 632 457 681 b 92 553 244 681 144 631 b 131 515 64 513 99 494 b 303 582 190 557 246 582 b 376 528 346 582 375 563 b 265 385 378 471 331 425 b 32 138 164 321 32 261 b 224 -12 32 68 75 -12 z "},"д":{"ha":767,"x_min":0,"x_max":0,"o":"m 726 506 b 372 974 724 779 567 935 b 299 943 319 978 300 960 b 322 917 299 932 307 922 b 556 613 443 864 528 783 b 401 678 519 656 467 676 b 54 286 196 679 54 494 b 336 -14 54 99 171 -14 b 726 506 589 -14 728 232 z m 356 61 b 215 265 258 61 215 156 b 418 597 215 422 281 597 b 557 411 517 597 557 517 b 356 61 557 256 492 61 z "},"е":{"ha":733,"x_min":0,"x_max":0,"o":"m 610 192 b 394 99 554 143 485 99 b 222 225 311 99 247 151 b 674 522 444 256 674 342 b 468 681 674 625 581 681 b 50 269 213 681 50 460 b 332 -14 50 83 175 -14 b 647 161 492 -14 610 89 b 610 192 668 200 639 217 z m 421 607 b 532 500 488 607 532 561 b 249 301 532 385 389 322 b 208 331 218 296 208 311 b 421 607 208 481 303 607 z "},"ё":{"ha":733,"x_min":0,"x_max":0,"o":"m 332 774 b 428 861 381 774 428 811 b 356 931 428 903 399 931 b 265 836 306 931 265 883 b 332 774 265 799 294 774 z m 547 774 b 642 861 596 774 642 811 b 571 931 642 903 613 931 b 481 836 519 931 481 883 b 547 774 481 799 510 774 z m 610 192 b 394 99 554 143 485 99 b 222 225 311 99 247 151 b 674 522 444 256 674 342 b 468 681 674 625 581 681 b 50 269 213 681 50 460 b 332 -14 50 83 175 -14 b 647 161 492 -14 610 89 b 610 192 668 200 639 217 z m 421 607 b 532 500 488 607 532 561 b 249 301 532 385 389 322 b 208 331 218 296 208 311 b 421 607 208 481 303 607 z "},"ж":{"ha":1076,"x_min":0,"x_max":0,"o":"m 82 -10 b 272 167 181 -10 222 61 b 431 319 317 258 368 319 b 453 290 454 319 456 318 l 438 179 b 428 135 435 164 432 149 b 349 32 406 63 356 75 b 403 0 346 7 367 0 l 578 0 b 639 31 613 0 636 6 b 593 135 646 76 596 63 b 594 179 592 149 593 164 l 607 288 b 640 319 611 318 614 319 b 754 167 703 319 738 258 b 896 -10 775 61 797 -10 b 1011 44 956 -10 1008 13 b 989 68 1013 58 1004 68 b 906 185 947 69 935 81 b 733 351 881 275 856 333 b 831 443 776 369 807 408 b 911 544 865 493 886 544 b 988 499 944 544 940 499 b 1065 583 1019 499 1057 524 b 981 681 1074 646 1033 681 b 779 481 879 681 833 565 b 664 390 747 429 714 390 l 651 390 b 626 417 625 390 624 390 l 636 488 b 646 533 638 503 642 518 b 725 636 668 604 718 592 b 669 667 728 660 706 667 l 496 667 b 433 636 460 667 438 661 b 481 533 428 590 478 604 b 479 488 482 518 481 503 l 469 417 b 439 390 467 390 464 390 l 425 390 b 339 474 378 390 357 428 b 192 681 307 560 294 681 b 81 583 139 681 89 646 b 135 499 72 524 103 499 b 222 544 182 499 189 544 b 278 435 249 544 253 486 b 346 351 292 404 310 368 b 128 185 219 332 178 275 b 11 68 69 81 53 69 b -18 44 -4 68 -17 58 b 82 -10 -25 13 22 -10 z "},"з":{"ha":635,"x_min":0,"x_max":0,"o":"m 272 -12 b 560 199 406 -12 539 60 b 414 367 569 267 531 344 b 569 529 492 388 560 449 b 386 681 583 636 485 681 b 249 667 313 681 282 667 b 197 681 222 667 218 681 b 149 625 179 681 167 669 b 119 519 136 590 126 556 b 133 476 114 493 115 476 b 185 517 151 476 163 489 b 333 608 224 565 264 608 b 413 515 394 608 419 564 b 232 386 404 463 354 399 b 222 325 192 382 181 328 b 403 190 361 319 414 263 b 244 74 389 94 301 74 b 75 138 176 74 114 99 b 29 106 51 161 14 142 b 272 -12 60 33 158 -12 z "},"и":{"ha":872,"x_min":0,"x_max":0,"o":"m 781 139 b 718 100 761 139 744 100 b 696 158 696 100 690 121 l 768 642 b 735 675 772 663 758 682 l 644 651 b 608 617 626 647 613 639 l 586 479 b 331 82 546 229 429 82 b 258 290 233 82 243 188 l 311 640 b 281 678 315 665 303 678 b 167 649 256 678 213 667 b 81 583 92 619 81 604 b 131 488 81 546 142 567 l 97 251 b 283 -14 74 83 135 -14 b 538 149 385 -14 468 47 b 640 -11 525 26 575 -11 b 797 115 732 -11 793 61 b 781 139 799 132 789 139 z "},"й":{"ha":872,"x_min":0,"x_max":0,"o":"m 476 740 b 717 889 592 740 704 799 b 672 942 721 918 701 942 b 485 801 593 942 578 801 b 336 942 390 801 414 942 b 275 889 307 942 281 918 b 476 740 263 800 351 740 z m 781 139 b 718 100 761 139 744 100 b 696 158 696 100 690 121 l 768 642 b 735 675 772 663 758 682 l 644 651 b 608 617 626 647 613 639 l 586 479 b 331 82 546 229 429 82 b 258 290 233 82 243 188 l 311 640 b 281 678 315 665 303 678 b 167 649 256 678 213 667 b 81 583 92 619 81 604 b 131 488 81 546 142 567 l 97 251 b 283 -14 74 83 135 -14 b 538 149 385 -14 468 47 b 640 -11 525 26 575 -11 b 797 115 732 -11 793 61 b 781 139 799 132 789 139 z "},"к":{"ha":767,"x_min":0,"x_max":0,"o":"m 588 -10 b 703 44 646 -10 700 13 b 681 68 703 58 694 68 b 592 185 639 69 625 81 b 421 356 563 275 542 336 b 596 544 521 411 554 544 b 674 499 631 544 625 499 b 750 583 704 499 742 524 b 667 681 760 646 718 681 b 317 390 504 681 483 390 l 304 390 b 281 417 279 390 278 393 l 289 488 b 299 533 290 503 294 518 b 378 636 321 604 371 592 b 324 667 381 660 360 667 l 149 667 b 88 636 114 667 90 661 b 133 533 81 590 131 604 b 132 488 135 518 133 503 l 90 179 b 81 135 89 164 85 149 b 1 32 58 63 8 75 b 57 0 -1 7 21 0 l 231 0 b 293 31 267 0 289 6 b 246 135 299 76 249 63 b 247 179 244 149 246 164 l 261 293 b 293 319 264 317 272 319 b 440 167 388 319 417 257 b 588 -10 467 61 489 -10 z "},"л":{"ha":851,"x_min":0,"x_max":0,"o":"m 79 -14 b 229 76 136 -14 193 13 b 375 538 303 172 340 368 b 479 594 385 589 413 590 b 561 540 547 600 567 583 l 503 136 b 610 -11 490 44 532 -11 b 768 115 703 -11 764 61 b 750 139 769 132 760 139 b 689 100 732 139 715 100 b 661 157 665 100 656 121 l 714 524 b 779 639 725 603 774 597 b 726 669 782 658 767 669 b 442 667 642 672 531 672 b 236 606 285 656 236 640 b 269 568 236 589 250 578 b 290 497 292 558 297 543 b 135 90 272 374 207 90 b 58 150 97 90 115 150 b -14 76 26 150 -7 119 b 79 -14 -24 6 40 -14 z "},"м":{"ha":1078,"x_min":0,"x_max":0,"o":"m 79 -14 b 229 76 136 -14 192 13 b 361 482 303 172 339 369 b 435 72 382 338 406 203 b 507 49 443 40 474 42 b 565 90 532 54 553 68 l 779 486 l 751 142 b 857 -11 742 44 774 -11 b 1015 115 950 -11 1011 61 b 997 139 1017 132 1008 139 b 936 100 979 139 963 100 b 910 158 913 100 906 121 l 950 632 b 921 674 953 665 940 675 b 814 651 882 672 851 667 b 769 610 793 643 781 628 l 560 232 b 483 643 531 371 507 504 b 453 674 481 660 471 674 b 313 643 418 674 357 660 b 235 583 256 622 236 603 b 267 549 233 564 249 557 b 288 493 281 542 293 531 b 135 90 269 375 207 90 b 58 150 97 90 115 150 b -14 76 26 150 -7 119 b 79 -14 -24 6 40 -14 z "},"н":{"ha":865,"x_min":0,"x_max":0,"o":"m 785 139 b 722 100 765 139 749 100 b 694 157 700 100 689 121 l 764 646 b 732 678 768 668 754 683 l 640 657 b 607 622 621 654 610 643 l 572 378 l 274 378 l 310 640 b 279 676 314 665 301 676 b 168 649 256 676 219 668 b 81 585 92 621 81 604 b 131 483 81 546 142 561 l 67 18 b 99 -15 63 -4 78 -19 l 193 6 b 226 40 213 10 224 21 l 264 307 l 563 307 l 539 140 b 644 -11 525 44 565 -11 b 803 115 736 -11 797 61 b 785 139 803 132 793 139 z "},"о":{"ha":804,"x_min":0,"x_max":0,"o":"m 353 -14 b 753 401 576 -14 753 167 b 458 681 753 554 646 681 b 51 272 239 681 51 493 b 353 -14 51 103 169 -14 z m 369 61 b 217 279 263 61 218 158 b 439 607 218 426 296 607 b 578 399 543 607 578 508 b 369 61 578 244 504 61 z "},"п":{"ha":876,"x_min":0,"x_max":0,"o":"m 796 139 b 735 100 778 139 761 100 b 713 157 711 100 710 121 l 728 431 b 554 678 739 586 683 678 b 272 476 440 678 342 601 l 297 640 b 267 676 301 665 289 676 b 167 649 242 676 213 668 b 81 583 92 618 81 604 b 131 483 81 546 142 563 l 64 22 b 96 -11 60 -3 74 -17 l 189 13 b 219 47 207 17 217 26 l 243 178 b 492 574 286 426 399 574 b 574 422 564 574 579 514 l 556 142 b 658 -11 549 44 581 -11 b 814 115 749 -11 810 61 b 796 139 815 132 806 139 z "},"р":{"ha":806,"x_min":0,"x_max":0,"o":"m 549 676 b 292 551 446 676 353 625 l 304 642 b 275 678 308 665 297 678 b 169 650 250 678 224 671 b 83 588 96 622 83 606 b 140 489 83 551 149 556 l 54 -111 b -31 -250 42 -208 -25 -208 b 29 -278 -33 -271 -18 -278 l 190 -278 b 257 -250 235 -278 254 -272 b 213 -111 263 -210 200 -208 l 231 17 b 364 -8 274 1 318 -8 b 758 419 557 -8 747 160 b 549 676 768 563 690 676 z m 372 64 b 250 256 294 64 236 124 b 467 571 271 446 368 571 b 592 419 553 571 590 501 b 372 64 593 231 503 64 z "},"с":{"ha":747,"x_min":0,"x_max":0,"o":"m 351 -14 b 668 156 513 -14 631 82 b 631 186 686 193 661 211 b 422 104 575 138 510 104 b 214 328 290 104 214 196 b 408 603 214 465 290 603 b 526 436 511 603 532 515 b 592 356 524 389 546 358 b 690 458 643 353 685 396 b 443 681 701 563 614 681 b 51 275 229 681 51 497 b 351 -14 51 113 164 -14 z "},"т":{"ha":1311,"x_min":0,"x_max":0,"o":"m 1231 139 b 1168 100 1213 139 1194 100 b 1146 157 1146 100 1144 121 l 1163 431 b 988 678 1172 586 1115 678 b 731 511 894 678 799 617 b 551 678 721 617 657 678 b 275 493 456 678 350 614 l 297 640 b 267 676 301 665 289 676 b 167 649 242 676 213 668 b 81 583 92 618 81 604 b 131 483 81 546 142 563 l 60 19 b 92 -14 56 -4 69 -19 l 185 10 b 217 44 203 14 214 24 l 240 178 b 493 576 285 426 392 576 b 563 371 565 576 583 515 l 511 21 b 542 -12 507 -4 521 -18 l 636 11 b 668 44 654 15 664 25 l 692 178 b 928 576 736 426 835 576 b 1007 422 996 576 1014 514 l 989 142 b 1090 -11 983 44 1011 -11 b 1249 115 1183 -11 1244 61 b 1231 139 1249 132 1239 139 z "},"у":{"ha":729,"x_min":0,"x_max":0,"o":"m 610 682 b 506 588 558 682 506 636 b 563 414 506 526 563 511 b 429 63 563 308 503 181 b 256 640 381 272 325 453 b 207 679 246 665 231 679 b 35 565 161 679 35 610 b 72 540 35 550 49 540 b 143 490 111 539 128 529 b 276 68 200 347 249 194 b 288 -58 289 8 293 -25 b 150 -194 278 -131 221 -194 b 54 -124 89 -194 72 -162 b -18 -68 35 -82 8 -68 b -101 -165 -65 -68 -101 -107 b 61 -292 -101 -237 -49 -292 b 485 11 236 -292 371 -164 b 692 585 557 122 692 383 b 610 682 692 632 672 682 z "},"ф":{"ha":1129,"x_min":0,"x_max":0,"o":"m 561 -278 b 626 -250 604 -278 624 -271 b 581 -111 632 -208 565 -208 l 600 38 b 746 -14 639 6 686 -14 b 1074 340 906 -14 1042 115 b 864 681 1104 556 1018 681 b 679 607 799 681 729 654 l 732 958 b 707 994 735 985 726 994 b 546 940 685 993 610 969 b 499 901 511 925 501 917 b 519 865 496 885 506 875 b 547 767 547 844 553 813 l 526 613 b 381 681 493 656 438 681 b 54 324 208 681 81 514 b 282 -14 21 90 144 -14 b 444 39 343 -14 397 6 l 425 -111 b 339 -249 411 -207 344 -208 b 399 -278 336 -271 353 -278 z m 343 72 b 217 338 256 72 193 158 b 396 588 235 469 296 588 b 500 439 471 588 513 531 l 467 189 b 343 72 460 136 417 72 z m 743 68 b 621 185 660 68 614 139 l 657 438 b 794 588 669 529 725 588 b 911 308 901 588 932 469 b 743 68 890 156 838 68 z "},"х":{"ha":732,"x_min":0,"x_max":0,"o":"m 654 678 b 397 422 565 678 478 550 l 306 649 b 265 681 297 671 282 681 b 103 565 226 681 103 608 b 144 543 103 546 122 542 b 210 483 171 544 194 524 l 285 300 b 115 117 218 194 157 117 b 53 149 90 117 82 149 b -10 71 22 149 -10 115 b 72 -14 -10 28 15 -14 b 317 221 158 -14 236 94 l 349 142 b 500 -14 382 61 415 -14 b 658 89 571 -14 658 43 b 640 108 658 100 654 108 b 581 96 621 108 610 96 b 474 236 533 96 500 171 l 431 343 b 608 547 500 453 567 547 b 669 517 632 547 640 517 b 732 592 701 517 729 549 b 654 678 736 638 711 678 z "},"ч":{"ha":794,"x_min":0,"x_max":0,"o":"m 574 -11 b 732 115 667 -11 728 61 b 715 139 733 132 724 139 b 653 100 696 139 679 100 b 625 157 631 100 621 121 l 694 646 b 663 678 699 668 685 683 l 567 657 b 535 624 549 654 536 643 l 522 535 b 346 313 501 369 421 313 b 267 501 256 313 251 407 l 288 640 b 257 678 290 665 279 678 b 153 653 232 678 200 669 b 60 588 69 624 60 604 b 88 554 60 574 68 564 b 111 485 111 544 117 526 b 100 385 104 446 100 422 b 285 215 100 274 168 215 b 492 304 363 215 439 242 l 468 142 b 574 -11 453 44 496 -11 z "},"ц":{"ha":857,"x_min":0,"x_max":0,"o":"m 796 139 b 721 100 765 139 747 100 b 699 158 699 100 693 121 l 767 642 b 733 675 771 663 757 682 l 643 651 b 607 617 625 647 611 639 l 589 479 b 333 82 553 229 440 82 b 258 290 238 82 243 188 l 311 640 b 281 678 315 665 303 678 b 174 653 256 678 232 672 b 81 588 90 624 81 604 b 108 554 81 574 89 564 b 131 485 132 544 138 529 l 97 251 b 286 -14 72 83 143 -14 b 539 140 392 -14 471 43 b 643 -11 526 28 579 -11 b 742 28 682 -11 715 4 b 664 -78 736 -10 707 -37 b 564 -214 625 -114 564 -147 b 608 -283 564 -246 588 -271 b 654 -269 632 -296 656 -293 b 669 -222 653 -256 653 -237 b 793 -103 714 -181 753 -153 b 842 68 824 -64 842 -3 b 796 139 842 106 822 139 z "},"ш":{"ha":1224,"x_min":0,"x_max":0,"o":"m 1143 139 b 1081 100 1125 139 1107 100 b 1058 158 1058 100 1053 121 l 1128 642 b 1093 675 1131 663 1118 682 l 1003 651 b 968 617 985 647 971 639 l 946 460 b 726 83 913 229 815 82 b 665 257 646 83 653 174 l 717 642 b 683 675 721 663 707 682 l 592 651 b 557 617 575 647 560 639 l 536 460 b 314 86 507 258 419 86 b 253 256 236 86 240 178 l 311 640 b 281 678 315 665 303 678 b 174 653 256 678 232 672 b 81 588 90 624 81 604 b 108 554 81 574 89 564 b 131 485 132 544 138 529 l 97 251 b 267 -14 72 83 138 -14 b 507 147 365 -14 450 49 b 674 -14 519 40 583 -14 b 900 125 761 -14 839 36 b 1003 -11 894 22 942 -11 b 1161 115 1096 -11 1157 61 b 1143 139 1163 132 1153 139 z "},"щ":{"ha":1217,"x_min":0,"x_max":0,"o":"m 1156 139 b 1081 100 1125 139 1107 100 b 1058 158 1058 100 1053 121 l 1128 642 b 1093 675 1131 663 1118 682 l 1003 651 b 968 617 985 647 971 639 l 946 460 b 726 83 913 229 818 82 b 665 257 646 83 653 174 l 717 642 b 683 675 721 663 707 682 l 592 651 b 557 617 575 647 560 639 l 536 460 b 315 86 506 247 419 86 b 253 256 236 86 240 178 l 311 640 b 281 678 315 665 303 678 b 174 653 256 678 232 672 b 81 588 90 624 81 604 b 108 554 81 574 89 564 b 131 485 132 544 138 529 l 97 251 b 267 -14 72 83 138 -14 b 507 147 368 -14 451 47 b 674 -14 519 40 583 -14 b 899 122 761 -14 838 36 b 1003 -11 894 21 943 -11 b 1101 28 1042 -11 1075 4 b 1024 -78 1096 -10 1068 -37 b 925 -214 985 -114 925 -147 b 968 -283 925 -246 947 -271 b 1014 -269 992 -296 1017 -293 b 1029 -222 1014 -256 1013 -237 b 1153 -103 1075 -181 1113 -153 b 1203 68 1183 -64 1203 -3 b 1156 139 1203 106 1182 139 z "},"ь":{"ha":708,"x_min":0,"x_max":0,"o":"m 474 501 b 276 413 399 501 328 467 l 310 640 b 278 678 313 665 300 678 b 175 653 254 678 232 672 b 82 588 92 624 82 604 b 132 485 82 549 143 554 l 99 247 b 307 -14 72 74 161 -14 b 653 329 510 -14 653 158 b 474 501 653 429 585 501 z m 342 65 b 254 192 290 65 249 108 b 408 407 261 300 325 407 b 496 303 472 407 494 358 b 342 65 499 194 435 65 z "},"ы":{"ha":1029,"x_min":0,"x_max":0,"o":"m 949 139 b 888 100 931 139 914 100 b 858 157 864 100 853 121 l 929 646 b 896 678 932 668 918 683 l 804 657 b 771 622 786 654 775 643 l 703 140 b 808 -11 690 44 731 -11 b 967 115 901 -11 963 61 b 949 139 968 132 958 139 z m 471 501 b 275 414 397 501 326 467 l 307 640 b 276 678 311 665 299 678 b 174 653 253 678 229 672 b 81 588 90 624 81 604 b 131 485 81 549 142 554 l 96 247 b 306 -14 71 74 160 -14 b 651 329 508 -14 651 158 b 471 501 651 429 583 501 z m 340 65 b 253 192 289 65 247 108 b 407 407 260 300 324 407 b 494 303 469 407 492 358 b 340 65 497 194 433 65 z "},"ъ":{"ha":768,"x_min":0,"x_max":0,"o":"m 519 503 b 326 410 443 503 372 463 l 390 640 b 365 678 399 665 385 678 b 133 667 289 678 211 674 b 15 611 49 658 32 651 b -14 514 1 574 -7 544 b 4 464 -19 486 -19 464 b 63 511 26 464 38 476 b 174 593 110 575 133 593 b 206 524 211 593 218 576 b 139 247 186 432 144 333 b 367 -14 122 63 231 -14 b 708 326 565 -14 708 151 b 519 503 708 429 635 503 z m 392 63 b 299 200 328 63 289 113 b 463 407 314 315 381 407 b 551 304 529 407 550 358 b 392 63 551 194 489 63 z "},"є":{"ha":735,"x_min":0,"x_max":0,"o":"m 340 -14 b 657 156 500 -14 618 82 b 618 186 675 193 647 211 b 422 104 563 138 499 104 b 211 313 288 104 217 189 b 274 331 235 325 254 331 b 422 279 333 331 361 279 b 575 375 476 279 568 329 b 556 399 576 388 569 399 b 458 367 535 399 501 367 b 321 414 408 367 378 414 b 213 374 293 414 256 400 l 214 385 b 421 607 233 524 319 607 b 629 506 529 607 558 506 b 693 560 661 506 689 529 b 475 681 704 635 582 681 b 51 307 247 681 81 510 b 340 -14 28 139 122 -14 z "},"э":{"ha":722,"x_min":0,"x_max":0,"o":"m 272 -14 b 667 338 514 -14 640 157 b 378 681 693 526 597 681 b 218 663 282 681 251 663 b 164 681 192 663 183 681 b 115 625 144 681 132 669 b 86 519 103 590 93 556 b 100 476 81 493 81 476 b 151 517 117 476 129 489 b 326 607 189 565 247 607 b 510 375 457 607 510 492 b 450 360 488 364 469 360 b 303 411 390 360 363 411 b 149 315 247 411 156 360 b 168 292 147 301 154 292 b 265 322 189 292 221 322 b 403 276 315 322 346 276 b 506 314 429 276 465 289 b 263 65 481 146 388 65 b 78 140 193 65 118 99 b 32 108 54 164 18 144 b 272 -14 60 36 171 -14 z "},"і":{"ha":414,"x_min":0,"x_max":0,"o":"m 225 771 b 360 885 288 768 357 826 b 285 964 361 926 328 963 b 151 847 221 969 153 906 b 225 771 149 806 179 772 z m 182 -11 b 340 115 275 -11 336 61 b 322 139 340 132 331 139 b 260 100 304 139 286 100 b 236 157 238 100 231 121 l 306 640 b 275 678 310 665 297 678 b 168 650 250 678 219 668 b 81 588 92 622 81 604 b 131 483 81 547 143 561 l 79 140 b 182 -11 64 44 103 -11 z "},"ї":{"ha":414,"x_min":0,"x_max":0,"o":"m 104 779 b 200 867 153 779 200 817 b 128 936 200 908 171 936 b 38 842 78 936 38 889 b 104 779 38 804 67 779 z m 319 779 b 414 867 368 779 414 817 b 343 936 414 908 385 936 b 253 842 292 936 253 889 b 319 779 253 804 282 779 z m 182 -11 b 340 115 275 -11 336 61 b 322 139 340 132 331 139 b 260 100 304 139 286 100 b 236 157 238 100 231 121 l 306 640 b 275 678 310 665 297 678 b 168 650 250 678 219 668 b 81 588 92 622 81 604 b 131 483 81 547 143 561 l 79 140 b 182 -11 64 44 103 -11 z "},"ю":{"ha":1122,"x_min":0,"x_max":0,"o":"m 776 681 b 383 378 593 681 432 550 l 274 378 l 310 640 b 279 676 314 665 301 676 b 168 649 254 676 219 668 b 81 585 92 621 81 604 b 131 483 81 546 142 561 l 67 18 b 99 -15 63 -4 76 -19 l 193 6 b 226 40 211 10 222 21 l 264 306 l 371 306 b 369 272 369 294 369 283 b 671 -14 369 103 488 -14 b 1071 401 894 -14 1071 167 b 776 681 1071 554 964 681 z m 688 61 b 535 279 581 61 535 158 b 756 607 535 426 614 607 b 896 399 861 607 896 508 b 688 61 896 244 822 61 z "},"я":{"ha":792,"x_min":0,"x_max":0,"o":"m 571 -14 b 729 115 664 -14 725 61 b 711 139 729 132 719 139 b 649 100 692 139 675 100 b 625 157 626 100 618 121 l 671 500 b 757 639 683 596 750 597 b 694 667 758 658 743 667 l 490 667 b 108 439 256 667 128 571 b 224 267 97 363 139 299 b 118 150 171 240 146 197 b 15 63 76 78 51 69 b -15 38 -1 60 -11 51 b 85 -10 -21 4 31 -10 b 263 121 192 -10 238 67 b 386 247 300 208 315 243 b 460 251 410 247 435 249 b 478 232 471 253 481 246 l 465 142 b 571 -14 451 43 492 -14 z m 404 318 b 267 451 292 318 257 382 b 463 597 281 549 353 597 b 522 561 519 597 525 585 l 492 349 b 404 318 489 328 478 318 z "},"⁄":{"ha":513,"x_min":0,"x_max":0,"o":"m 39 -139 b 88 -107 64 -139 76 -131 l 581 985 b 558 1028 596 1015 589 1028 l 544 1028 b 497 996 521 1028 507 1019 l 3 -96 b 29 -139 -11 -126 -4 -139 z "},"¹":{"ha":360,"x_min":0,"x_max":0,"o":"m 290 961 b 275 983 293 978 288 983 b 163 947 261 982 203 964 b 113 917 121 932 114 928 b 138 894 113 907 117 900 b 171 832 174 883 175 867 l 119 471 b 61 385 111 411 61 414 b 101 367 61 372 72 367 l 224 367 b 263 385 251 367 263 371 b 221 471 263 410 213 411 z "},"²":{"ha":572,"x_min":0,"x_max":0,"o":"m 490 822 b 338 986 506 921 439 986 b 122 854 233 986 153 914 b 144 835 110 831 128 818 b 289 908 193 888 242 908 b 379 806 351 908 388 868 b 46 421 364 697 221 569 b 29 388 36 413 29 399 b 54 364 29 375 36 364 b 150 417 86 364 108 417 b 363 368 213 417 269 368 b 482 496 432 368 481 426 b 468 521 482 510 479 521 b 369 465 447 521 444 465 b 200 494 297 465 263 492 b 490 822 382 622 476 728 z "},"³":{"ha":529,"x_min":0,"x_max":0,"o":"m 535 939 b 521 974 549 956 543 974 b 467 942 501 974 486 942 b 247 983 394 942 324 983 b 149 897 189 983 165 951 b 151 825 140 869 131 825 b 193 860 165 825 172 840 b 263 885 213 878 238 885 b 406 863 319 885 356 865 b 233 718 353 810 296 765 b 236 678 214 704 210 681 b 394 544 342 665 406 626 b 251 431 383 468 317 431 b 90 508 176 431 126 460 b 57 489 78 525 51 513 b 267 357 74 426 147 357 b 506 543 415 357 493 450 b 324 735 524 667 426 724 b 535 939 400 794 472 867 z "}," ":{"ha":278,"x_min":0,"x_max":0,"o":""}," ":{"ha":278,"x_min":0,"x_max":0,"o":""},".":{"ha":329,"x_min":0,"x_max":0,"o":"m 124 -15 b 231 90 179 -15 231 25 b 147 176 231 147 192 176 b 39 69 94 176 39 136 b 124 -15 39 13 78 -15 z "},",":{"ha":343,"x_min":0,"x_max":0,"o":"m 54 -197 b 240 64 115 -197 240 -78 b 142 174 240 132 199 174 b 39 68 93 174 39 136 b 97 -65 39 -1 97 -18 b 32 -179 97 -121 32 -151 b 54 -197 32 -189 40 -197 z "},":":{"ha":329,"x_min":0,"x_max":0,"o":"m 185 415 b 292 521 240 415 292 456 b 208 607 292 578 253 607 b 100 500 156 607 100 567 b 185 415 100 443 139 415 z m 124 -15 b 231 90 179 -15 231 25 b 147 176 231 147 192 176 b 39 69 94 176 39 136 b 124 -15 39 13 78 -15 z "},";":{"ha":346,"x_min":0,"x_max":0,"o":"m 183 415 b 292 521 239 415 292 456 b 208 607 292 578 253 607 b 99 500 156 607 99 567 b 183 415 99 443 139 415 z m 56 -197 b 242 64 117 -197 242 -78 b 143 174 242 132 200 174 b 40 68 96 174 40 136 b 100 -65 40 -1 100 -18 b 35 -179 100 -121 35 -151 b 56 -197 35 -189 43 -197 z "},"…":{"ha":906,"x_min":0,"x_max":0,"o":"m 122 -18 b 231 88 178 -18 231 22 b 147 174 231 144 192 174 b 38 67 94 174 38 133 b 122 -18 38 10 78 -18 z m 406 -18 b 514 88 461 -18 514 22 b 431 174 514 144 475 174 b 321 67 378 174 321 133 b 406 -18 321 10 361 -18 z m 699 -18 b 807 88 754 -18 807 22 b 724 174 807 144 768 174 b 614 67 671 174 614 133 b 699 -18 614 10 654 -18 z "},"!":{"ha":331,"x_min":0,"x_max":0,"o":"m 165 338 b 192 368 182 338 186 346 b 339 879 239 608 328 794 b 256 986 349 944 311 986 b 144 879 201 986 154 944 b 147 368 133 794 167 608 b 165 338 144 346 149 338 z m 124 -18 b 231 88 179 -18 231 22 b 147 174 231 144 192 174 b 39 67 94 174 39 133 b 124 -18 39 10 78 -18 z "},"¡":{"ha":347,"x_min":0,"x_max":0,"o":"m 196 492 b 304 597 253 492 304 532 b 221 683 304 654 265 683 b 113 575 168 683 113 642 b 196 492 113 518 151 492 z m 81 -319 b 193 -212 135 -319 183 -278 b 189 299 204 -128 169 58 b 171 329 192 322 188 329 b 144 299 154 329 149 322 b -1 -212 96 58 10 -128 b 81 -319 -11 -278 25 -319 z "},"?":{"ha":619,"x_min":0,"x_max":0,"o":"m 329 374 b 379 482 336 408 361 457 b 644 792 457 585 625 660 b 397 986 661 903 569 986 b 92 790 221 986 106 888 b 158 708 86 746 107 708 b 242 778 207 708 224 742 b 386 911 283 864 326 911 b 468 800 449 911 478 864 b 260 385 446 653 286 569 b 329 374 251 325 319 322 z m 254 -18 b 363 88 310 -18 363 22 b 279 174 363 144 324 174 b 169 67 226 174 169 133 b 254 -18 169 10 210 -18 z "},"¿":{"ha":585,"x_min":0,"x_max":0,"o":"m 335 490 b 443 596 390 490 443 531 b 358 682 443 653 403 682 b 250 574 307 682 250 640 b 335 490 250 518 290 490 z m 206 -319 b 513 -124 383 -319 499 -221 b 447 -42 519 -79 499 -42 b 363 -111 397 -42 381 -75 b 218 -244 321 -197 278 -244 b 136 -133 157 -244 126 -197 b 344 282 158 15 318 97 b 275 293 353 342 285 344 b 225 185 269 258 243 210 b -42 -125 146 83 -21 7 b 206 -319 -57 -236 35 -319 z "},"·":{"ha":349,"x_min":0,"x_max":0,"o":"m 165 242 b 272 347 221 242 272 282 b 189 433 272 404 233 433 b 81 326 136 433 81 393 b 165 242 81 269 119 242 z "},"•":{"ha":453,"x_min":0,"x_max":0,"o":"m 210 208 b 350 346 282 208 350 261 b 242 458 350 419 299 458 b 100 317 174 458 100 404 b 210 208 100 244 151 208 z "},"*":{"ha":665,"x_min":0,"x_max":0,"o":"m 153 433 b 256 446 179 407 225 414 b 336 596 293 483 303 540 b 400 597 357 628 389 628 b 440 446 418 544 414 483 b 540 433 463 414 506 407 b 561 536 575 460 582 504 b 443 615 536 574 486 585 b 469 678 415 638 431 676 b 622 681 522 682 576 665 b 681 772 663 696 690 735 b 593 813 674 810 633 826 b 461 719 547 799 510 751 b 414 757 428 696 399 719 b 482 899 435 806 476 854 b 422 974 489 940 463 974 b 342 899 383 974 347 940 b 369 757 336 853 363 810 b 311 719 375 719 340 696 b 207 813 275 750 247 799 b 107 772 169 826 126 810 b 140 681 88 735 103 696 b 293 678 181 665 238 682 b 301 615 331 676 335 638 b 161 536 254 588 194 572 b 153 433 131 504 125 460 z "},"#":{"ha":978,"x_min":0,"x_max":0,"o":"m 175 0 b 208 24 192 0 203 8 l 313 296 l 524 296 l 421 31 b 442 0 414 13 422 0 l 467 0 b 500 24 483 0 494 8 l 604 296 l 829 296 b 864 324 847 296 860 306 l 871 349 b 851 376 876 367 869 376 l 636 376 l 714 574 l 935 574 b 971 601 953 574 965 583 l 978 626 b 957 654 982 644 975 654 l 744 654 l 856 942 b 835 972 863 960 854 972 l 811 972 b 776 949 794 972 782 964 l 663 654 l 453 654 l 564 942 b 543 972 571 960 563 972 l 519 972 b 485 949 503 972 490 964 l 371 654 l 157 654 b 122 626 139 654 126 644 l 114 601 b 135 574 110 583 117 574 l 339 574 l 264 376 l 51 376 b 15 349 33 376 21 367 l 8 324 b 29 296 4 306 11 296 l 232 296 l 129 31 b 150 0 122 13 131 0 z m 631 574 l 556 376 l 344 376 l 422 574 z "},"/":{"ha":553,"x_min":0,"x_max":0,"o":"m 39 -139 b 88 -107 64 -139 76 -131 l 581 985 b 558 1028 596 1015 589 1028 l 544 1028 b 497 996 521 1028 507 1019 l 3 -96 b 29 -139 -11 -126 -4 -139 z "},"\\":{"ha":528,"x_min":0,"x_max":0,"o":"m 382 -139 b 417 -96 411 -139 422 -126 l 229 996 b 192 1028 226 1019 215 1028 l 178 1028 b 142 985 149 1028 138 1015 l 331 -107 b 368 -139 333 -131 343 -139 z "},"-":{"ha":494,"x_min":0,"x_max":0,"o":"m 383 365 b 424 393 404 365 415 374 l 432 413 b 408 443 439 435 429 443 l 129 443 b 89 415 108 443 97 435 l 82 396 b 104 365 74 374 83 365 z "},"­":{"ha":494,"x_min":0,"x_max":0,"o":"m 383 365 b 424 393 404 365 415 374 l 432 413 b 408 443 439 435 429 443 l 129 443 b 89 415 108 443 97 435 l 82 396 b 104 365 74 374 83 365 z "},"–":{"ha":704,"x_min":0,"x_max":0,"o":"m 592 365 b 632 393 613 365 624 374 l 640 413 b 617 443 647 435 638 443 l 129 443 b 89 415 108 443 97 435 l 82 396 b 104 365 74 374 83 365 z "},"—":{"ha":981,"x_min":0,"x_max":0,"o":"m 869 365 b 908 393 890 365 901 374 l 917 413 b 894 443 925 435 915 443 l 129 443 b 89 415 108 443 97 435 l 82 396 b 104 365 74 374 83 365 z "},"_":{"ha":586,"x_min":0,"x_max":0,"o":"m 474 -108 b 511 -74 497 -108 508 -99 b 483 -42 515 -50 507 -42 l -1 -42 b -39 -75 -25 -42 -36 -50 b -11 -108 -43 -99 -35 -108 z "},"(":{"ha":531,"x_min":0,"x_max":0,"o":"m 371 -167 b 428 -158 388 -175 413 -178 b 411 -103 442 -140 431 -121 b 250 460 271 28 215 211 b 564 1011 283 696 386 885 b 596 1067 588 1029 604 1050 b 535 1068 586 1086 560 1081 b 78 464 329 964 119 760 b 371 -167 33 139 194 -72 z "},")":{"ha":533,"x_min":0,"x_max":0,"o":"m 19 -167 b 490 464 224 -72 444 139 b 204 1068 532 760 379 964 b 143 1067 182 1081 158 1086 b 157 1011 128 1050 139 1029 b 317 460 300 885 350 696 b -3 -103 282 211 175 28 b -35 -158 -26 -121 -44 -140 b 19 -167 -24 -178 1 -175 z "},"{":{"ha":453,"x_min":0,"x_max":0,"o":"m 294 -176 b 342 -143 325 -178 338 -169 b 310 -106 344 -122 332 -114 b 265 42 256 -90 257 -25 l 300 285 b 194 465 314 381 269 436 b 351 647 278 494 338 550 l 382 863 b 467 1013 390 929 415 994 b 511 1051 494 1021 508 1031 b 472 1081 514 1075 501 1083 b 214 838 311 1071 233 979 l 179 592 b 103 506 174 554 150 517 b 64 467 76 500 67 490 b 90 426 60 443 65 435 b 144 340 131 415 149 378 l 106 67 b 294 -176 86 -75 138 -168 z "},"}":{"ha":451,"x_min":0,"x_max":0,"o":"m 14 -176 b 272 67 175 -168 251 -75 l 311 340 b 388 426 315 378 344 415 b 426 467 415 435 424 443 b 399 506 431 490 422 500 b 346 592 354 517 340 554 l 381 838 b 192 1081 400 979 350 1071 b 143 1051 163 1083 147 1075 b 176 1013 140 1031 151 1021 b 221 863 224 994 229 929 l 190 647 b 294 465 176 550 219 494 b 139 285 211 436 153 381 l 104 42 b 21 -106 94 -25 79 -90 b -22 -143 -6 -114 -19 -122 b 14 -176 -26 -169 -17 -178 z "}}}
